MidiFile(type=1, ticks_per_beat=1024, tracks=[
  MidiTrack([
    MetaMessage('smpte_offset', frame_rate=24, hours=0, minutes=0, seconds=0, frames=0, sub_frames=0, time=0),
    MetaMessage('time_signature', numerator=4, denominator=4, clocks_per_click=24, notated_32nd_notes_per_beat=8, time=0),
    MetaMessage('key_signature', key='F', time=0),
    MetaMessage('set_tempo', tempo=923080, time=0),
    MetaMessage('set_tempo', tempo=923080, time=0),
    MetaMessage('set_tempo', tempo=923360, time=0),
    MetaMessage('set_tempo', tempo=923360, time=14336),
    MetaMessage('set_tempo', tempo=976172, time=283),
    MetaMessage('set_tempo', tempo=1035391, time=283),
    MetaMessage('set_tempo', tempo=1091698, time=283),
    MetaMessage('set_tempo', tempo=1166299, time=283),
    MetaMessage('set_tempo', tempo=1238217, time=283),
    MetaMessage('set_tempo', tempo=1333350, time=283),
    MetaMessage('set_tempo', tempo=1430191, time=283),
    MetaMessage('set_tempo', tempo=923360, time=67),
    MetaMessage('set_tempo', tempo=923360, time=14336),
    MetaMessage('set_tempo', tempo=976172, time=283),
    MetaMessage('set_tempo', tempo=1035391, time=283),
    MetaMessage('set_tempo', tempo=1091698, time=283),
    MetaMessage('set_tempo', tempo=1166299, time=283),
    MetaMessage('set_tempo', tempo=1238217, time=283),
    MetaMessage('set_tempo', tempo=1333350, time=283),
    MetaMessage('set_tempo', tempo=1430191, time=283),
    MetaMessage('time_signature', numerator=3, denominator=4, clocks_per_click=24, notated_32nd_notes_per_beat=8, time=67),
    MetaMessage('set_tempo', tempo=923360, time=0),
    MetaMessage('set_tempo', tempo=923360, time=21504),
    MetaMessage('set_tempo', tempo=976172, time=429),
    MetaMessage('set_tempo', tempo=1035391, time=429),
    MetaMessage('set_tempo', tempo=1091698, time=429),
    MetaMessage('set_tempo', tempo=1166299, time=429),
    MetaMessage('set_tempo', tempo=1238217, time=429),
    MetaMessage('set_tempo', tempo=1333350, time=429),
    MetaMessage('set_tempo', tempo=1430191, time=429),
    MetaMessage('set_tempo', tempo=923360, time=69),
    MetaMessage('time_signature', numerator=4, denominator=4, clocks_per_click=24, notated_32nd_notes_per_beat=8, time=24576),
    MetaMessage('set_tempo', tempo=923360, time=47104),
    MetaMessage('set_tempo', tempo=976172, time=283),
    MetaMessage('set_tempo', tempo=1026067, time=283),
    MetaMessage('set_tempo', tempo=1091698, time=283),
    MetaMessage('set_tempo', tempo=1154462, time=283),
    MetaMessage('set_tempo', tempo=1238217, time=283),
    MetaMessage('set_tempo', tempo=1319612, time=283),
    MetaMessage('set_tempo', tempo=1412432, time=283),
    MetaMessage('time_signature', numerator=3, denominator=4, clocks_per_click=24, notated_32nd_notes_per_beat=8, time=67),
    MetaMessage('set_tempo', tempo=923360, time=0),
    MetaMessage('set_tempo', tempo=923360, time=21504),
    MetaMessage('set_tempo', tempo=976172, time=429),
    MetaMessage('set_tempo', tempo=1026067, time=429),
    MetaMessage('set_tempo', tempo=1081320, time=429),
    MetaMessage('set_tempo', tempo=1154462, time=429),
    MetaMessage('set_tempo', tempo=1224883, time=429),
    MetaMessage('set_tempo', tempo=1304478, time=429),
    MetaMessage('set_tempo', tempo=1397024, time=429),
    MetaMessage('set_tempo', tempo=923360, time=69),
    MetaMessage('set_tempo', tempo=923360, time=18432),
    MetaMessage('set_tempo', tempo=976172, time=868),
    MetaMessage('set_tempo', tempo=1035391, time=868),
    MetaMessage('set_tempo', tempo=1091698, time=868),
    MetaMessage('set_tempo', tempo=1166299, time=868),
    MetaMessage('set_tempo', tempo=1238217, time=868),
    MetaMessage('set_tempo', tempo=1333350, time=868),
    MetaMessage('set_tempo', tempo=1430191, time=868),
    MetaMessage('end_of_track', time=3139)]),
  MidiTrack([
    MetaMessage('device_name', name='Launchkey Mini MK3', time=0),
    MetaMessage('track_name', name='Flute', time=0),
    Message('program_change', channel=0, program=0, time=0),
    Message('control_change', channel=0, control=7, value=101, time=0),
    Message('control_change', channel=0, control=10, value=14, time=0),
    Message('control_change', channel=0, control=7, value=70, time=0),
    Message('note_on', channel=0, note=0, velocity=64, time=3),
    Message('control_change', channel=0, control=1, value=33, time=7),
    Message('note_on', channel=0, note=69, velocity=72, time=0),
    Message('note_on', channel=0, note=74, velocity=72, time=0),
    Message('note_on', channel=0, note=77, velocity=86, time=0),
    Message('note_off', channel=0, note=0, velocity=64, time=17),
    Message('control_change', channel=0, control=1, value=34, time=151),
    Message('control_change', channel=0, control=1, value=35, time=112),
    Message('control_change', channel=0, control=1, value=36, time=56),
    Message('control_change', channel=0, control=1, value=38, time=56),
    Message('control_change', channel=0, control=1, value=39, time=56),
    Message('control_change', channel=0, control=1, value=40, time=40),
    Message('control_change', channel=0, control=1, value=42, time=56),
    Message('control_change', channel=0, control=1, value=44, time=56),
    Message('control_change', channel=0, control=1, value=45, time=56),
    Message('control_change', channel=0, control=1, value=47, time=56),
    Message('control_change', channel=0, control=1, value=49, time=56),
    Message('control_change', channel=0, control=1, value=51, time=56),
    Message('control_change', channel=0, control=1, value=52, time=56),
    Message('control_change', channel=0, control=1, value=54, time=56),
    Message('control_change', channel=0, control=1, value=56, time=56),
    Message('control_change', channel=0, control=1, value=57, time=56),
    Message('control_change', channel=0, control=1, value=59, time=56),
    Message('control_change', channel=0, control=1, value=60, time=56),
    Message('control_change', channel=0, control=1, value=61, time=56),
    Message('control_change', channel=0, control=1, value=63, time=56),
    Message('control_change', channel=0, control=1, value=64, time=56),
    Message('control_change', channel=0, control=1, value=65, time=112),
    Message('control_change', channel=0, control=1, value=66, time=132),
    Message('control_change', channel=0, control=1, value=65, time=56),
    Message('control_change', channel=0, control=1, value=64, time=280),
    Message('control_change', channel=0, control=1, value=63, time=168),
    Message('control_change', channel=0, control=1, value=62, time=112),
    Message('control_change', channel=0, control=1, value=61, time=112),
    Message('control_change', channel=0, control=1, value=60, time=112),
    Message('control_change', channel=0, control=1, value=59, time=56),
    Message('control_change', channel=0, control=1, value=58, time=112),
    Message('control_change', channel=0, control=1, value=57, time=112),
    Message('control_change', channel=0, control=1, value=56, time=112),
    Message('control_change', channel=0, control=1, value=55, time=56),
    Message('control_change', channel=0, control=1, value=54, time=112),
    Message('control_change', channel=0, control=1, value=53, time=112),
    Message('control_change', channel=0, control=1, value=52, time=168),
    Message('note_off', channel=0, note=69, velocity=0, time=290),
    Message('note_off', channel=0, note=74, velocity=0, time=0),
    Message('note_off', channel=0, note=77, velocity=0, time=36),
    Message('note_on', channel=0, note=76, velocity=80, time=1),
    Message('note_off', channel=0, note=76, velocity=0, time=211),
    Message('note_on', channel=0, note=77, velocity=80, time=37),
    Message('note_off', channel=0, note=77, velocity=0, time=222),
    Message('control_change', channel=0, control=1, value=52, time=25),
    Message('note_on', channel=0, note=67, velocity=72, time=16),
    Message('note_on', channel=0, note=72, velocity=72, time=0),
    Message('note_on', channel=0, note=76, velocity=86, time=0),
    Message('control_change', channel=0, control=1, value=53, time=264),
    Message('control_change', channel=0, control=1, value=54, time=112),
    Message('control_change', channel=0, control=1, value=55, time=112),
    Message('control_change', channel=0, control=1, value=56, time=112),
    Message('control_change', channel=0, control=1, value=57, time=56),
    Message('control_change', channel=0, control=1, value=58, time=112),
    Message('control_change', channel=0, control=1, value=59, time=112),
    Message('control_change', channel=0, control=1, value=60, time=56),
    Message('control_change', channel=0, control=1, value=61, time=168),
    Message('control_change', channel=0, control=1, value=62, time=227),
    Message('control_change', channel=0, control=1, value=61, time=57),
    Message('control_change', channel=0, control=1, value=60, time=285),
    Message('control_change', channel=0, control=1, value=59, time=171),
    Message('control_change', channel=0, control=1, value=58, time=114),
    Message('control_change', channel=0, control=1, value=57, time=171),
    Message('control_change', channel=0, control=1, value=56, time=114),
    Message('control_change', channel=0, control=1, value=55, time=114),
    Message('control_change', channel=0, control=1, value=54, time=114),
    Message('control_change', channel=0, control=1, value=53, time=114),
    Message('control_change', channel=0, control=1, value=52, time=171),
    Message('note_off', channel=0, note=76, velocity=0, time=256),
    Message('note_off', channel=0, note=67, velocity=0, time=31),
    Message('note_off', channel=0, note=72, velocity=0, time=0),
    Message('note_on', channel=0, note=76, velocity=81, time=37),
    Message('note_off', channel=0, note=76, velocity=0, time=220),
    Message('note_on', channel=0, note=77, velocity=80, time=37),
    Message('note_off', channel=0, note=77, velocity=0, time=211),
    Message('note_on', channel=0, note=79, velocity=80, time=37),
    Message('note_off', channel=0, note=79, velocity=0, time=211),
    Message('note_on', channel=0, note=81, velocity=80, time=37),
    Message('note_off', channel=0, note=81, velocity=0, time=222),
    Message('note_on', channel=0, note=76, velocity=85, time=41),
    Message('note_off', channel=0, note=76, velocity=0, time=256),
    Message('note_on', channel=0, note=77, velocity=80, time=37),
    Message('note_off', channel=0, note=77, velocity=0, time=212),
    Message('control_change', channel=0, control=1, value=52, time=21),
    Message('note_on', channel=0, note=70, velocity=72, time=16),
    Message('note_on', channel=0, note=74, velocity=82, time=0),
    Message('control_change', channel=0, control=1, value=53, time=320),
    Message('control_change', channel=0, control=1, value=54, time=112),
    Message('control_change', channel=0, control=1, value=55, time=112),
    Message('control_change', channel=0, control=1, value=56, time=112),
    Message('control_change', channel=0, control=1, value=57, time=56),
    Message('control_change', channel=0, control=1, value=58, time=112),
    Message('control_change', channel=0, control=1, value=59, time=56),
    Message('control_change', channel=0, control=1, value=60, time=112),
    Message('control_change', channel=0, control=1, value=61, time=56),
    Message('control_change', channel=0, control=1, value=62, time=112),
    Message('control_change', channel=0, control=1, value=63, time=56),
    Message('control_change', channel=0, control=1, value=64, time=112),
    Message('control_change', channel=0, control=1, value=65, time=112),
    Message('control_change', channel=0, control=1, value=66, time=112),
    Message('control_change', channel=0, control=1, value=67, time=287),
    Message('control_change', channel=0, control=1, value=66, time=56),
    Message('control_change', channel=0, control=1, value=65, time=224),
    Message('control_change', channel=0, control=1, value=64, time=112),
    Message('control_change', channel=0, control=1, value=63, time=112),
    Message('control_change', channel=0, control=1, value=62, time=112),
    Message('control_change', channel=0, control=1, value=61, time=56),
    Message('control_change', channel=0, control=1, value=60, time=56),
    Message('control_change', channel=0, control=1, value=59, time=112),
    Message('control_change', channel=0, control=1, value=58, time=56),
    Message('control_change', channel=0, control=1, value=57, time=56),
    Message('control_change', channel=0, control=1, value=56, time=112),
    Message('control_change', channel=0, control=1, value=55, time=56),
    Message('control_change', channel=0, control=1, value=54, time=112),
    Message('control_change', channel=0, control=1, value=53, time=112),
    Message('control_change', channel=0, control=1, value=52, time=112),
    Message('note_off', channel=0, note=74, velocity=0, time=165),
    Message('note_off', channel=0, note=70, velocity=0, time=53),
    Message('control_change', channel=0, control=1, value=52, time=25),
    Message('note_on', channel=0, note=69, velocity=77, time=16),
    Message('note_on', channel=0, note=74, velocity=91, time=0),
    Message('control_change', channel=0, control=1, value=53, time=212),
    Message('control_change', channel=0, control=1, value=54, time=114),
    Message('control_change', channel=0, control=1, value=55, time=57),
    Message('control_change', channel=0, control=1, value=56, time=57),
    Message('control_change', channel=0, control=1, value=57, time=114),
    Message('control_change', channel=0, control=1, value=58, time=57),
    Message('control_change', channel=0, control=1, value=59, time=57),
    Message('control_change', channel=0, control=1, value=60, time=57),
    Message('control_change', channel=0, control=1, value=61, time=114),
    Message('control_change', channel=0, control=1, value=62, time=195),
    Message('control_change', channel=0, control=1, value=61, time=59),
    Message('control_change', channel=0, control=1, value=60, time=177),
    Message('control_change', channel=0, control=1, value=59, time=59),
    Message('control_change', channel=0, control=1, value=58, time=118),
    Message('control_change', channel=0, control=1, value=57, time=59),
    Message('control_change', channel=0, control=1, value=56, time=59),
    Message('control_change', channel=0, control=1, value=55, time=59),
    Message('control_change', channel=0, control=1, value=54, time=59),
    Message('control_change', channel=0, control=1, value=53, time=118),
    Message('control_change', channel=0, control=1, value=52, time=59),
    Message('note_off', channel=0, note=69, velocity=0, time=137),
    Message('control_change', channel=0, control=1, value=52, time=52),
    Message('note_off', channel=0, note=74, velocity=0, time=15),
    Message('note_on', channel=0, note=69, velocity=75, time=1),
    Message('note_on', channel=0, note=73, velocity=89, time=0),
    Message('control_change', channel=0, control=1, value=53, time=192),
    Message('control_change', channel=0, control=1, value=54, time=105),
    Message('control_change', channel=0, control=1, value=55, time=52),
    Message('control_change', channel=0, control=1, value=56, time=104),
    Message('control_change', channel=0, control=1, value=57, time=52),
    Message('control_change', channel=0, control=1, value=58, time=53),
    Message('control_change', channel=0, control=1, value=59, time=104),
    Message('control_change', channel=0, control=1, value=60, time=52),
    Message('control_change', channel=0, control=1, value=61, time=104),
    Message('control_change', channel=0, control=1, value=62, time=183),
    Message('control_change', channel=0, control=1, value=59, time=43),
    Message('control_change', channel=0, control=1, value=57, time=43),
    Message('control_change', channel=0, control=1, value=55, time=44),
    Message('control_change', channel=0, control=1, value=53, time=43),
    Message('control_change', channel=0, control=1, value=51, time=43),
    Message('control_change', channel=0, control=1, value=49, time=43),
    Message('control_change', channel=0, control=1, value=47, time=43),
    Message('control_change', channel=0, control=1, value=45, time=43),
    Message('control_change', channel=0, control=1, value=43, time=43),
    Message('control_change', channel=0, control=1, value=41, time=44),
    Message('control_change', channel=0, control=1, value=39, time=43),
    Message('control_change', channel=0, control=1, value=37, time=43),
    Message('control_change', channel=0, control=1, value=35, time=43),
    Message('control_change', channel=0, control=1, value=33, time=43),
    Message('control_change', channel=0, control=1, value=31, time=43),
    Message('control_change', channel=0, control=1, value=29, time=44),
    Message('control_change', channel=0, control=1, value=27, time=43),
    Message('control_change', channel=0, control=1, value=25, time=43),
    Message('control_change', channel=0, control=1, value=23, time=43),
    Message('control_change', channel=0, control=1, value=21, time=43),
    Message('control_change', channel=0, control=1, value=19, time=43),
    Message('control_change', channel=0, control=1, value=17, time=43),
    Message('note_off', channel=0, note=69, velocity=0, time=40),
    Message('note_off', channel=0, note=73, velocity=0, time=0),
    Message('control_change', channel=0, control=1, value=15, time=4),
    Message('control_change', channel=0, control=1, value=52, time=16384),
    Message('note_on', channel=0, note=70, velocity=77, time=37),
    Message('note_on', channel=0, note=74, velocity=77, time=0),
    Message('note_on', channel=0, note=77, velocity=77, time=0),
    Message('note_on', channel=0, note=81, velocity=91, time=0),
    Message('note_off', channel=0, note=70, velocity=0, time=978),
    Message('note_off', channel=0, note=74, velocity=0, time=0),
    Message('note_off', channel=0, note=77, velocity=0, time=67),
    Message('note_off', channel=0, note=81, velocity=0, time=0),
    Message('note_on', channel=0, note=70, velocity=73, time=1),
    Message('note_on', channel=0, note=74, velocity=73, time=0),
    Message('note_on', channel=0, note=79, velocity=87, time=0),
    Message('note_off', channel=0, note=70, velocity=0, time=979),
    Message('note_off', channel=0, note=74, velocity=0, time=0),
    Message('note_off', channel=0, note=79, velocity=0, time=36),
    Message('note_on', channel=0, note=77, velocity=75, time=1),
    Message('note_on', channel=0, note=81, velocity=75, time=0),
    Message('note_on', channel=0, note=86, velocity=89, time=0),
    Message('note_off', channel=0, note=77, velocity=0, time=928),
    Message('note_off', channel=0, note=81, velocity=0, time=0),
    Message('control_change', channel=0, control=1, value=52, time=66),
    Message('note_off', channel=0, note=86, velocity=0, time=11),
    Message('note_on', channel=0, note=70, velocity=72, time=5),
    Message('note_on', channel=0, note=74, velocity=72, time=0),
    Message('note_on', channel=0, note=77, velocity=72, time=0),
    Message('note_on', channel=0, note=81, velocity=86, time=0),
    Message('control_change', channel=0, control=1, value=53, time=212),
    Message('control_change', channel=0, control=1, value=54, time=114),
    Message('control_change', channel=0, control=1, value=55, time=57),
    Message('control_change', channel=0, control=1, value=56, time=57),
    Message('control_change', channel=0, control=1, value=57, time=114),
    Message('control_change', channel=0, control=1, value=58, time=57),
    Message('control_change', channel=0, control=1, value=59, time=57),
    Message('control_change', channel=0, control=1, value=60, time=57),
    Message('control_change', channel=0, control=1, value=61, time=114),
    Message('control_change', channel=0, control=1, value=62, time=191),
    Message('control_change', channel=0, control=1, value=61, time=56),
    Message('control_change', channel=0, control=1, value=60, time=168),
    Message('control_change', channel=0, control=1, value=59, time=112),
    Message('control_change', channel=0, control=1, value=58, time=56),
    Message('control_change', channel=0, control=1, value=57, time=56),
    Message('control_change', channel=0, control=1, value=56, time=56),
    Message('control_change', channel=0, control=1, value=55, time=112),
    Message('control_change', channel=0, control=1, value=54, time=56),
    Message('control_change', channel=0, control=1, value=53, time=56),
    Message('control_change', channel=0, control=1, value=52, time=112),
    Message('note_off', channel=0, note=77, velocity=0, time=124),
    Message('note_off', channel=0, note=70, velocity=0, time=31),
    Message('note_off', channel=0, note=74, velocity=0, time=0),
    Message('note_off', channel=0, note=81, velocity=0, time=36),
    Message('note_on', channel=0, note=77, velocity=83, time=1),
    Message('note_off', channel=0, note=77, velocity=0, time=464),
    Message('note_on', channel=0, note=79, velocity=80, time=37),
    Message('note_off', channel=0, note=79, velocity=0, time=468),
    Message('note_on', channel=0, note=69, velocity=77, time=41),
    Message('note_on', channel=0, note=72, velocity=77, time=0),
    Message('note_on', channel=0, note=76, velocity=77, time=0),
    Message('note_on', channel=0, note=81, velocity=91, time=0),
    Message('note_off', channel=0, note=69, velocity=0, time=1009),
    Message('note_off', channel=0, note=72, velocity=0, time=0),
    Message('note_off', channel=0, note=76, velocity=0, time=36),
    Message('note_off', channel=0, note=81, velocity=0, time=0),
    Message('note_on', channel=0, note=79, velocity=81, time=1),
    Message('note_off', channel=0, note=79, velocity=0, time=926),
    Message('note_on', channel=0, note=76, velocity=75, time=90),
    Message('note_on', channel=0, note=79, velocity=75, time=0),
    Message('note_on', channel=0, note=84, velocity=89, time=0),
    Message('note_off', channel=0, note=76, velocity=0, time=928),
    Message('note_off', channel=0, note=79, velocity=0, time=41),
    Message('control_change', channel=0, control=1, value=52, time=25),
    Message('note_off', channel=0, note=84, velocity=0, time=11),
    Message('note_on', channel=0, note=72, velocity=72, time=5),
    Message('note_on', channel=0, note=76, velocity=72, time=0),
    Message('note_on', channel=0, note=81, velocity=86, time=0),
    Message('control_change', channel=0, control=1, value=53, time=212),
    Message('control_change', channel=0, control=1, value=54, time=114),
    Message('control_change', channel=0, control=1, value=55, time=57),
    Message('control_change', channel=0, control=1, value=56, time=57),
    Message('control_change', channel=0, control=1, value=57, time=114),
    Message('control_change', channel=0, control=1, value=58, time=57),
    Message('control_change', channel=0, control=1, value=59, time=57),
    Message('control_change', channel=0, control=1, value=60, time=57),
    Message('control_change', channel=0, control=1, value=61, time=114),
    Message('control_change', channel=0, control=1, value=62, time=191),
    Message('control_change', channel=0, control=1, value=61, time=56),
    Message('control_change', channel=0, control=1, value=60, time=168),
    Message('control_change', channel=0, control=1, value=59, time=112),
    Message('control_change', channel=0, control=1, value=58, time=56),
    Message('control_change', channel=0, control=1, value=57, time=56),
    Message('control_change', channel=0, control=1, value=56, time=56),
    Message('control_change', channel=0, control=1, value=55, time=112),
    Message('control_change', channel=0, control=1, value=54, time=56),
    Message('control_change', channel=0, control=1, value=53, time=56),
    Message('control_change', channel=0, control=1, value=52, time=112),
    Message('note_off', channel=0, note=72, velocity=0, time=155),
    Message('note_off', channel=0, note=76, velocity=0, time=0),
    Message('note_off', channel=0, note=81, velocity=0, time=36),
    Message('note_on', channel=0, note=74, velocity=75, time=1),
    Message('note_on', channel=0, note=77, velocity=89, time=0),
    Message('note_off', channel=0, note=74, velocity=0, time=464),
    Message('note_off', channel=0, note=77, velocity=0, time=36),
    Message('note_on', channel=0, note=76, velocity=72, time=1),
    Message('note_on', channel=0, note=79, velocity=86, time=0),
    Message('note_off', channel=0, note=76, velocity=0, time=468),
    Message('note_off', channel=0, note=79, velocity=0, time=36),
    Message('note_on', channel=0, note=70, velocity=77, time=5),
    Message('note_on', channel=0, note=74, velocity=77, time=0),
    Message('note_on', channel=0, note=77, velocity=77, time=0),
    Message('note_on', channel=0, note=81, velocity=91, time=0),
    Message('note_off', channel=0, note=70, velocity=0, time=978),
    Message('note_off', channel=0, note=74, velocity=0, time=0),
    Message('note_off', channel=0, note=77, velocity=0, time=67),
    Message('note_off', channel=0, note=81, velocity=0, time=0),
    Message('note_on', channel=0, note=70, velocity=73, time=1),
    Message('note_on', channel=0, note=74, velocity=73, time=0),
    Message('note_on', channel=0, note=79, velocity=87, time=0),
    Message('note_off', channel=0, note=70, velocity=0, time=979),
    Message('note_off', channel=0, note=74, velocity=0, time=0),
    Message('note_off', channel=0, note=79, velocity=0, time=36),
    Message('note_on', channel=0, note=77, velocity=75, time=1),
    Message('note_on', channel=0, note=81, velocity=75, time=0),
    Message('note_on', channel=0, note=86, velocity=89, time=0),
    Message('note_off', channel=0, note=77, velocity=0, time=928),
    Message('note_off', channel=0, note=81, velocity=0, time=0),
    Message('control_change', channel=0, control=1, value=52, time=66),
    Message('note_off', channel=0, note=86, velocity=0, time=11),
    Message('note_on', channel=0, note=70, velocity=72, time=5),
    Message('note_on', channel=0, note=74, velocity=72, time=0),
    Message('note_on', channel=0, note=77, velocity=72, time=0),
    Message('note_on', channel=0, note=81, velocity=86, time=0),
    Message('control_change', channel=0, control=1, value=53, time=212),
    Message('control_change', channel=0, control=1, value=54, time=114),
    Message('control_change', channel=0, control=1, value=55, time=57),
    Message('control_change', channel=0, control=1, value=56, time=57),
    Message('control_change', channel=0, control=1, value=57, time=114),
    Message('control_change', channel=0, control=1, value=58, time=57),
    Message('control_change', channel=0, control=1, value=59, time=57),
    Message('control_change', channel=0, control=1, value=60, time=57),
    Message('control_change', channel=0, control=1, value=61, time=114),
    Message('control_change', channel=0, control=1, value=62, time=191),
    Message('control_change', channel=0, control=1, value=61, time=56),
    Message('control_change', channel=0, control=1, value=60, time=168),
    Message('control_change', channel=0, control=1, value=59, time=112),
    Message('control_change', channel=0, control=1, value=58, time=56),
    Message('control_change', channel=0, control=1, value=57, time=56),
    Message('control_change', channel=0, control=1, value=56, time=56),
    Message('control_change', channel=0, control=1, value=55, time=112),
    Message('control_change', channel=0, control=1, value=54, time=56),
    Message('control_change', channel=0, control=1, value=53, time=56),
    Message('control_change', channel=0, control=1, value=52, time=112),
    Message('note_off', channel=0, note=74, velocity=0, time=124),
    Message('note_off', channel=0, note=77, velocity=0, time=0),
    Message('note_off', channel=0, note=70, velocity=0, time=31),
    Message('note_off', channel=0, note=81, velocity=0, time=36),
    Message('note_on', channel=0, note=74, velocity=75, time=1),
    Message('note_on', channel=0, note=77, velocity=89, time=0),
    Message('note_off', channel=0, note=74, velocity=0, time=464),
    Message('note_off', channel=0, note=77, velocity=0, time=36),
    Message('note_on', channel=0, note=76, velocity=72, time=1),
    Message('note_on', channel=0, note=79, velocity=86, time=0),
    Message('note_off', channel=0, note=76, velocity=0, time=438),
    Message('note_off', channel=0, note=79, velocity=0, time=66),
    Message('note_on', channel=0, note=69, velocity=77, time=5),
    Message('note_on', channel=0, note=72, velocity=77, time=0),
    Message('note_on', channel=0, note=76, velocity=77, time=0),
    Message('note_on', channel=0, note=81, velocity=91, time=0),
    Message('note_off', channel=0, note=69, velocity=0, time=1009),
    Message('note_off', channel=0, note=72, velocity=0, time=0),
    Message('note_off', channel=0, note=76, velocity=0, time=36),
    Message('note_off', channel=0, note=81, velocity=0, time=0),
    Message('note_on', channel=0, note=79, velocity=81, time=1),
    Message('note_off', channel=0, note=79, velocity=0, time=926),
    Message('note_on', channel=0, note=76, velocity=75, time=90),
    Message('note_on', channel=0, note=79, velocity=75, time=0),
    Message('note_on', channel=0, note=84, velocity=89, time=0),
    Message('note_off', channel=0, note=84, velocity=0, time=928),
    Message('note_off', channel=0, note=76, velocity=0, time=41),
    Message('note_off', channel=0, note=79, velocity=0, time=0),
    Message('note_on', channel=0, note=84, velocity=77, time=41),
    Message('note_on', channel=0, note=88, velocity=91, time=0),
    Message('note_off', channel=0, note=84, velocity=0, time=503),
    Message('note_off', channel=0, note=88, velocity=0, time=36),
    Message('note_on', channel=0, note=89, velocity=80, time=1),
    Message('note_off', channel=0, note=89, velocity=0, time=471),
    Message('note_on', channel=0, note=88, velocity=81, time=35),
    Message('note_off', channel=0, note=88, velocity=0, time=476),
    Message('note_on', channel=0, note=84, velocity=80, time=33),
    Message('note_off', channel=0, note=84, velocity=0, time=476),
    Message('note_on', channel=0, note=79, velocity=83, time=31),
    Message('note_off', channel=0, note=79, velocity=0, time=471),
    Message('note_on', channel=0, note=84, velocity=80, time=30),
    Message('note_off', channel=0, note=84, velocity=0, time=477),
    Message('control_change', channel=0, control=1, value=15, time=24565),
    Message('control_change', channel=0, control=1, value=15, time=27),
    Message('note_on', channel=0, note=79, velocity=61, time=16),
    Message('note_on', channel=0, note=91, velocity=75, time=0),
    Message('control_change', channel=0, control=1, value=16, time=208),
    Message('control_change', channel=0, control=1, value=17, time=56),
    Message('control_change', channel=0, control=1, value=18, time=56),
    Message('control_change', channel=0, control=1, value=19, time=56),
    Message('control_change', channel=0, control=1, value=20, time=56),
    Message('control_change', channel=0, control=1, value=21, time=56),
    Message('control_change', channel=0, control=1, value=23, time=56),
    Message('control_change', channel=0, control=1, value=24, time=56),
    Message('control_change', channel=0, control=1, value=26, time=56),
    Message('control_change', channel=0, control=1, value=27, time=56),
    Message('control_change', channel=0, control=1, value=29, time=56),
    Message('control_change', channel=0, control=1, value=30, time=56),
    Message('control_change', channel=0, control=1, value=32, time=56),
    Message('control_change', channel=0, control=1, value=34, time=56),
    Message('control_change', channel=0, control=1, value=35, time=56),
    Message('control_change', channel=0, control=1, value=36, time=56),
    Message('control_change', channel=0, control=1, value=38, time=56),
    Message('control_change', channel=0, control=1, value=39, time=56),
    Message('control_change', channel=0, control=1, value=40, time=56),
    Message('control_change', channel=0, control=1, value=41, time=56),
    Message('control_change', channel=0, control=1, value=42, time=56),
    Message('control_change', channel=0, control=1, value=43, time=56),
    Message('control_change', channel=0, control=1, value=44, time=56),
    Message('control_change', channel=0, control=1, value=45, time=173),
    Message('control_change', channel=0, control=1, value=44, time=57),
    Message('control_change', channel=0, control=1, value=43, time=285),
    Message('control_change', channel=0, control=1, value=42, time=171),
    Message('control_change', channel=0, control=1, value=41, time=114),
    Message('control_change', channel=0, control=1, value=40, time=114),
    Message('control_change', channel=0, control=1, value=39, time=57),
    Message('control_change', channel=0, control=1, value=38, time=114),
    Message('control_change', channel=0, control=1, value=37, time=114),
    Message('control_change', channel=0, control=1, value=36, time=57),
    Message('control_change', channel=0, control=1, value=35, time=114),
    Message('control_change', channel=0, control=1, value=34, time=114),
    Message('control_change', channel=0, control=1, value=33, time=57),
    Message('control_change', channel=0, control=1, value=32, time=114),
    Message('control_change', channel=0, control=1, value=31, time=171),
    Message('note_off', channel=0, note=79, velocity=0, time=282),
    Message('note_off', channel=0, note=91, velocity=0, time=36),
    Message('note_on', channel=0, note=81, velocity=72, time=1),
    Message('note_on', channel=0, note=93, velocity=86, time=0),
    Message('note_off', channel=0, note=81, velocity=0, time=470),
    Message('control_change', channel=0, control=1, value=31, time=25),
    Message('note_off', channel=0, note=93, velocity=0, time=11),
    Message('note_on', channel=0, note=77, velocity=61, time=5),
    Message('note_on', channel=0, note=89, velocity=75, time=0),
    Message('control_change', channel=0, control=1, value=32, time=269),
    Message('control_change', channel=0, control=1, value=33, time=171),
    Message('control_change', channel=0, control=1, value=34, time=57),
    Message('control_change', channel=0, control=1, value=35, time=114),
    Message('control_change', channel=0, control=1, value=36, time=114),
    Message('control_change', channel=0, control=1, value=37, time=57),
    Message('control_change', channel=0, control=1, value=38, time=114),
    Message('control_change', channel=0, control=1, value=39, time=57),
    Message('control_change', channel=0, control=1, value=40, time=57),
    Message('control_change', channel=0, control=1, value=41, time=114),
    Message('control_change', channel=0, control=1, value=42, time=114),
    Message('control_change', channel=0, control=1, value=43, time=57),
    Message('control_change', channel=0, control=1, value=44, time=171),
    Message('control_change', channel=0, control=1, value=45, time=251),
    Message('control_change', channel=0, control=1, value=44, time=56),
    Message('control_change', channel=0, control=1, value=43, time=280),
    Message('control_change', channel=0, control=1, value=42, time=112),
    Message('control_change', channel=0, control=1, value=41, time=112),
    Message('control_change', channel=0, control=1, value=40, time=112),
    Message('control_change', channel=0, control=1, value=39, time=112),
    Message('control_change', channel=0, control=1, value=38, time=56),
    Message('control_change', channel=0, control=1, value=37, time=112),
    Message('control_change', channel=0, control=1, value=36, time=56),
    Message('control_change', channel=0, control=1, value=35, time=112),
    Message('control_change', channel=0, control=1, value=34, time=112),
    Message('control_change', channel=0, control=1, value=33, time=56),
    Message('control_change', channel=0, control=1, value=32, time=112),
    Message('control_change', channel=0, control=1, value=31, time=168),
    Message('note_off', channel=0, note=77, velocity=0, time=263),
    Message('note_off', channel=0, note=89, velocity=0, time=36),
    Message('note_on', channel=0, note=71, velocity=72, time=1),
    Message('note_on', channel=0, note=83, velocity=86, time=0),
    Message('note_off', channel=0, note=71, velocity=0, time=470),
    Message('control_change', channel=0, control=1, value=31, time=25),
    Message('note_off', channel=0, note=83, velocity=0, time=11),
    Message('note_on', channel=0, note=72, velocity=61, time=5),
    Message('note_on', channel=0, note=84, velocity=75, time=0),
    Message('control_change', channel=0, control=1, value=32, time=269),
    Message('control_change', channel=0, control=1, value=33, time=171),
    Message('control_change', channel=0, control=1, value=34, time=57),
    Message('control_change', channel=0, control=1, value=35, time=114),
    Message('control_change', channel=0, control=1, value=36, time=114),
    Message('control_change', channel=0, control=1, value=37, time=57),
    Message('control_change', channel=0, control=1, value=38, time=114),
    Message('control_change', channel=0, control=1, value=39, time=57),
    Message('control_change', channel=0, control=1, value=40, time=57),
    Message('control_change', channel=0, control=1, value=41, time=114),
    Message('control_change', channel=0, control=1, value=42, time=114),
    Message('control_change', channel=0, control=1, value=43, time=57),
    Message('control_change', channel=0, control=1, value=44, time=171),
    Message('control_change', channel=0, control=1, value=45, time=251),
    Message('control_change', channel=0, control=1, value=44, time=56),
    Message('control_change', channel=0, control=1, value=43, time=280),
    Message('control_change', channel=0, control=1, value=42, time=112),
    Message('control_change', channel=0, control=1, value=41, time=112),
    Message('control_change', channel=0, control=1, value=40, time=112),
    Message('control_change', channel=0, control=1, value=39, time=112),
    Message('control_change', channel=0, control=1, value=38, time=56),
    Message('control_change', channel=0, control=1, value=37, time=112),
    Message('control_change', channel=0, control=1, value=36, time=56),
    Message('control_change', channel=0, control=1, value=35, time=112),
    Message('control_change', channel=0, control=1, value=34, time=112),
    Message('control_change', channel=0, control=1, value=33, time=56),
    Message('control_change', channel=0, control=1, value=32, time=112),
    Message('control_change', channel=0, control=1, value=31, time=168),
    Message('note_off', channel=0, note=72, velocity=0, time=263),
    Message('note_off', channel=0, note=84, velocity=0, time=36),
    Message('note_on', channel=0, note=71, velocity=72, time=1),
    Message('note_on', channel=0, note=83, velocity=86, time=0),
    Message('note_off', channel=0, note=71, velocity=0, time=470),
    Message('control_change', channel=0, control=1, value=31, time=25),
    Message('note_off', channel=0, note=83, velocity=0, time=11),
    Message('note_on', channel=0, note=69, velocity=61, time=5),
    Message('note_on', channel=0, note=81, velocity=75, time=0),
    Message('control_change', channel=0, control=1, value=32, time=326),
    Message('control_change', channel=0, control=1, value=33, time=114),
    Message('control_change', channel=0, control=1, value=34, time=114),
    Message('control_change', channel=0, control=1, value=35, time=114),
    Message('control_change', channel=0, control=1, value=36, time=114),
    Message('control_change', channel=0, control=1, value=37, time=57),
    Message('control_change', channel=0, control=1, value=38, time=114),
    Message('control_change', channel=0, control=1, value=39, time=114),
    Message('control_change', channel=0, control=1, value=40, time=57),
    Message('control_change', channel=0, control=1, value=41, time=114),
    Message('control_change', channel=0, control=1, value=42, time=114),
    Message('control_change', channel=0, control=1, value=43, time=114),
    Message('control_change', channel=0, control=1, value=44, time=114),
    Message('control_change', channel=0, control=1, value=45, time=297),
    Message('control_change', channel=0, control=1, value=43, time=56),
    Message('control_change', channel=0, control=1, value=42, time=56),
    Message('control_change', channel=0, control=1, value=41, time=56),
    Message('control_change', channel=0, control=1, value=40, time=56),
    Message('control_change', channel=0, control=1, value=39, time=56),
    Message('control_change', channel=0, control=1, value=38, time=56),
    Message('control_change', channel=0, control=1, value=37, time=56),
    Message('control_change', channel=0, control=1, value=35, time=56),
    Message('control_change', channel=0, control=1, value=34, time=56),
    Message('control_change', channel=0, control=1, value=33, time=56),
    Message('control_change', channel=0, control=1, value=32, time=56),
    Message('control_change', channel=0, control=1, value=31, time=56),
    Message('control_change', channel=0, control=1, value=30, time=56),
    Message('control_change', channel=0, control=1, value=29, time=56),
    Message('control_change', channel=0, control=1, value=28, time=56),
    Message('control_change', channel=0, control=1, value=26, time=56),
    Message('control_change', channel=0, control=1, value=25, time=56),
    Message('control_change', channel=0, control=1, value=24, time=56),
    Message('control_change', channel=0, control=1, value=23, time=56),
    Message('control_change', channel=0, control=1, value=22, time=56),
    Message('control_change', channel=0, control=1, value=21, time=56),
    Message('control_change', channel=0, control=1, value=20, time=56),
    Message('control_change', channel=0, control=1, value=18, time=56),
    Message('control_change', channel=0, control=1, value=17, time=56),
    Message('control_change', channel=0, control=1, value=16, time=56),
    Message('control_change', channel=0, control=1, value=15, time=56),
    Message('control_change', channel=0, control=1, value=14, time=56),
    Message('control_change', channel=0, control=1, value=13, time=56),
    Message('control_change', channel=0, control=1, value=12, time=56),
    Message('control_change', channel=0, control=1, value=11, time=56),
    Message('control_change', channel=0, control=1, value=9, time=56),
    Message('control_change', channel=0, control=1, value=8, time=56),
    Message('control_change', channel=0, control=1, value=7, time=56),
    Message('control_change', channel=0, control=1, value=6, time=56),
    Message('control_change', channel=0, control=1, value=5, time=56),
    Message('control_change', channel=0, control=1, value=4, time=56),
    Message('control_change', channel=0, control=1, value=3, time=56),
    Message('control_change', channel=0, control=1, value=2, time=56),
    Message('note_off', channel=0, note=69, velocity=0, time=50),
    Message('note_off', channel=0, note=81, velocity=0, time=0),
    Message('control_change', channel=0, control=1, value=0, time=6),
    Message('control_change', channel=0, control=1, value=33, time=16376),
    Message('control_change', channel=0, control=1, value=33, time=27),
    Message('note_on', channel=0, note=69, velocity=72, time=16),
    Message('note_on', channel=0, note=74, velocity=72, time=0),
    Message('note_on', channel=0, note=77, velocity=86, time=0),
    Message('control_change', channel=0, control=1, value=34, time=212),
    Message('control_change', channel=0, control=1, value=35, time=57),
    Message('control_change', channel=0, control=1, value=36, time=57),
    Message('control_change', channel=0, control=1, value=37, time=57),
    Message('control_change', channel=0, control=1, value=38, time=57),
    Message('control_change', channel=0, control=1, value=39, time=57),
    Message('control_change', channel=0, control=1, value=41, time=57),
    Message('control_change', channel=0, control=1, value=42, time=57),
    Message('control_change', channel=0, control=1, value=44, time=57),
    Message('control_change', channel=0, control=1, value=45, time=57),
    Message('control_change', channel=0, control=1, value=47, time=57),
    Message('control_change', channel=0, control=1, value=48, time=57),
    Message('control_change', channel=0, control=1, value=50, time=57),
    Message('control_change', channel=0, control=1, value=52, time=57),
    Message('control_change', channel=0, control=1, value=53, time=57),
    Message('control_change', channel=0, control=1, value=55, time=57),
    Message('control_change', channel=0, control=1, value=56, time=57),
    Message('control_change', channel=0, control=1, value=58, time=57),
    Message('control_change', channel=0, control=1, value=59, time=57),
    Message('control_change', channel=0, control=1, value=60, time=57),
    Message('control_change', channel=0, control=1, value=61, time=57),
    Message('control_change', channel=0, control=1, value=62, time=57),
    Message('control_change', channel=0, control=1, value=63, time=57),
    Message('control_change', channel=0, control=1, value=64, time=57),
    Message('control_change', channel=0, control=1, value=65, time=57),
    Message('control_change', channel=0, control=1, value=66, time=172),
    Message('control_change', channel=0, control=1, value=65, time=56),
    Message('control_change', channel=0, control=1, value=64, time=280),
    Message('control_change', channel=0, control=1, value=63, time=112),
    Message('control_change', channel=0, control=1, value=62, time=112),
    Message('control_change', channel=0, control=1, value=61, time=112),
    Message('control_change', channel=0, control=1, value=60, time=56),
    Message('control_change', channel=0, control=1, value=59, time=112),
    Message('control_change', channel=0, control=1, value=58, time=112),
    Message('control_change', channel=0, control=1, value=57, time=56),
    Message('control_change', channel=0, control=1, value=56, time=112),
    Message('control_change', channel=0, control=1, value=55, time=56),
    Message('control_change', channel=0, control=1, value=54, time=112),
    Message('control_change', channel=0, control=1, value=53, time=112),
    Message('control_change', channel=0, control=1, value=52, time=112),
    Message('note_off', channel=0, note=69, velocity=0, time=284),
    Message('note_off', channel=0, note=74, velocity=0, time=0),
    Message('note_off', channel=0, note=77, velocity=0, time=36),
    Message('note_on', channel=0, note=76, velocity=80, time=1),
    Message('note_off', channel=0, note=76, velocity=0, time=211),
    Message('note_on', channel=0, note=77, velocity=80, time=37),
    Message('note_off', channel=0, note=77, velocity=0, time=222),
    Message('control_change', channel=0, control=1, value=52, time=25),
    Message('note_on', channel=0, note=67, velocity=72, time=16),
    Message('note_on', channel=0, note=72, velocity=72, time=0),
    Message('note_on', channel=0, note=76, velocity=86, time=0),
    Message('control_change', channel=0, control=1, value=53, time=264),
    Message('control_change', channel=0, control=1, value=54, time=168),
    Message('control_change', channel=0, control=1, value=55, time=112),
    Message('control_change', channel=0, control=1, value=56, time=56),
    Message('control_change', channel=0, control=1, value=57, time=112),
    Message('control_change', channel=0, control=1, value=58, time=112),
    Message('control_change', channel=0, control=1, value=59, time=56),
    Message('control_change', channel=0, control=1, value=60, time=112),
    Message('control_change', channel=0, control=1, value=61, time=56),
    Message('control_change', channel=0, control=1, value=62, time=112),
    Message('control_change', channel=0, control=1, value=63, time=168),
    Message('control_change', channel=0, control=1, value=64, time=240),
    Message('control_change', channel=0, control=1, value=63, time=57),
    Message('control_change', channel=0, control=1, value=62, time=228),
    Message('control_change', channel=0, control=1, value=61, time=114),
    Message('control_change', channel=0, control=1, value=60, time=114),
    Message('control_change', channel=0, control=1, value=59, time=114),
    Message('control_change', channel=0, control=1, value=58, time=57),
    Message('control_change', channel=0, control=1, value=57, time=57),
    Message('control_change', channel=0, control=1, value=56, time=114),
    Message('control_change', channel=0, control=1, value=55, time=57),
    Message('control_change', channel=0, control=1, value=54, time=114),
    Message('control_change', channel=0, control=1, value=53, time=114),
    Message('control_change', channel=0, control=1, value=52, time=114),
    Message('note_off', channel=0, note=76, velocity=0, time=190),
    Message('note_off', channel=0, note=67, velocity=0, time=31),
    Message('note_off', channel=0, note=72, velocity=0, time=0),
    Message('note_on', channel=0, note=76, velocity=81, time=37),
    Message('note_off', channel=0, note=76, velocity=0, time=220),
    Message('note_on', channel=0, note=77, velocity=80, time=37),
    Message('note_off', channel=0, note=77, velocity=0, time=211),
    Message('note_on', channel=0, note=79, velocity=80, time=37),
    Message('note_off', channel=0, note=79, velocity=0, time=211),
    Message('note_on', channel=0, note=81, velocity=80, time=37),
    Message('note_off', channel=0, note=81, velocity=0, time=222),
    Message('note_on', channel=0, note=76, velocity=85, time=41),
    Message('note_off', channel=0, note=76, velocity=0, time=256),
    Message('note_on', channel=0, note=77, velocity=80, time=37),
    Message('note_off', channel=0, note=77, velocity=0, time=212),
    Message('control_change', channel=0, control=1, value=52, time=21),
    Message('note_on', channel=0, note=70, velocity=72, time=16),
    Message('note_on', channel=0, note=74, velocity=82, time=0),
    Message('control_change', channel=0, control=1, value=53, time=264),
    Message('control_change', channel=0, control=1, value=54, time=112),
    Message('control_change', channel=0, control=1, value=55, time=112),
    Message('control_change', channel=0, control=1, value=56, time=112),
    Message('control_change', channel=0, control=1, value=57, time=56),
    Message('control_change', channel=0, control=1, value=58, time=112),
    Message('control_change', channel=0, control=1, value=59, time=56),
    Message('control_change', channel=0, control=1, value=60, time=112),
    Message('control_change', channel=0, control=1, value=61, time=112),
    Message('control_change', channel=0, control=1, value=62, time=56),
    Message('control_change', channel=0, control=1, value=63, time=168),
    Message('control_change', channel=0, control=1, value=64, time=241),
    Message('control_change', channel=0, control=1, value=63, time=56),
    Message('control_change', channel=0, control=1, value=62, time=336),
    Message('control_change', channel=0, control=1, value=61, time=168),
    Message('control_change', channel=0, control=1, value=60, time=112),
    Message('control_change', channel=0, control=1, value=59, time=112),
    Message('control_change', channel=0, control=1, value=58, time=112),
    Message('control_change', channel=0, control=1, value=57, time=112),
    Message('control_change', channel=0, control=1, value=56, time=112),
    Message('control_change', channel=0, control=1, value=55, time=112),
    Message('control_change', channel=0, control=1, value=54, time=168),
    Message('control_change', channel=0, control=1, value=53, time=112),
    Message('control_change', channel=0, control=1, value=52, time=168),
    Message('note_off', channel=0, note=74, velocity=0, time=267),
    Message('note_off', channel=0, note=70, velocity=0, time=53),
    Message('control_change', channel=0, control=1, value=52, time=25),
    Message('note_on', channel=0, note=69, velocity=77, time=16),
    Message('note_on', channel=0, note=74, velocity=91, time=0),
    Message('control_change', channel=0, control=1, value=53, time=212),
    Message('control_change', channel=0, control=1, value=54, time=114),
    Message('control_change', channel=0, control=1, value=55, time=57),
    Message('control_change', channel=0, control=1, value=56, time=57),
    Message('control_change', channel=0, control=1, value=57, time=114),
    Message('control_change', channel=0, control=1, value=58, time=57),
    Message('control_change', channel=0, control=1, value=59, time=57),
    Message('control_change', channel=0, control=1, value=60, time=57),
    Message('control_change', channel=0, control=1, value=61, time=114),
    Message('control_change', channel=0, control=1, value=62, time=195),
    Message('control_change', channel=0, control=1, value=61, time=59),
    Message('control_change', channel=0, control=1, value=60, time=177),
    Message('control_change', channel=0, control=1, value=59, time=59),
    Message('control_change', channel=0, control=1, value=58, time=118),
    Message('control_change', channel=0, control=1, value=57, time=59),
    Message('control_change', channel=0, control=1, value=56, time=59),
    Message('control_change', channel=0, control=1, value=55, time=59),
    Message('control_change', channel=0, control=1, value=54, time=59),
    Message('control_change', channel=0, control=1, value=53, time=118),
    Message('control_change', channel=0, control=1, value=52, time=59),
    Message('note_off', channel=0, note=69, velocity=0, time=137),
    Message('control_change', channel=0, control=1, value=52, time=52),
    Message('note_off', channel=0, note=74, velocity=0, time=15),
    Message('note_on', channel=0, note=69, velocity=75, time=1),
    Message('note_on', channel=0, note=73, velocity=89, time=0),
    Message('control_change', channel=0, control=1, value=53, time=192),
    Message('control_change', channel=0, control=1, value=54, time=105),
    Message('control_change', channel=0, control=1, value=55, time=52),
    Message('control_change', channel=0, control=1, value=56, time=104),
    Message('control_change', channel=0, control=1, value=57, time=52),
    Message('control_change', channel=0, control=1, value=58, time=53),
    Message('control_change', channel=0, control=1, value=59, time=104),
    Message('control_change', channel=0, control=1, value=60, time=52),
    Message('control_change', channel=0, control=1, value=61, time=104),
    Message('control_change', channel=0, control=1, value=62, time=183),
    Message('control_change', channel=0, control=1, value=61, time=43),
    Message('control_change', channel=0, control=1, value=60, time=173),
    Message('control_change', channel=0, control=1, value=59, time=86),
    Message('control_change', channel=0, control=1, value=58, time=86),
    Message('control_change', channel=0, control=1, value=57, time=44),
    Message('control_change', channel=0, control=1, value=56, time=86),
    Message('control_change', channel=0, control=1, value=55, time=86),
    Message('control_change', channel=0, control=1, value=54, time=43),
    Message('control_change', channel=0, control=1, value=53, time=87),
    Message('control_change', channel=0, control=1, value=52, time=86),
    Message('note_off', channel=0, note=69, velocity=0, time=169),
    Message('note_off', channel=0, note=73, velocity=0, time=36),
    Message('note_on', channel=0, note=70, velocity=77, time=5),
    Message('note_on', channel=0, note=74, velocity=77, time=0),
    Message('note_on', channel=0, note=77, velocity=77, time=0),
    Message('note_on', channel=0, note=81, velocity=91, time=0),
    Message('note_off', channel=0, note=70, velocity=0, time=978),
    Message('note_off', channel=0, note=74, velocity=0, time=0),
    Message('note_off', channel=0, note=77, velocity=0, time=67),
    Message('note_off', channel=0, note=81, velocity=0, time=0),
    Message('note_on', channel=0, note=70, velocity=73, time=1),
    Message('note_on', channel=0, note=74, velocity=73, time=0),
    Message('note_on', channel=0, note=79, velocity=87, time=0),
    Message('note_off', channel=0, note=70, velocity=0, time=979),
    Message('note_off', channel=0, note=74, velocity=0, time=0),
    Message('note_off', channel=0, note=79, velocity=0, time=36),
    Message('note_on', channel=0, note=77, velocity=75, time=1),
    Message('note_on', channel=0, note=81, velocity=75, time=0),
    Message('note_on', channel=0, note=86, velocity=89, time=0),
    Message('note_off', channel=0, note=77, velocity=0, time=928),
    Message('note_off', channel=0, note=81, velocity=0, time=0),
    Message('control_change', channel=0, control=1, value=52, time=66),
    Message('note_off', channel=0, note=86, velocity=0, time=11),
    Message('note_on', channel=0, note=70, velocity=72, time=5),
    Message('note_on', channel=0, note=74, velocity=72, time=0),
    Message('note_on', channel=0, note=77, velocity=72, time=0),
    Message('note_on', channel=0, note=81, velocity=86, time=0),
    Message('control_change', channel=0, control=1, value=53, time=212),
    Message('control_change', channel=0, control=1, value=54, time=114),
    Message('control_change', channel=0, control=1, value=55, time=57),
    Message('control_change', channel=0, control=1, value=56, time=57),
    Message('control_change', channel=0, control=1, value=57, time=114),
    Message('control_change', channel=0, control=1, value=58, time=57),
    Message('control_change', channel=0, control=1, value=59, time=57),
    Message('control_change', channel=0, control=1, value=60, time=57),
    Message('control_change', channel=0, control=1, value=61, time=114),
    Message('control_change', channel=0, control=1, value=62, time=191),
    Message('control_change', channel=0, control=1, value=61, time=56),
    Message('control_change', channel=0, control=1, value=60, time=168),
    Message('control_change', channel=0, control=1, value=59, time=112),
    Message('control_change', channel=0, control=1, value=58, time=56),
    Message('control_change', channel=0, control=1, value=57, time=56),
    Message('control_change', channel=0, control=1, value=56, time=56),
    Message('control_change', channel=0, control=1, value=55, time=112),
    Message('control_change', channel=0, control=1, value=54, time=56),
    Message('control_change', channel=0, control=1, value=53, time=56),
    Message('control_change', channel=0, control=1, value=52, time=112),
    Message('note_off', channel=0, note=77, velocity=0, time=124),
    Message('note_off', channel=0, note=70, velocity=0, time=31),
    Message('note_off', channel=0, note=74, velocity=0, time=0),
    Message('note_off', channel=0, note=81, velocity=0, time=36),
    Message('note_on', channel=0, note=77, velocity=83, time=1),
    Message('note_off', channel=0, note=77, velocity=0, time=464),
    Message('note_on', channel=0, note=79, velocity=80, time=37),
    Message('note_off', channel=0, note=79, velocity=0, time=468),
    Message('note_on', channel=0, note=69, velocity=77, time=41),
    Message('note_on', channel=0, note=72, velocity=77, time=0),
    Message('note_on', channel=0, note=76, velocity=77, time=0),
    Message('note_on', channel=0, note=81, velocity=91, time=0),
    Message('note_off', channel=0, note=69, velocity=0, time=1009),
    Message('note_off', channel=0, note=72, velocity=0, time=0),
    Message('note_off', channel=0, note=76, velocity=0, time=36),
    Message('note_off', channel=0, note=81, velocity=0, time=0),
    Message('note_on', channel=0, note=79, velocity=81, time=1),
    Message('note_off', channel=0, note=79, velocity=0, time=926),
    Message('note_on', channel=0, note=76, velocity=75, time=90),
    Message('note_on', channel=0, note=79, velocity=75, time=0),
    Message('note_on', channel=0, note=84, velocity=89, time=0),
    Message('note_off', channel=0, note=76, velocity=0, time=928),
    Message('note_off', channel=0, note=79, velocity=0, time=41),
    Message('control_change', channel=0, control=1, value=52, time=25),
    Message('note_off', channel=0, note=84, velocity=0, time=11),
    Message('note_on', channel=0, note=72, velocity=72, time=5),
    Message('note_on', channel=0, note=76, velocity=72, time=0),
    Message('note_on', channel=0, note=81, velocity=86, time=0),
    Message('control_change', channel=0, control=1, value=53, time=212),
    Message('control_change', channel=0, control=1, value=54, time=114),
    Message('control_change', channel=0, control=1, value=55, time=57),
    Message('control_change', channel=0, control=1, value=56, time=57),
    Message('control_change', channel=0, control=1, value=57, time=114),
    Message('control_change', channel=0, control=1, value=58, time=57),
    Message('control_change', channel=0, control=1, value=59, time=57),
    Message('control_change', channel=0, control=1, value=60, time=57),
    Message('control_change', channel=0, control=1, value=61, time=114),
    Message('control_change', channel=0, control=1, value=62, time=191),
    Message('control_change', channel=0, control=1, value=61, time=56),
    Message('control_change', channel=0, control=1, value=60, time=168),
    Message('control_change', channel=0, control=1, value=59, time=112),
    Message('control_change', channel=0, control=1, value=58, time=56),
    Message('control_change', channel=0, control=1, value=57, time=56),
    Message('control_change', channel=0, control=1, value=56, time=56),
    Message('control_change', channel=0, control=1, value=55, time=112),
    Message('control_change', channel=0, control=1, value=54, time=56),
    Message('control_change', channel=0, control=1, value=53, time=56),
    Message('control_change', channel=0, control=1, value=52, time=112),
    Message('note_off', channel=0, note=72, velocity=0, time=155),
    Message('note_off', channel=0, note=76, velocity=0, time=0),
    Message('note_off', channel=0, note=81, velocity=0, time=36),
    Message('note_on', channel=0, note=74, velocity=75, time=1),
    Message('note_on', channel=0, note=77, velocity=89, time=0),
    Message('note_off', channel=0, note=74, velocity=0, time=464),
    Message('note_off', channel=0, note=77, velocity=0, time=36),
    Message('note_on', channel=0, note=76, velocity=72, time=1),
    Message('note_on', channel=0, note=79, velocity=86, time=0),
    Message('note_off', channel=0, note=76, velocity=0, time=468),
    Message('note_off', channel=0, note=79, velocity=0, time=36),
    Message('note_on', channel=0, note=70, velocity=77, time=5),
    Message('note_on', channel=0, note=74, velocity=77, time=0),
    Message('note_on', channel=0, note=77, velocity=77, time=0),
    Message('note_on', channel=0, note=81, velocity=91, time=0),
    Message('note_off', channel=0, note=70, velocity=0, time=978),
    Message('note_off', channel=0, note=74, velocity=0, time=0),
    Message('note_off', channel=0, note=77, velocity=0, time=67),
    Message('note_off', channel=0, note=81, velocity=0, time=0),
    Message('note_on', channel=0, note=70, velocity=73, time=1),
    Message('note_on', channel=0, note=74, velocity=73, time=0),
    Message('note_on', channel=0, note=79, velocity=87, time=0),
    Message('note_off', channel=0, note=70, velocity=0, time=979),
    Message('note_off', channel=0, note=74, velocity=0, time=0),
    Message('note_off', channel=0, note=79, velocity=0, time=36),
    Message('note_on', channel=0, note=77, velocity=75, time=1),
    Message('note_on', channel=0, note=81, velocity=75, time=0),
    Message('note_on', channel=0, note=86, velocity=89, time=0),
    Message('note_off', channel=0, note=77, velocity=0, time=928),
    Message('note_off', channel=0, note=81, velocity=0, time=0),
    Message('control_change', channel=0, control=1, value=52, time=66),
    Message('note_off', channel=0, note=86, velocity=0, time=11),
    Message('note_on', channel=0, note=70, velocity=72, time=5),
    Message('note_on', channel=0, note=74, velocity=72, time=0),
    Message('note_on', channel=0, note=77, velocity=72, time=0),
    Message('note_on', channel=0, note=81, velocity=86, time=0),
    Message('control_change', channel=0, control=1, value=53, time=212),
    Message('control_change', channel=0, control=1, value=54, time=114),
    Message('control_change', channel=0, control=1, value=55, time=57),
    Message('control_change', channel=0, control=1, value=56, time=57),
    Message('control_change', channel=0, control=1, value=57, time=114),
    Message('control_change', channel=0, control=1, value=58, time=57),
    Message('control_change', channel=0, control=1, value=59, time=57),
    Message('control_change', channel=0, control=1, value=60, time=57),
    Message('control_change', channel=0, control=1, value=61, time=114),
    Message('control_change', channel=0, control=1, value=62, time=191),
    Message('control_change', channel=0, control=1, value=61, time=56),
    Message('control_change', channel=0, control=1, value=60, time=168),
    Message('control_change', channel=0, control=1, value=59, time=112),
    Message('control_change', channel=0, control=1, value=58, time=56),
    Message('control_change', channel=0, control=1, value=57, time=56),
    Message('control_change', channel=0, control=1, value=56, time=56),
    Message('control_change', channel=0, control=1, value=55, time=112),
    Message('control_change', channel=0, control=1, value=54, time=56),
    Message('control_change', channel=0, control=1, value=53, time=56),
    Message('control_change', channel=0, control=1, value=52, time=112),
    Message('note_off', channel=0, note=74, velocity=0, time=124),
    Message('note_off', channel=0, note=77, velocity=0, time=0),
    Message('note_off', channel=0, note=70, velocity=0, time=31),
    Message('note_off', channel=0, note=81, velocity=0, time=36),
    Message('note_on', channel=0, note=74, velocity=75, time=1),
    Message('note_on', channel=0, note=77, velocity=89, time=0),
    Message('note_off', channel=0, note=74, velocity=0, time=464),
    Message('note_off', channel=0, note=77, velocity=0, time=36),
    Message('note_on', channel=0, note=76, velocity=72, time=1),
    Message('note_on', channel=0, note=79, velocity=86, time=0),
    Message('note_off', channel=0, note=76, velocity=0, time=438),
    Message('note_off', channel=0, note=79, velocity=0, time=66),
    Message('note_on', channel=0, note=69, velocity=77, time=5),
    Message('note_on', channel=0, note=72, velocity=77, time=0),
    Message('note_on', channel=0, note=76, velocity=77, time=0),
    Message('note_on', channel=0, note=81, velocity=91, time=0),
    Message('note_off', channel=0, note=69, velocity=0, time=1009),
    Message('note_off', channel=0, note=72, velocity=0, time=0),
    Message('note_off', channel=0, note=76, velocity=0, time=36),
    Message('note_off', channel=0, note=81, velocity=0, time=0),
    Message('note_on', channel=0, note=79, velocity=81, time=1),
    Message('note_off', channel=0, note=79, velocity=0, time=926),
    Message('note_on', channel=0, note=76, velocity=75, time=90),
    Message('note_on', channel=0, note=79, velocity=75, time=0),
    Message('note_on', channel=0, note=84, velocity=89, time=0),
    Message('note_off', channel=0, note=84, velocity=0, time=928),
    Message('note_off', channel=0, note=76, velocity=0, time=41),
    Message('note_off', channel=0, note=79, velocity=0, time=0),
    Message('note_on', channel=0, note=84, velocity=77, time=41),
    Message('note_on', channel=0, note=88, velocity=91, time=0),
    Message('note_off', channel=0, note=84, velocity=0, time=503),
    Message('note_off', channel=0, note=88, velocity=0, time=36),
    Message('note_on', channel=0, note=89, velocity=80, time=1),
    Message('note_off', channel=0, note=89, velocity=0, time=471),
    Message('note_on', channel=0, note=88, velocity=81, time=35),
    Message('note_off', channel=0, note=88, velocity=0, time=476),
    Message('note_on', channel=0, note=84, velocity=80, time=33),
    Message('note_off', channel=0, note=84, velocity=0, time=475),
    Message('note_on', channel=0, note=79, velocity=83, time=32),
    Message('note_off', channel=0, note=79, velocity=0, time=471),
    Message('note_on', channel=0, note=84, velocity=80, time=30),
    Message('note_off', channel=0, note=84, velocity=0, time=477),
    Message('note_on', channel=0, note=70, velocity=77, time=32),
    Message('note_on', channel=0, note=74, velocity=77, time=0),
    Message('note_on', channel=0, note=77, velocity=77, time=0),
    Message('note_on', channel=0, note=81, velocity=91, time=0),
    Message('note_off', channel=0, note=70, velocity=0, time=978),
    Message('note_off', channel=0, note=74, velocity=0, time=0),
    Message('note_off', channel=0, note=77, velocity=0, time=67),
    Message('note_off', channel=0, note=81, velocity=0, time=0),
    Message('note_on', channel=0, note=70, velocity=73, time=1),
    Message('note_on', channel=0, note=74, velocity=73, time=0),
    Message('note_on', channel=0, note=79, velocity=87, time=0),
    Message('note_off', channel=0, note=70, velocity=0, time=979),
    Message('note_off', channel=0, note=74, velocity=0, time=0),
    Message('note_off', channel=0, note=79, velocity=0, time=36),
    Message('note_on', channel=0, note=77, velocity=75, time=1),
    Message('note_on', channel=0, note=81, velocity=75, time=0),
    Message('note_on', channel=0, note=86, velocity=89, time=0),
    Message('note_off', channel=0, note=77, velocity=0, time=928),
    Message('note_off', channel=0, note=81, velocity=0, time=0),
    Message('control_change', channel=0, control=1, value=52, time=66),
    Message('note_off', channel=0, note=86, velocity=0, time=11),
    Message('note_on', channel=0, note=70, velocity=72, time=5),
    Message('note_on', channel=0, note=74, velocity=72, time=0),
    Message('note_on', channel=0, note=77, velocity=72, time=0),
    Message('note_on', channel=0, note=81, velocity=86, time=0),
    Message('control_change', channel=0, control=1, value=53, time=212),
    Message('control_change', channel=0, control=1, value=54, time=114),
    Message('control_change', channel=0, control=1, value=55, time=57),
    Message('control_change', channel=0, control=1, value=56, time=57),
    Message('control_change', channel=0, control=1, value=57, time=114),
    Message('control_change', channel=0, control=1, value=58, time=57),
    Message('control_change', channel=0, control=1, value=59, time=57),
    Message('control_change', channel=0, control=1, value=60, time=57),
    Message('control_change', channel=0, control=1, value=61, time=114),
    Message('control_change', channel=0, control=1, value=62, time=191),
    Message('control_change', channel=0, control=1, value=61, time=56),
    Message('control_change', channel=0, control=1, value=60, time=168),
    Message('control_change', channel=0, control=1, value=59, time=112),
    Message('control_change', channel=0, control=1, value=58, time=56),
    Message('control_change', channel=0, control=1, value=57, time=56),
    Message('control_change', channel=0, control=1, value=56, time=56),
    Message('control_change', channel=0, control=1, value=55, time=112),
    Message('control_change', channel=0, control=1, value=54, time=56),
    Message('control_change', channel=0, control=1, value=53, time=56),
    Message('control_change', channel=0, control=1, value=52, time=112),
    Message('note_off', channel=0, note=77, velocity=0, time=124),
    Message('note_off', channel=0, note=70, velocity=0, time=31),
    Message('note_off', channel=0, note=74, velocity=0, time=0),
    Message('note_off', channel=0, note=81, velocity=0, time=36),
    Message('note_on', channel=0, note=77, velocity=83, time=1),
    Message('note_off', channel=0, note=77, velocity=0, time=464),
    Message('note_on', channel=0, note=79, velocity=80, time=37),
    Message('note_off', channel=0, note=79, velocity=0, time=468),
    Message('note_on', channel=0, note=69, velocity=77, time=41),
    Message('note_on', channel=0, note=72, velocity=77, time=0),
    Message('note_on', channel=0, note=76, velocity=77, time=0),
    Message('note_on', channel=0, note=81, velocity=91, time=0),
    Message('note_off', channel=0, note=69, velocity=0, time=1009),
    Message('note_off', channel=0, note=72, velocity=0, time=0),
    Message('note_off', channel=0, note=76, velocity=0, time=36),
    Message('note_off', channel=0, note=81, velocity=0, time=0),
    Message('note_on', channel=0, note=79, velocity=81, time=1),
    Message('note_off', channel=0, note=79, velocity=0, time=926),
    Message('note_on', channel=0, note=76, velocity=75, time=90),
    Message('note_on', channel=0, note=79, velocity=75, time=0),
    Message('note_on', channel=0, note=84, velocity=89, time=0),
    Message('note_off', channel=0, note=76, velocity=0, time=928),
    Message('note_off', channel=0, note=79, velocity=0, time=41),
    Message('control_change', channel=0, control=1, value=52, time=25),
    Message('note_off', channel=0, note=84, velocity=0, time=11),
    Message('note_on', channel=0, note=72, velocity=72, time=5),
    Message('note_on', channel=0, note=76, velocity=72, time=0),
    Message('note_on', channel=0, note=81, velocity=86, time=0),
    Message('control_change', channel=0, control=1, value=53, time=212),
    Message('control_change', channel=0, control=1, value=54, time=114),
    Message('control_change', channel=0, control=1, value=55, time=57),
    Message('control_change', channel=0, control=1, value=56, time=57),
    Message('control_change', channel=0, control=1, value=57, time=114),
    Message('control_change', channel=0, control=1, value=58, time=57),
    Message('control_change', channel=0, control=1, value=59, time=57),
    Message('control_change', channel=0, control=1, value=60, time=57),
    Message('control_change', channel=0, control=1, value=61, time=114),
    Message('control_change', channel=0, control=1, value=62, time=191),
    Message('control_change', channel=0, control=1, value=61, time=56),
    Message('control_change', channel=0, control=1, value=60, time=168),
    Message('control_change', channel=0, control=1, value=59, time=112),
    Message('control_change', channel=0, control=1, value=58, time=56),
    Message('control_change', channel=0, control=1, value=57, time=56),
    Message('control_change', channel=0, control=1, value=56, time=56),
    Message('control_change', channel=0, control=1, value=55, time=112),
    Message('control_change', channel=0, control=1, value=54, time=56),
    Message('control_change', channel=0, control=1, value=53, time=56),
    Message('control_change', channel=0, control=1, value=52, time=112),
    Message('note_off', channel=0, note=72, velocity=0, time=155),
    Message('note_off', channel=0, note=76, velocity=0, time=0),
    Message('note_off', channel=0, note=81, velocity=0, time=36),
    Message('note_on', channel=0, note=74, velocity=75, time=1),
    Message('note_on', channel=0, note=77, velocity=89, time=0),
    Message('note_off', channel=0, note=74, velocity=0, time=464),
    Message('note_off', channel=0, note=77, velocity=0, time=36),
    Message('note_on', channel=0, note=76, velocity=72, time=1),
    Message('note_on', channel=0, note=79, velocity=86, time=0),
    Message('note_off', channel=0, note=76, velocity=0, time=468),
    Message('note_off', channel=0, note=79, velocity=0, time=36),
    Message('note_on', channel=0, note=71, velocity=77, time=5),
    Message('note_on', channel=0, note=75, velocity=77, time=0),
    Message('note_on', channel=0, note=80, velocity=91, time=0),
    Message('control_change', channel=0, control=1, value=52, time=214),
    Message('control_change', channel=0, control=1, value=51, time=56),
    Message('control_change', channel=0, control=1, value=50, time=616),
    Message('note_off', channel=0, note=71, velocity=0, time=123),
    Message('note_off', channel=0, note=75, velocity=0, time=0),
    Message('note_off', channel=0, note=80, velocity=0, time=36),
    Message('note_on', channel=0, note=78, velocity=81, time=1),
    Message('control_change', channel=0, control=1, value=49, time=120),
    Message('control_change', channel=0, control=1, value=48, time=224),
    Message('control_change', channel=0, control=1, value=47, time=224),
    Message('control_change', channel=0, control=1, value=46, time=168),
    Message('control_change', channel=0, control=1, value=45, time=168),
    Message('note_off', channel=0, note=78, velocity=0, time=22),
    Message('note_on', channel=0, note=78, velocity=75, time=90),
    Message('note_on', channel=0, note=82, velocity=75, time=0),
    Message('note_on', channel=0, note=87, velocity=89, time=0),
    Message('control_change', channel=0, control=1, value=44, time=56),
    Message('control_change', channel=0, control=1, value=43, time=168),
    Message('control_change', channel=0, control=1, value=42, time=168),
    Message('control_change', channel=0, control=1, value=41, time=168),
    Message('control_change', channel=0, control=1, value=40, time=168),
    Message('control_change', channel=0, control=1, value=39, time=112),
    Message('note_off', channel=0, note=78, velocity=0, time=129),
    Message('note_off', channel=0, note=82, velocity=0, time=0),
    Message('note_off', channel=0, note=87, velocity=0, time=36),
    Message('control_change', channel=0, control=1, value=38, time=3),
    Message('note_on', channel=0, note=71, velocity=72, time=2),
    Message('note_on', channel=0, note=80, velocity=86, time=0),
    Message('control_change', channel=0, control=1, value=37, time=166),
    Message('control_change', channel=0, control=1, value=36, time=168),
    Message('control_change', channel=0, control=1, value=35, time=168),
    Message('control_change', channel=0, control=1, value=34, time=168),
    Message('control_change', channel=0, control=1, value=33, time=224),
    Message('control_change', channel=0, control=1, value=32, time=224),
    Message('control_change', channel=0, control=1, value=31, time=280),
    Message('note_off', channel=0, note=71, velocity=0, time=627),
    Message('control_change', channel=0, control=1, value=31, time=21),
    Message('note_off', channel=0, note=80, velocity=0, time=15),
    Message('note_on', channel=0, note=78, velocity=83, time=1),
    Message('note_off', channel=0, note=78, velocity=0, time=464),
    Message('note_on', channel=0, note=80, velocity=80, time=37),
    Message('control_change', channel=0, control=1, value=31, time=169),
    Message('control_change', channel=0, control=1, value=32, time=104),
    Message('control_change', channel=0, control=1, value=33, time=104),
    Message('control_change', channel=0, control=1, value=34, time=52),
    Message('note_off', channel=0, note=80, velocity=0, time=39),
    Message('note_on', channel=0, note=70, velocity=77, time=41),
    Message('note_on', channel=0, note=74, velocity=77, time=0),
    Message('note_on', channel=0, note=79, velocity=91, time=0),
    Message('control_change', channel=0, control=1, value=35, time=24),
    Message('control_change', channel=0, control=1, value=36, time=52),
    Message('control_change', channel=0, control=1, value=37, time=104),
    Message('control_change', channel=0, control=1, value=38, time=52),
    Message('control_change', channel=0, control=1, value=39, time=104),
    Message('control_change', channel=0, control=1, value=40, time=52),
    Message('control_change', channel=0, control=1, value=41, time=104),
    Message('control_change', channel=0, control=1, value=42, time=52),
    Message('control_change', channel=0, control=1, value=43, time=104),
    Message('control_change', channel=0, control=1, value=44, time=52),
    Message('control_change', channel=0, control=1, value=45, time=104),
    Message('control_change', channel=0, control=1, value=46, time=52),
    Message('control_change', channel=0, control=1, value=47, time=105),
    Message('note_off', channel=0, note=70, velocity=0, time=17),
    Message('note_off', channel=0, note=74, velocity=0, time=31),
    Message('control_change', channel=0, control=1, value=48, time=4),
    Message('note_off', channel=0, note=79, velocity=0, time=32),
    Message('note_on', channel=0, note=70, velocity=73, time=1),
    Message('note_on', channel=0, note=72, velocity=73, time=0),
    Message('note_on', channel=0, note=77, velocity=87, time=0),
    Message('control_change', channel=0, control=1, value=49, time=71),
    Message('control_change', channel=0, control=1, value=50, time=52),
    Message('control_change', channel=0, control=1, value=51, time=104),
    Message('control_change', channel=0, control=1, value=52, time=52),
    Message('control_change', channel=0, control=1, value=53, time=104),
    Message('control_change', channel=0, control=1, value=54, time=52),
    Message('control_change', channel=0, control=1, value=55, time=104),
    Message('control_change', channel=0, control=1, value=56, time=52),
    Message('control_change', channel=0, control=1, value=57, time=105),
    Message('control_change', channel=0, control=1, value=58, time=52),
    Message('control_change', channel=0, control=1, value=59, time=104),
    Message('control_change', channel=0, control=1, value=60, time=52),
    Message('note_off', channel=0, note=72, velocity=0, time=22),
    Message('note_off', channel=0, note=70, velocity=0, time=55),
    Message('control_change', channel=0, control=1, value=61, time=27),
    Message('note_off', channel=0, note=77, velocity=0, time=7),
    Message('note_on', channel=0, note=72, velocity=75, time=1),
    Message('note_on', channel=0, note=84, velocity=89, time=0),
    Message('control_change', channel=0, control=1, value=62, time=44),
    Message('control_change', channel=0, control=1, value=63, time=104),
    Message('control_change', channel=0, control=1, value=64, time=52),
    Message('control_change', channel=0, control=1, value=65, time=104),
    Message('control_change', channel=0, control=1, value=66, time=52),
    Message('control_change', channel=0, control=1, value=67, time=104),
    Message('control_change', channel=0, control=1, value=68, time=52),
    Message('control_change', channel=0, control=1, value=69, time=104),
    Message('control_change', channel=0, control=1, value=70, time=52),
    Message('control_change', channel=0, control=1, value=71, time=104),
    Message('control_change', channel=0, control=1, value=72, time=52),
    Message('control_change', channel=0, control=1, value=73, time=104),
    Message('note_off', channel=0, note=72, velocity=0, time=45),
    Message('control_change', channel=0, control=1, value=74, time=7),
    Message('control_change', channel=0, control=1, value=74, time=16),
    Message('note_off', channel=0, note=84, velocity=0, time=9),
    Message('note_on', channel=0, note=73, velocity=72, time=5),
    Message('note_on', channel=0, note=78, velocity=72, time=0),
    Message('note_on', channel=0, note=82, velocity=86, time=0),
    Message('control_change', channel=0, control=1, value=75, time=256),
    Message('control_change', channel=0, control=1, value=76, time=90),
    Message('control_change', channel=0, control=1, value=77, time=91),
    Message('control_change', channel=0, control=1, value=78, time=90),
    Message('control_change', channel=0, control=1, value=79, time=90),
    Message('control_change', channel=0, control=1, value=80, time=90),
    Message('control_change', channel=0, control=1, value=81, time=45),
    Message('control_change', channel=0, control=1, value=82, time=90),
    Message('control_change', channel=0, control=1, value=83, time=90),
    Message('control_change', channel=0, control=1, value=84, time=90),
    Message('control_change', channel=0, control=1, value=85, time=90),
    Message('control_change', channel=0, control=1, value=86, time=251),
    Message('control_change', channel=0, control=1, value=85, time=39),
    Message('control_change', channel=0, control=1, value=84, time=273),
    Message('control_change', channel=0, control=1, value=83, time=156),
    Message('control_change', channel=0, control=1, value=82, time=78),
    Message('control_change', channel=0, control=1, value=81, time=117),
    Message('control_change', channel=0, control=1, value=80, time=118),
    Message('control_change', channel=0, control=1, value=79, time=78),
    Message('control_change', channel=0, control=1, value=78, time=78),
    Message('control_change', channel=0, control=1, value=77, time=117),
    Message('control_change', channel=0, control=1, value=76, time=78),
    Message('control_change', channel=0, control=1, value=75, time=117),
    Message('control_change', channel=0, control=1, value=74, time=156),
    Message('note_off', channel=0, note=73, velocity=0, time=269),
    Message('note_off', channel=0, note=78, velocity=0, time=0),
    Message('control_change', channel=0, control=1, value=74, time=25),
    Message('note_off', channel=0, note=82, velocity=0, time=5),
    Message('note_on', channel=0, note=74, velocity=72, time=5),
    Message('note_on', channel=0, note=79, velocity=86, time=0),
    Message('control_change', channel=0, control=1, value=75, time=242),
    Message('control_change', channel=0, control=1, value=76, time=108),
    Message('control_change', channel=0, control=1, value=77, time=72),
    Message('control_change', channel=0, control=1, value=78, time=72),
    Message('control_change', channel=0, control=1, value=79, time=72),
    Message('control_change', channel=0, control=1, value=80, time=72),
    Message('control_change', channel=0, control=1, value=81, time=72),
    Message('control_change', channel=0, control=1, value=82, time=72),
    Message('control_change', channel=0, control=1, value=83, time=72),
    Message('control_change', channel=0, control=1, value=84, time=72),
    Message('control_change', channel=0, control=1, value=85, time=72),
    Message('control_change', channel=0, control=1, value=86, time=108),
    Message('control_change', channel=0, control=1, value=87, time=228),
    Message('control_change', channel=0, control=1, value=85, time=36),
    Message('control_change', channel=0, control=1, value=84, time=36),
    Message('control_change', channel=0, control=1, value=83, time=36),
    Message('control_change', channel=0, control=1, value=82, time=36),
    Message('control_change', channel=0, control=1, value=80, time=36),
    Message('control_change', channel=0, control=1, value=79, time=36),
    Message('control_change', channel=0, control=1, value=78, time=36),
    Message('control_change', channel=0, control=1, value=77, time=36),
    Message('control_change', channel=0, control=1, value=75, time=36),
    Message('control_change', channel=0, control=1, value=74, time=36),
    Message('control_change', channel=0, control=1, value=73, time=36),
    Message('control_change', channel=0, control=1, value=72, time=36),
    Message('control_change', channel=0, control=1, value=70, time=36),
    Message('control_change', channel=0, control=1, value=69, time=36),
    Message('control_change', channel=0, control=1, value=68, time=36),
    Message('control_change', channel=0, control=1, value=67, time=36),
    Message('control_change', channel=0, control=1, value=65, time=36),
    Message('control_change', channel=0, control=1, value=64, time=36),
    Message('control_change', channel=0, control=1, value=63, time=36),
    Message('control_change', channel=0, control=1, value=62, time=36),
    Message('control_change', channel=0, control=1, value=60, time=36),
    Message('control_change', channel=0, control=1, value=59, time=36),
    Message('control_change', channel=0, control=1, value=58, time=36),
    Message('control_change', channel=0, control=1, value=57, time=36),
    Message('control_change', channel=0, control=1, value=55, time=36),
    Message('control_change', channel=0, control=1, value=54, time=36),
    Message('control_change', channel=0, control=1, value=53, time=36),
    Message('control_change', channel=0, control=1, value=52, time=36),
    Message('control_change', channel=0, control=1, value=50, time=36),
    Message('control_change', channel=0, control=1, value=49, time=36),
    Message('control_change', channel=0, control=1, value=48, time=36),
    Message('control_change', channel=0, control=1, value=47, time=36),
    Message('control_change', channel=0, control=1, value=45, time=36),
    Message('control_change', channel=0, control=1, value=44, time=36),
    Message('control_change', channel=0, control=1, value=43, time=36),
    Message('control_change', channel=0, control=1, value=42, time=36),
    Message('control_change', channel=0, control=1, value=40, time=36),
    Message('control_change', channel=0, control=1, value=39, time=36),
    Message('control_change', channel=0, control=1, value=38, time=36),
    Message('note_off', channel=0, note=74, velocity=0, time=23),
    Message('note_off', channel=0, note=79, velocity=0, time=0),
    Message('control_change', channel=0, control=1, value=37, time=13),
    Message('control_change', channel=0, control=1, value=35, time=36),
    Message('control_change', channel=0, control=1, value=34, time=36),
    Message('control_change', channel=0, control=1, value=33, time=36),
    Message('control_change', channel=0, control=1, value=32, time=36),
    Message('control_change', channel=0, control=1, value=30, time=36),
    Message('control_change', channel=0, control=1, value=29, time=36),
    Message('control_change', channel=0, control=1, value=28, time=36),
    MetaMessage('end_of_track', time=41)]),
  MidiTrack([
    MetaMessage('device_name', name='Launchkey Mini MK3', time=0),
    MetaMessage('track_name', name='Clarinet in Bb', time=0),
    Message('program_change', channel=1, program=0, time=0),
    Message('control_change', channel=1, control=7, value=101, time=0),
    Message('control_change', channel=1, control=10, value=31, time=0),
    Message('control_change', channel=1, control=7, value=63, time=0),
    Message('note_on', channel=0, note=0, velocity=64, time=480),
    Message('control_change', channel=1, control=1, value=55, time=9),
    Message('note_off', channel=0, note=0, velocity=64, time=15),
    Message('note_on', channel=1, note=57, velocity=80, time=42),
    Message('note_off', channel=1, note=57, velocity=0, time=471),
    Message('control_change', channel=1, control=1, value=31, time=21),
    Message('note_on', channel=1, note=62, velocity=73, time=16),
    Message('note_on', channel=1, note=65, velocity=87, time=0),
    Message('note_off', channel=1, note=62, velocity=0, time=468),
    Message('note_off', channel=1, note=65, velocity=0, time=36),
    Message('note_on', channel=1, note=57, velocity=80, time=1),
    Message('note_off', channel=1, note=57, velocity=0, time=473),
    Message('note_on', channel=1, note=62, velocity=75, time=37),
    Message('note_on', channel=1, note=65, velocity=89, time=0),
    Message('note_off', channel=1, note=62, velocity=0, time=473),
    Message('note_off', channel=1, note=65, velocity=0, time=36),
    Message('note_on', channel=1, note=57, velocity=80, time=1),
    Message('note_off', channel=1, note=57, velocity=0, time=468),
    Message('note_on', channel=1, note=62, velocity=73, time=37),
    Message('note_on', channel=1, note=65, velocity=87, time=0),
    Message('note_off', channel=1, note=62, velocity=0, time=468),
    Message('note_off', channel=1, note=65, velocity=0, time=36),
    Message('note_on', channel=1, note=57, velocity=80, time=1),
    Message('note_off', channel=1, note=57, velocity=0, time=470),
    Message('note_on', channel=1, note=57, velocity=80, time=583),
    Message('note_off', channel=1, note=57, velocity=0, time=471),
    Message('note_on', channel=1, note=60, velocity=73, time=37),
    Message('note_on', channel=1, note=64, velocity=87, time=0),
    Message('note_off', channel=1, note=60, velocity=0, time=468),
    Message('note_off', channel=1, note=64, velocity=0, time=36),
    Message('note_on', channel=1, note=57, velocity=80, time=1),
    Message('note_off', channel=1, note=57, velocity=0, time=473),
    Message('note_on', channel=1, note=60, velocity=75, time=37),
    Message('note_on', channel=1, note=64, velocity=89, time=0),
    Message('note_off', channel=1, note=60, velocity=0, time=473),
    Message('note_off', channel=1, note=64, velocity=0, time=36),
    Message('note_on', channel=1, note=57, velocity=80, time=1),
    Message('note_off', channel=1, note=57, velocity=0, time=468),
    Message('note_on', channel=1, note=60, velocity=73, time=37),
    Message('note_on', channel=1, note=64, velocity=87, time=0),
    Message('note_off', channel=1, note=60, velocity=0, time=468),
    Message('note_off', channel=1, note=64, velocity=0, time=36),
    Message('note_on', channel=1, note=57, velocity=80, time=1),
    Message('note_off', channel=1, note=57, velocity=0, time=470),
    Message('note_on', channel=1, note=58, velocity=80, time=583),
    Message('note_off', channel=1, note=58, velocity=0, time=471),
    Message('note_on', channel=1, note=62, velocity=73, time=37),
    Message('note_on', channel=1, note=65, velocity=87, time=0),
    Message('note_off', channel=1, note=62, velocity=0, time=468),
    Message('note_off', channel=1, note=65, velocity=0, time=36),
    Message('note_on', channel=1, note=58, velocity=80, time=1),
    Message('note_off', channel=1, note=58, velocity=0, time=473),
    Message('note_on', channel=1, note=62, velocity=75, time=37),
    Message('note_on', channel=1, note=65, velocity=89, time=0),
    Message('note_off', channel=1, note=62, velocity=0, time=473),
    Message('note_off', channel=1, note=65, velocity=0, time=36),
    Message('note_on', channel=1, note=58, velocity=80, time=1),
    Message('note_off', channel=1, note=58, velocity=0, time=468),
    Message('note_on', channel=1, note=62, velocity=73, time=37),
    Message('note_on', channel=1, note=65, velocity=87, time=0),
    Message('note_off', channel=1, note=62, velocity=0, time=468),
    Message('note_off', channel=1, note=65, velocity=0, time=36),
    Message('note_on', channel=1, note=58, velocity=80, time=1),
    Message('note_off', channel=1, note=58, velocity=0, time=470),
    Message('note_on', channel=1, note=52, velocity=80, time=583),
    Message('note_off', channel=1, note=52, velocity=0, time=471),
    Message('note_on', channel=1, note=57, velocity=73, time=37),
    Message('note_on', channel=1, note=62, velocity=87, time=0),
    Message('note_off', channel=1, note=57, velocity=0, time=468),
    Message('note_off', channel=1, note=62, velocity=0, time=36),
    Message('note_on', channel=1, note=64, velocity=80, time=1),
    Message('note_off', channel=1, note=64, velocity=0, time=473),
    Message('note_on', channel=1, note=52, velocity=80, time=547),
    Message('note_off', channel=1, note=52, velocity=0, time=470),
    Message('note_on', channel=1, note=57, velocity=73, time=35),
    Message('note_on', channel=1, note=61, velocity=87, time=0),
    Message('note_off', channel=1, note=57, velocity=0, time=474),
    Message('note_off', channel=1, note=61, velocity=0, time=30),
    Message('note_on', channel=1, note=64, velocity=80, time=1),
    Message('note_off', channel=1, note=64, velocity=0, time=479),
    Message('control_change', channel=1, control=1, value=15, time=17397),
    Message('control_change', channel=1, control=1, value=15, time=49),
    Message('note_on', channel=1, note=62, velocity=61, time=16),
    Message('note_on', channel=1, note=65, velocity=61, time=0),
    Message('note_on', channel=1, note=69, velocity=75, time=0),
    Message('control_change', channel=1, control=1, value=16, time=152),
    Message('control_change', channel=1, control=1, value=18, time=56),
    Message('control_change', channel=1, control=1, value=19, time=56),
    Message('control_change', channel=1, control=1, value=21, time=56),
    Message('control_change', channel=1, control=1, value=23, time=56),
    Message('control_change', channel=1, control=1, value=25, time=56),
    Message('control_change', channel=1, control=1, value=27, time=56),
    Message('control_change', channel=1, control=1, value=29, time=56),
    Message('control_change', channel=1, control=1, value=31, time=56),
    Message('control_change', channel=1, control=1, value=33, time=56),
    Message('control_change', channel=1, control=1, value=35, time=56),
    Message('control_change', channel=1, control=1, value=37, time=56),
    Message('control_change', channel=1, control=1, value=38, time=56),
    Message('control_change', channel=1, control=1, value=39, time=56),
    Message('control_change', channel=1, control=1, value=40, time=120),
    Message('control_change', channel=1, control=1, value=39, time=58),
    Message('control_change', channel=1, control=1, value=38, time=174),
    Message('control_change', channel=1, control=1, value=37, time=116),
    Message('control_change', channel=1, control=1, value=36, time=58),
    Message('control_change', channel=1, control=1, value=35, time=58),
    Message('control_change', channel=1, control=1, value=34, time=116),
    Message('control_change', channel=1, control=1, value=33, time=58),
    Message('control_change', channel=1, control=1, value=32, time=58),
    Message('control_change', channel=1, control=1, value=31, time=116),
    Message('note_off', channel=1, note=62, velocity=0, time=173),
    Message('note_off', channel=1, note=65, velocity=0, time=0),
    Message('note_off', channel=1, note=69, velocity=0, time=36),
    Message('note_on', channel=1, note=53, velocity=73, time=1051),
    Message('note_on', channel=1, note=57, velocity=73, time=0),
    Message('note_on', channel=1, note=62, velocity=87, time=0),
    Message('note_off', channel=1, note=57, velocity=0, time=926),
    Message('note_off', channel=1, note=62, velocity=0, time=0),
    Message('note_off', channel=1, note=53, velocity=0, time=53),
    Message('note_on', channel=1, note=57, velocity=75, time=37),
    Message('note_on', channel=1, note=62, velocity=75, time=0),
    Message('note_on', channel=1, note=65, velocity=89, time=0),
    Message('note_off', channel=1, note=57, velocity=0, time=969),
    Message('note_off', channel=1, note=62, velocity=0, time=0),
    Message('note_off', channel=1, note=65, velocity=0, time=36),
    Message('control_change', channel=1, control=1, value=15, time=986),
    Message('control_change', channel=1, control=1, value=15, time=49),
    Message('note_on', channel=1, note=57, velocity=61, time=16),
    Message('note_on', channel=1, note=60, velocity=61, time=0),
    Message('note_on', channel=1, note=64, velocity=75, time=0),
    Message('control_change', channel=1, control=1, value=16, time=152),
    Message('control_change', channel=1, control=1, value=18, time=56),
    Message('control_change', channel=1, control=1, value=19, time=56),
    Message('control_change', channel=1, control=1, value=21, time=56),
    Message('control_change', channel=1, control=1, value=23, time=56),
    Message('control_change', channel=1, control=1, value=25, time=56),
    Message('control_change', channel=1, control=1, value=27, time=56),
    Message('control_change', channel=1, control=1, value=29, time=56),
    Message('control_change', channel=1, control=1, value=31, time=56),
    Message('control_change', channel=1, control=1, value=33, time=56),
    Message('control_change', channel=1, control=1, value=35, time=56),
    Message('control_change', channel=1, control=1, value=37, time=56),
    Message('control_change', channel=1, control=1, value=38, time=56),
    Message('control_change', channel=1, control=1, value=39, time=56),
    Message('control_change', channel=1, control=1, value=40, time=120),
    Message('control_change', channel=1, control=1, value=39, time=58),
    Message('control_change', channel=1, control=1, value=38, time=174),
    Message('control_change', channel=1, control=1, value=37, time=116),
    Message('control_change', channel=1, control=1, value=36, time=58),
    Message('control_change', channel=1, control=1, value=35, time=58),
    Message('control_change', channel=1, control=1, value=34, time=116),
    Message('control_change', channel=1, control=1, value=33, time=58),
    Message('control_change', channel=1, control=1, value=32, time=58),
    Message('control_change', channel=1, control=1, value=31, time=116),
    Message('note_off', channel=1, note=57, velocity=0, time=173),
    Message('note_off', channel=1, note=60, velocity=0, time=0),
    Message('note_off', channel=1, note=64, velocity=0, time=36),
    Message('note_on', channel=1, note=59, velocity=73, time=1051),
    Message('note_on', channel=1, note=60, velocity=73, time=0),
    Message('note_on', channel=1, note=64, velocity=73, time=0),
    Message('note_on', channel=1, note=67, velocity=87, time=0),
    Message('note_off', channel=1, note=60, velocity=0, time=926),
    Message('note_off', channel=1, note=64, velocity=0, time=0),
    Message('note_off', channel=1, note=59, velocity=0, time=53),
    Message('note_off', channel=1, note=67, velocity=0, time=36),
    Message('note_on', channel=1, note=55, velocity=75, time=1),
    Message('note_on', channel=1, note=57, velocity=75, time=0),
    Message('note_on', channel=1, note=60, velocity=75, time=0),
    Message('note_on', channel=1, note=64, velocity=89, time=0),
    Message('note_off', channel=1, note=55, velocity=0, time=969),
    Message('note_off', channel=1, note=57, velocity=0, time=0),
    Message('note_off', channel=1, note=60, velocity=0, time=0),
    Message('note_off', channel=1, note=64, velocity=0, time=36),
    Message('control_change', channel=1, control=1, value=15, time=986),
    Message('control_change', channel=1, control=1, value=15, time=49),
    Message('note_on', channel=1, note=62, velocity=61, time=16),
    Message('note_on', channel=1, note=65, velocity=61, time=0),
    Message('note_on', channel=1, note=69, velocity=75, time=0),
    Message('control_change', channel=1, control=1, value=16, time=152),
    Message('control_change', channel=1, control=1, value=18, time=56),
    Message('control_change', channel=1, control=1, value=19, time=56),
    Message('control_change', channel=1, control=1, value=21, time=56),
    Message('control_change', channel=1, control=1, value=23, time=56),
    Message('control_change', channel=1, control=1, value=25, time=56),
    Message('control_change', channel=1, control=1, value=27, time=56),
    Message('control_change', channel=1, control=1, value=29, time=56),
    Message('control_change', channel=1, control=1, value=31, time=56),
    Message('control_change', channel=1, control=1, value=33, time=56),
    Message('control_change', channel=1, control=1, value=35, time=56),
    Message('control_change', channel=1, control=1, value=37, time=56),
    Message('control_change', channel=1, control=1, value=38, time=56),
    Message('control_change', channel=1, control=1, value=39, time=56),
    Message('control_change', channel=1, control=1, value=40, time=120),
    Message('control_change', channel=1, control=1, value=39, time=58),
    Message('control_change', channel=1, control=1, value=38, time=174),
    Message('control_change', channel=1, control=1, value=37, time=116),
    Message('control_change', channel=1, control=1, value=36, time=58),
    Message('control_change', channel=1, control=1, value=35, time=58),
    Message('control_change', channel=1, control=1, value=34, time=116),
    Message('control_change', channel=1, control=1, value=33, time=58),
    Message('control_change', channel=1, control=1, value=32, time=58),
    Message('control_change', channel=1, control=1, value=31, time=116),
    Message('note_off', channel=1, note=62, velocity=0, time=173),
    Message('note_off', channel=1, note=65, velocity=0, time=0),
    Message('note_off', channel=1, note=69, velocity=0, time=36),
    Message('note_on', channel=1, note=53, velocity=73, time=1051),
    Message('note_on', channel=1, note=57, velocity=73, time=0),
    Message('note_on', channel=1, note=62, velocity=87, time=0),
    Message('note_off', channel=1, note=57, velocity=0, time=926),
    Message('note_off', channel=1, note=62, velocity=0, time=0),
    Message('note_off', channel=1, note=53, velocity=0, time=53),
    Message('note_on', channel=1, note=57, velocity=75, time=37),
    Message('note_on', channel=1, note=62, velocity=75, time=0),
    Message('note_on', channel=1, note=65, velocity=89, time=0),
    Message('note_off', channel=1, note=57, velocity=0, time=969),
    Message('note_off', channel=1, note=62, velocity=0, time=0),
    Message('note_off', channel=1, note=65, velocity=0, time=36),
    Message('control_change', channel=1, control=1, value=15, time=986),
    Message('control_change', channel=1, control=1, value=15, time=49),
    Message('note_on', channel=1, note=57, velocity=61, time=16),
    Message('note_on', channel=1, note=60, velocity=61, time=0),
    Message('note_on', channel=1, note=64, velocity=75, time=0),
    Message('control_change', channel=1, control=1, value=16, time=152),
    Message('control_change', channel=1, control=1, value=18, time=56),
    Message('control_change', channel=1, control=1, value=19, time=56),
    Message('control_change', channel=1, control=1, value=21, time=56),
    Message('control_change', channel=1, control=1, value=23, time=56),
    Message('control_change', channel=1, control=1, value=25, time=56),
    Message('control_change', channel=1, control=1, value=27, time=56),
    Message('control_change', channel=1, control=1, value=29, time=56),
    Message('control_change', channel=1, control=1, value=31, time=56),
    Message('control_change', channel=1, control=1, value=33, time=56),
    Message('control_change', channel=1, control=1, value=35, time=56),
    Message('control_change', channel=1, control=1, value=37, time=56),
    Message('control_change', channel=1, control=1, value=38, time=56),
    Message('control_change', channel=1, control=1, value=39, time=56),
    Message('control_change', channel=1, control=1, value=40, time=120),
    Message('control_change', channel=1, control=1, value=39, time=58),
    Message('control_change', channel=1, control=1, value=38, time=174),
    Message('control_change', channel=1, control=1, value=37, time=116),
    Message('control_change', channel=1, control=1, value=36, time=58),
    Message('control_change', channel=1, control=1, value=35, time=58),
    Message('control_change', channel=1, control=1, value=34, time=116),
    Message('control_change', channel=1, control=1, value=33, time=58),
    Message('control_change', channel=1, control=1, value=32, time=58),
    Message('control_change', channel=1, control=1, value=31, time=116),
    Message('note_off', channel=1, note=57, velocity=0, time=173),
    Message('note_off', channel=1, note=60, velocity=0, time=0),
    Message('note_off', channel=1, note=64, velocity=0, time=36),
    Message('note_on', channel=1, note=62, velocity=85, time=5),
    Message('note_off', channel=1, note=62, velocity=0, time=503),
    Message('note_on', channel=1, note=69, velocity=80, time=37),
    Message('note_off', channel=1, note=69, velocity=0, time=471),
    Message('note_on', channel=1, note=74, velocity=81, time=35),
    Message('note_off', channel=1, note=74, velocity=0, time=476),
    Message('note_on', channel=1, note=76, velocity=80, time=33),
    Message('note_off', channel=1, note=76, velocity=0, time=476),
    Message('note_on', channel=1, note=77, velocity=83, time=31),
    Message('note_off', channel=1, note=77, velocity=0, time=471),
    Message('note_on', channel=1, note=81, velocity=80, time=30),
    Message('note_off', channel=1, note=81, velocity=0, time=477),
    Message('control_change', channel=1, control=1, value=15, time=25589),
    Message('control_change', channel=1, control=1, value=15, time=53),
    Message('note_on', channel=1, note=60, velocity=61, time=16),
    Message('note_on', channel=1, note=64, velocity=61, time=0),
    Message('note_on', channel=1, note=67, velocity=71, time=0),
    Message('control_change', channel=1, control=1, value=16, time=208),
    Message('control_change', channel=1, control=1, value=17, time=56),
    Message('control_change', channel=1, control=1, value=18, time=56),
    Message('control_change', channel=1, control=1, value=19, time=56),
    Message('control_change', channel=1, control=1, value=20, time=56),
    Message('control_change', channel=1, control=1, value=22, time=56),
    Message('control_change', channel=1, control=1, value=23, time=56),
    Message('control_change', channel=1, control=1, value=25, time=56),
    Message('control_change', channel=1, control=1, value=26, time=56),
    Message('control_change', channel=1, control=1, value=28, time=56),
    Message('control_change', channel=1, control=1, value=29, time=56),
    Message('control_change', channel=1, control=1, value=31, time=56),
    Message('control_change', channel=1, control=1, value=33, time=56),
    Message('control_change', channel=1, control=1, value=34, time=56),
    Message('control_change', channel=1, control=1, value=36, time=56),
    Message('control_change', channel=1, control=1, value=37, time=56),
    Message('control_change', channel=1, control=1, value=39, time=56),
    Message('control_change', channel=1, control=1, value=40, time=56),
    Message('control_change', channel=1, control=1, value=41, time=56),
    Message('control_change', channel=1, control=1, value=42, time=56),
    Message('control_change', channel=1, control=1, value=43, time=56),
    Message('control_change', channel=1, control=1, value=44, time=56),
    Message('control_change', channel=1, control=1, value=45, time=184),
    Message('control_change', channel=1, control=1, value=44, time=58),
    Message('control_change', channel=1, control=1, value=43, time=232),
    Message('control_change', channel=1, control=1, value=42, time=58),
    Message('control_change', channel=1, control=1, value=41, time=116),
    Message('control_change', channel=1, control=1, value=40, time=58),
    Message('control_change', channel=1, control=1, value=39, time=116),
    Message('control_change', channel=1, control=1, value=38, time=58),
    Message('control_change', channel=1, control=1, value=37, time=58),
    Message('control_change', channel=1, control=1, value=36, time=58),
    Message('control_change', channel=1, control=1, value=35, time=58),
    Message('control_change', channel=1, control=1, value=34, time=116),
    Message('control_change', channel=1, control=1, value=33, time=58),
    Message('control_change', channel=1, control=1, value=32, time=58),
    Message('control_change', channel=1, control=1, value=31, time=116),
    Message('note_off', channel=1, note=60, velocity=0, time=219),
    Message('note_off', channel=1, note=64, velocity=0, time=0),
    Message('note_off', channel=1, note=67, velocity=0, time=36),
    Message('control_change', channel=1, control=1, value=26, time=1039),
    Message('note_on', channel=1, note=60, velocity=61, time=16),
    Message('note_on', channel=1, note=64, velocity=61, time=0),
    Message('note_on', channel=1, note=67, velocity=71, time=0),
    Message('control_change', channel=1, control=1, value=27, time=208),
    Message('control_change', channel=1, control=1, value=28, time=112),
    Message('control_change', channel=1, control=1, value=29, time=56),
    Message('control_change', channel=1, control=1, value=30, time=56),
    Message('control_change', channel=1, control=1, value=31, time=56),
    Message('control_change', channel=1, control=1, value=32, time=56),
    Message('control_change', channel=1, control=1, value=33, time=56),
    Message('control_change', channel=1, control=1, value=34, time=56),
    Message('control_change', channel=1, control=1, value=35, time=56),
    Message('control_change', channel=1, control=1, value=36, time=56),
    Message('control_change', channel=1, control=1, value=37, time=56),
    Message('control_change', channel=1, control=1, value=38, time=56),
    Message('control_change', channel=1, control=1, value=39, time=56),
    Message('control_change', channel=1, control=1, value=40, time=56),
    Message('control_change', channel=1, control=1, value=41, time=56),
    Message('control_change', channel=1, control=1, value=42, time=56),
    Message('control_change', channel=1, control=1, value=43, time=112),
    Message('control_change', channel=1, control=1, value=44, time=175),
    Message('control_change', channel=1, control=1, value=42, time=56),
    Message('control_change', channel=1, control=1, value=41, time=56),
    Message('control_change', channel=1, control=1, value=39, time=56),
    Message('control_change', channel=1, control=1, value=38, time=56),
    Message('control_change', channel=1, control=1, value=36, time=56),
    Message('control_change', channel=1, control=1, value=35, time=56),
    Message('control_change', channel=1, control=1, value=33, time=56),
    Message('control_change', channel=1, control=1, value=32, time=56),
    Message('control_change', channel=1, control=1, value=30, time=56),
    Message('control_change', channel=1, control=1, value=29, time=56),
    Message('control_change', channel=1, control=1, value=27, time=56),
    Message('control_change', channel=1, control=1, value=26, time=56),
    Message('control_change', channel=1, control=1, value=24, time=56),
    Message('control_change', channel=1, control=1, value=23, time=56),
    Message('control_change', channel=1, control=1, value=21, time=56),
    Message('control_change', channel=1, control=1, value=20, time=56),
    Message('control_change', channel=1, control=1, value=18, time=56),
    Message('control_change', channel=1, control=1, value=17, time=56),
    Message('control_change', channel=1, control=1, value=15, time=56),
    Message('control_change', channel=1, control=1, value=14, time=56),
    Message('control_change', channel=1, control=1, value=12, time=56),
    Message('control_change', channel=1, control=1, value=11, time=56),
    Message('control_change', channel=1, control=1, value=9, time=56),
    Message('control_change', channel=1, control=1, value=8, time=56),
    Message('control_change', channel=1, control=1, value=6, time=56),
    Message('control_change', channel=1, control=1, value=5, time=56),
    Message('control_change', channel=1, control=1, value=3, time=56),
    Message('control_change', channel=1, control=1, value=2, time=56),
    Message('note_off', channel=1, note=60, velocity=0, time=46),
    Message('note_off', channel=1, note=64, velocity=0, time=0),
    Message('control_change', channel=1, control=1, value=0, time=10),
    Message('note_off', channel=1, note=67, velocity=0, time=26),
    Message('control_change', channel=1, control=1, value=15, time=986),
    Message('control_change', channel=1, control=1, value=15, time=53),
    Message('note_on', channel=1, note=60, velocity=61, time=16),
    Message('note_on', channel=1, note=64, velocity=61, time=0),
    Message('note_on', channel=1, note=67, velocity=71, time=0),
    Message('control_change', channel=1, control=1, value=16, time=155),
    Message('control_change', channel=1, control=1, value=17, time=57),
    Message('control_change', channel=1, control=1, value=18, time=57),
    Message('control_change', channel=1, control=1, value=19, time=57),
    Message('control_change', channel=1, control=1, value=20, time=57),
    Message('control_change', channel=1, control=1, value=22, time=57),
    Message('control_change', channel=1, control=1, value=23, time=57),
    Message('control_change', channel=1, control=1, value=25, time=57),
    Message('control_change', channel=1, control=1, value=26, time=57),
    Message('control_change', channel=1, control=1, value=28, time=57),
    Message('control_change', channel=1, control=1, value=30, time=57),
    Message('control_change', channel=1, control=1, value=32, time=57),
    Message('control_change', channel=1, control=1, value=33, time=57),
    Message('control_change', channel=1, control=1, value=35, time=57),
    Message('control_change', channel=1, control=1, value=37, time=57),
    Message('control_change', channel=1, control=1, value=38, time=57),
    Message('control_change', channel=1, control=1, value=39, time=57),
    Message('control_change', channel=1, control=1, value=41, time=57),
    Message('control_change', channel=1, control=1, value=42, time=57),
    Message('control_change', channel=1, control=1, value=43, time=114),
    Message('control_change', channel=1, control=1, value=44, time=125),
    Message('control_change', channel=1, control=1, value=43, time=57),
    Message('control_change', channel=1, control=1, value=42, time=228),
    Message('control_change', channel=1, control=1, value=41, time=114),
    Message('control_change', channel=1, control=1, value=40, time=114),
    Message('control_change', channel=1, control=1, value=39, time=114),
    Message('control_change', channel=1, control=1, value=38, time=57),
    Message('control_change', channel=1, control=1, value=37, time=114),
    Message('control_change', channel=1, control=1, value=36, time=57),
    Message('control_change', channel=1, control=1, value=35, time=114),
    Message('control_change', channel=1, control=1, value=34, time=57),
    Message('control_change', channel=1, control=1, value=33, time=114),
    Message('control_change', channel=1, control=1, value=32, time=57),
    Message('control_change', channel=1, control=1, value=31, time=171),
    Message('note_off', channel=1, note=60, velocity=0, time=217),
    Message('note_off', channel=1, note=64, velocity=0, time=0),
    Message('note_off', channel=1, note=67, velocity=0, time=36),
    Message('control_change', channel=1, control=1, value=26, time=1039),
    Message('note_on', channel=1, note=60, velocity=61, time=16),
    Message('note_on', channel=1, note=64, velocity=61, time=0),
    Message('note_on', channel=1, note=67, velocity=71, time=0),
    Message('control_change', channel=1, control=1, value=27, time=208),
    Message('control_change', channel=1, control=1, value=28, time=112),
    Message('control_change', channel=1, control=1, value=29, time=56),
    Message('control_change', channel=1, control=1, value=30, time=56),
    Message('control_change', channel=1, control=1, value=31, time=56),
    Message('control_change', channel=1, control=1, value=32, time=56),
    Message('control_change', channel=1, control=1, value=33, time=56),
    Message('control_change', channel=1, control=1, value=34, time=56),
    Message('control_change', channel=1, control=1, value=35, time=56),
    Message('control_change', channel=1, control=1, value=36, time=56),
    Message('control_change', channel=1, control=1, value=37, time=56),
    Message('control_change', channel=1, control=1, value=38, time=56),
    Message('control_change', channel=1, control=1, value=39, time=56),
    Message('control_change', channel=1, control=1, value=40, time=56),
    Message('control_change', channel=1, control=1, value=41, time=56),
    Message('control_change', channel=1, control=1, value=42, time=56),
    Message('control_change', channel=1, control=1, value=43, time=112),
    Message('control_change', channel=1, control=1, value=44, time=175),
    Message('control_change', channel=1, control=1, value=42, time=56),
    Message('control_change', channel=1, control=1, value=41, time=56),
    Message('control_change', channel=1, control=1, value=39, time=56),
    Message('control_change', channel=1, control=1, value=38, time=56),
    Message('control_change', channel=1, control=1, value=36, time=56),
    Message('control_change', channel=1, control=1, value=35, time=56),
    Message('control_change', channel=1, control=1, value=33, time=56),
    Message('control_change', channel=1, control=1, value=32, time=56),
    Message('control_change', channel=1, control=1, value=30, time=56),
    Message('control_change', channel=1, control=1, value=29, time=56),
    Message('control_change', channel=1, control=1, value=27, time=56),
    Message('control_change', channel=1, control=1, value=26, time=56),
    Message('control_change', channel=1, control=1, value=24, time=56),
    Message('control_change', channel=1, control=1, value=23, time=56),
    Message('control_change', channel=1, control=1, value=21, time=56),
    Message('control_change', channel=1, control=1, value=20, time=56),
    Message('control_change', channel=1, control=1, value=18, time=56),
    Message('control_change', channel=1, control=1, value=17, time=56),
    Message('control_change', channel=1, control=1, value=15, time=56),
    Message('control_change', channel=1, control=1, value=14, time=56),
    Message('control_change', channel=1, control=1, value=12, time=56),
    Message('control_change', channel=1, control=1, value=11, time=56),
    Message('control_change', channel=1, control=1, value=9, time=56),
    Message('control_change', channel=1, control=1, value=8, time=56),
    Message('control_change', channel=1, control=1, value=6, time=56),
    Message('control_change', channel=1, control=1, value=5, time=56),
    Message('control_change', channel=1, control=1, value=3, time=56),
    Message('control_change', channel=1, control=1, value=2, time=56),
    Message('note_off', channel=1, note=60, velocity=0, time=46),
    Message('note_off', channel=1, note=64, velocity=0, time=0),
    Message('note_off', channel=1, note=67, velocity=0, time=0),
    Message('control_change', channel=1, control=1, value=0, time=10),
    Message('control_change', channel=1, control=1, value=31, time=16884),
    Message('note_on', channel=1, note=57, velocity=80, time=73),
    Message('note_off', channel=1, note=57, velocity=0, time=471),
    Message('control_change', channel=1, control=1, value=31, time=21),
    Message('note_on', channel=1, note=62, velocity=73, time=16),
    Message('note_on', channel=1, note=65, velocity=87, time=0),
    Message('note_off', channel=1, note=62, velocity=0, time=468),
    Message('note_off', channel=1, note=65, velocity=0, time=36),
    Message('note_on', channel=1, note=57, velocity=80, time=1),
    Message('note_off', channel=1, note=57, velocity=0, time=473),
    Message('note_on', channel=1, note=62, velocity=75, time=37),
    Message('note_on', channel=1, note=65, velocity=89, time=0),
    Message('note_off', channel=1, note=62, velocity=0, time=473),
    Message('note_off', channel=1, note=65, velocity=0, time=36),
    Message('note_on', channel=1, note=57, velocity=80, time=1),
    Message('note_off', channel=1, note=57, velocity=0, time=468),
    Message('note_on', channel=1, note=62, velocity=73, time=37),
    Message('note_on', channel=1, note=65, velocity=87, time=0),
    Message('note_off', channel=1, note=62, velocity=0, time=468),
    Message('note_off', channel=1, note=65, velocity=0, time=36),
    Message('note_on', channel=1, note=57, velocity=80, time=1),
    Message('note_off', channel=1, note=57, velocity=0, time=470),
    Message('note_on', channel=1, note=57, velocity=80, time=583),
    Message('note_off', channel=1, note=57, velocity=0, time=471),
    Message('note_on', channel=1, note=60, velocity=73, time=37),
    Message('note_on', channel=1, note=64, velocity=87, time=0),
    Message('note_off', channel=1, note=60, velocity=0, time=468),
    Message('note_off', channel=1, note=64, velocity=0, time=36),
    Message('note_on', channel=1, note=57, velocity=80, time=1),
    Message('note_off', channel=1, note=57, velocity=0, time=473),
    Message('note_on', channel=1, note=60, velocity=75, time=37),
    Message('note_on', channel=1, note=64, velocity=89, time=0),
    Message('note_off', channel=1, note=60, velocity=0, time=473),
    Message('note_off', channel=1, note=64, velocity=0, time=36),
    Message('note_on', channel=1, note=57, velocity=80, time=1),
    Message('note_off', channel=1, note=57, velocity=0, time=468),
    Message('note_on', channel=1, note=60, velocity=73, time=37),
    Message('note_on', channel=1, note=64, velocity=87, time=0),
    Message('note_off', channel=1, note=60, velocity=0, time=468),
    Message('note_off', channel=1, note=64, velocity=0, time=36),
    Message('note_on', channel=1, note=57, velocity=80, time=1),
    Message('note_off', channel=1, note=57, velocity=0, time=470),
    Message('note_on', channel=1, note=58, velocity=80, time=583),
    Message('note_off', channel=1, note=58, velocity=0, time=471),
    Message('note_on', channel=1, note=62, velocity=73, time=37),
    Message('note_on', channel=1, note=65, velocity=87, time=0),
    Message('note_off', channel=1, note=62, velocity=0, time=468),
    Message('note_off', channel=1, note=65, velocity=0, time=36),
    Message('note_on', channel=1, note=58, velocity=80, time=1),
    Message('note_off', channel=1, note=58, velocity=0, time=473),
    Message('note_on', channel=1, note=62, velocity=75, time=37),
    Message('note_on', channel=1, note=65, velocity=89, time=0),
    Message('note_off', channel=1, note=62, velocity=0, time=473),
    Message('note_off', channel=1, note=65, velocity=0, time=36),
    Message('note_on', channel=1, note=58, velocity=80, time=1),
    Message('note_off', channel=1, note=58, velocity=0, time=468),
    Message('note_on', channel=1, note=62, velocity=73, time=37),
    Message('note_on', channel=1, note=65, velocity=87, time=0),
    Message('note_off', channel=1, note=62, velocity=0, time=468),
    Message('note_off', channel=1, note=65, velocity=0, time=36),
    Message('note_on', channel=1, note=58, velocity=80, time=1),
    Message('note_off', channel=1, note=58, velocity=0, time=470),
    Message('note_on', channel=1, note=52, velocity=80, time=583),
    Message('note_off', channel=1, note=52, velocity=0, time=471),
    Message('note_on', channel=1, note=57, velocity=73, time=37),
    Message('note_on', channel=1, note=62, velocity=87, time=0),
    Message('note_off', channel=1, note=57, velocity=0, time=468),
    Message('note_off', channel=1, note=62, velocity=0, time=36),
    Message('note_on', channel=1, note=64, velocity=80, time=1),
    Message('note_off', channel=1, note=64, velocity=0, time=473),
    Message('note_on', channel=1, note=52, velocity=80, time=547),
    Message('note_off', channel=1, note=52, velocity=0, time=470),
    Message('note_on', channel=1, note=57, velocity=73, time=35),
    Message('note_on', channel=1, note=61, velocity=87, time=0),
    Message('note_off', channel=1, note=57, velocity=0, time=474),
    Message('note_off', channel=1, note=61, velocity=0, time=30),
    Message('note_on', channel=1, note=64, velocity=80, time=1),
    Message('note_off', channel=1, note=64, velocity=0, time=479),
    Message('control_change', channel=1, control=1, value=15, time=1013),
    Message('control_change', channel=1, control=1, value=15, time=49),
    Message('note_on', channel=1, note=62, velocity=61, time=16),
    Message('note_on', channel=1, note=65, velocity=61, time=0),
    Message('note_on', channel=1, note=69, velocity=75, time=0),
    Message('control_change', channel=1, control=1, value=16, time=152),
    Message('control_change', channel=1, control=1, value=18, time=56),
    Message('control_change', channel=1, control=1, value=19, time=56),
    Message('control_change', channel=1, control=1, value=21, time=56),
    Message('control_change', channel=1, control=1, value=23, time=56),
    Message('control_change', channel=1, control=1, value=25, time=56),
    Message('control_change', channel=1, control=1, value=27, time=56),
    Message('control_change', channel=1, control=1, value=29, time=56),
    Message('control_change', channel=1, control=1, value=31, time=56),
    Message('control_change', channel=1, control=1, value=33, time=56),
    Message('control_change', channel=1, control=1, value=35, time=56),
    Message('control_change', channel=1, control=1, value=37, time=56),
    Message('control_change', channel=1, control=1, value=38, time=56),
    Message('control_change', channel=1, control=1, value=39, time=56),
    Message('control_change', channel=1, control=1, value=40, time=120),
    Message('control_change', channel=1, control=1, value=39, time=58),
    Message('control_change', channel=1, control=1, value=38, time=174),
    Message('control_change', channel=1, control=1, value=37, time=116),
    Message('control_change', channel=1, control=1, value=36, time=58),
    Message('control_change', channel=1, control=1, value=35, time=58),
    Message('control_change', channel=1, control=1, value=34, time=116),
    Message('control_change', channel=1, control=1, value=33, time=58),
    Message('control_change', channel=1, control=1, value=32, time=58),
    Message('control_change', channel=1, control=1, value=31, time=116),
    Message('note_off', channel=1, note=62, velocity=0, time=173),
    Message('note_off', channel=1, note=65, velocity=0, time=0),
    Message('note_off', channel=1, note=69, velocity=0, time=36),
    Message('note_on', channel=1, note=53, velocity=73, time=1051),
    Message('note_on', channel=1, note=57, velocity=73, time=0),
    Message('note_on', channel=1, note=62, velocity=87, time=0),
    Message('note_off', channel=1, note=57, velocity=0, time=926),
    Message('note_off', channel=1, note=62, velocity=0, time=0),
    Message('note_off', channel=1, note=53, velocity=0, time=53),
    Message('note_on', channel=1, note=57, velocity=75, time=37),
    Message('note_on', channel=1, note=62, velocity=75, time=0),
    Message('note_on', channel=1, note=65, velocity=89, time=0),
    Message('note_off', channel=1, note=57, velocity=0, time=969),
    Message('note_off', channel=1, note=62, velocity=0, time=0),
    Message('note_off', channel=1, note=65, velocity=0, time=36),
    Message('control_change', channel=1, control=1, value=15, time=986),
    Message('control_change', channel=1, control=1, value=15, time=49),
    Message('note_on', channel=1, note=57, velocity=61, time=16),
    Message('note_on', channel=1, note=60, velocity=61, time=0),
    Message('note_on', channel=1, note=64, velocity=75, time=0),
    Message('control_change', channel=1, control=1, value=16, time=152),
    Message('control_change', channel=1, control=1, value=18, time=56),
    Message('control_change', channel=1, control=1, value=19, time=56),
    Message('control_change', channel=1, control=1, value=21, time=56),
    Message('control_change', channel=1, control=1, value=23, time=56),
    Message('control_change', channel=1, control=1, value=25, time=56),
    Message('control_change', channel=1, control=1, value=27, time=56),
    Message('control_change', channel=1, control=1, value=29, time=56),
    Message('control_change', channel=1, control=1, value=31, time=56),
    Message('control_change', channel=1, control=1, value=33, time=56),
    Message('control_change', channel=1, control=1, value=35, time=56),
    Message('control_change', channel=1, control=1, value=37, time=56),
    Message('control_change', channel=1, control=1, value=38, time=56),
    Message('control_change', channel=1, control=1, value=39, time=56),
    Message('control_change', channel=1, control=1, value=40, time=120),
    Message('control_change', channel=1, control=1, value=39, time=58),
    Message('control_change', channel=1, control=1, value=38, time=174),
    Message('control_change', channel=1, control=1, value=37, time=116),
    Message('control_change', channel=1, control=1, value=36, time=58),
    Message('control_change', channel=1, control=1, value=35, time=58),
    Message('control_change', channel=1, control=1, value=34, time=116),
    Message('control_change', channel=1, control=1, value=33, time=58),
    Message('control_change', channel=1, control=1, value=32, time=58),
    Message('control_change', channel=1, control=1, value=31, time=116),
    Message('note_off', channel=1, note=57, velocity=0, time=173),
    Message('note_off', channel=1, note=60, velocity=0, time=0),
    Message('note_off', channel=1, note=64, velocity=0, time=36),
    Message('note_on', channel=1, note=59, velocity=73, time=1051),
    Message('note_on', channel=1, note=60, velocity=73, time=0),
    Message('note_on', channel=1, note=64, velocity=73, time=0),
    Message('note_on', channel=1, note=67, velocity=87, time=0),
    Message('note_off', channel=1, note=60, velocity=0, time=926),
    Message('note_off', channel=1, note=64, velocity=0, time=0),
    Message('note_off', channel=1, note=59, velocity=0, time=53),
    Message('note_off', channel=1, note=67, velocity=0, time=36),
    Message('note_on', channel=1, note=55, velocity=75, time=1),
    Message('note_on', channel=1, note=57, velocity=75, time=0),
    Message('note_on', channel=1, note=60, velocity=75, time=0),
    Message('note_on', channel=1, note=64, velocity=89, time=0),
    Message('note_off', channel=1, note=55, velocity=0, time=969),
    Message('note_off', channel=1, note=57, velocity=0, time=0),
    Message('note_off', channel=1, note=60, velocity=0, time=0),
    Message('note_off', channel=1, note=64, velocity=0, time=36),
    Message('control_change', channel=1, control=1, value=15, time=986),
    Message('control_change', channel=1, control=1, value=15, time=49),
    Message('note_on', channel=1, note=62, velocity=61, time=16),
    Message('note_on', channel=1, note=65, velocity=61, time=0),
    Message('note_on', channel=1, note=69, velocity=75, time=0),
    Message('control_change', channel=1, control=1, value=16, time=152),
    Message('control_change', channel=1, control=1, value=18, time=56),
    Message('control_change', channel=1, control=1, value=19, time=56),
    Message('control_change', channel=1, control=1, value=21, time=56),
    Message('control_change', channel=1, control=1, value=23, time=56),
    Message('control_change', channel=1, control=1, value=25, time=56),
    Message('control_change', channel=1, control=1, value=27, time=56),
    Message('control_change', channel=1, control=1, value=29, time=56),
    Message('control_change', channel=1, control=1, value=31, time=56),
    Message('control_change', channel=1, control=1, value=33, time=56),
    Message('control_change', channel=1, control=1, value=35, time=56),
    Message('control_change', channel=1, control=1, value=37, time=56),
    Message('control_change', channel=1, control=1, value=38, time=56),
    Message('control_change', channel=1, control=1, value=39, time=56),
    Message('control_change', channel=1, control=1, value=40, time=120),
    Message('control_change', channel=1, control=1, value=39, time=58),
    Message('control_change', channel=1, control=1, value=38, time=174),
    Message('control_change', channel=1, control=1, value=37, time=116),
    Message('control_change', channel=1, control=1, value=36, time=58),
    Message('control_change', channel=1, control=1, value=35, time=58),
    Message('control_change', channel=1, control=1, value=34, time=116),
    Message('control_change', channel=1, control=1, value=33, time=58),
    Message('control_change', channel=1, control=1, value=32, time=58),
    Message('control_change', channel=1, control=1, value=31, time=116),
    Message('note_off', channel=1, note=62, velocity=0, time=173),
    Message('note_off', channel=1, note=65, velocity=0, time=0),
    Message('note_off', channel=1, note=69, velocity=0, time=36),
    Message('note_on', channel=1, note=53, velocity=73, time=1051),
    Message('note_on', channel=1, note=57, velocity=73, time=0),
    Message('note_on', channel=1, note=62, velocity=87, time=0),
    Message('note_off', channel=1, note=57, velocity=0, time=926),
    Message('note_off', channel=1, note=62, velocity=0, time=0),
    Message('note_off', channel=1, note=53, velocity=0, time=53),
    Message('note_on', channel=1, note=57, velocity=75, time=37),
    Message('note_on', channel=1, note=62, velocity=75, time=0),
    Message('note_on', channel=1, note=65, velocity=89, time=0),
    Message('note_off', channel=1, note=57, velocity=0, time=969),
    Message('note_off', channel=1, note=62, velocity=0, time=0),
    Message('note_off', channel=1, note=65, velocity=0, time=36),
    Message('control_change', channel=1, control=1, value=15, time=986),
    Message('control_change', channel=1, control=1, value=15, time=49),
    Message('note_on', channel=1, note=57, velocity=61, time=16),
    Message('note_on', channel=1, note=60, velocity=61, time=0),
    Message('note_on', channel=1, note=64, velocity=75, time=0),
    Message('control_change', channel=1, control=1, value=16, time=152),
    Message('control_change', channel=1, control=1, value=18, time=56),
    Message('control_change', channel=1, control=1, value=19, time=56),
    Message('control_change', channel=1, control=1, value=21, time=56),
    Message('control_change', channel=1, control=1, value=23, time=56),
    Message('control_change', channel=1, control=1, value=25, time=56),
    Message('control_change', channel=1, control=1, value=27, time=56),
    Message('control_change', channel=1, control=1, value=29, time=56),
    Message('control_change', channel=1, control=1, value=31, time=56),
    Message('control_change', channel=1, control=1, value=33, time=56),
    Message('control_change', channel=1, control=1, value=35, time=56),
    Message('control_change', channel=1, control=1, value=37, time=56),
    Message('control_change', channel=1, control=1, value=38, time=56),
    Message('control_change', channel=1, control=1, value=39, time=56),
    Message('control_change', channel=1, control=1, value=40, time=120),
    Message('control_change', channel=1, control=1, value=39, time=58),
    Message('control_change', channel=1, control=1, value=38, time=174),
    Message('control_change', channel=1, control=1, value=37, time=116),
    Message('control_change', channel=1, control=1, value=36, time=58),
    Message('control_change', channel=1, control=1, value=35, time=58),
    Message('control_change', channel=1, control=1, value=34, time=116),
    Message('control_change', channel=1, control=1, value=33, time=58),
    Message('control_change', channel=1, control=1, value=32, time=58),
    Message('control_change', channel=1, control=1, value=31, time=116),
    Message('note_off', channel=1, note=57, velocity=0, time=173),
    Message('note_off', channel=1, note=60, velocity=0, time=0),
    Message('note_off', channel=1, note=64, velocity=0, time=36),
    Message('note_on', channel=1, note=62, velocity=85, time=5),
    Message('note_off', channel=1, note=62, velocity=0, time=503),
    Message('note_on', channel=1, note=69, velocity=80, time=37),
    Message('note_off', channel=1, note=69, velocity=0, time=471),
    Message('note_on', channel=1, note=74, velocity=81, time=35),
    Message('note_off', channel=1, note=74, velocity=0, time=476),
    Message('note_on', channel=1, note=76, velocity=80, time=33),
    Message('note_off', channel=1, note=76, velocity=0, time=475),
    Message('note_on', channel=1, note=77, velocity=83, time=32),
    Message('note_off', channel=1, note=77, velocity=0, time=471),
    Message('note_on', channel=1, note=81, velocity=80, time=30),
    Message('note_off', channel=1, note=81, velocity=0, time=477),
    Message('control_change', channel=1, control=1, value=15, time=1013),
    Message('control_change', channel=1, control=1, value=15, time=49),
    Message('note_on', channel=1, note=62, velocity=61, time=16),
    Message('note_on', channel=1, note=65, velocity=61, time=0),
    Message('note_on', channel=1, note=69, velocity=75, time=0),
    Message('control_change', channel=1, control=1, value=16, time=152),
    Message('control_change', channel=1, control=1, value=18, time=56),
    Message('control_change', channel=1, control=1, value=19, time=56),
    Message('control_change', channel=1, control=1, value=21, time=56),
    Message('control_change', channel=1, control=1, value=23, time=56),
    Message('control_change', channel=1, control=1, value=25, time=56),
    Message('control_change', channel=1, control=1, value=27, time=56),
    Message('control_change', channel=1, control=1, value=29, time=56),
    Message('control_change', channel=1, control=1, value=31, time=56),
    Message('control_change', channel=1, control=1, value=33, time=56),
    Message('control_change', channel=1, control=1, value=35, time=56),
    Message('control_change', channel=1, control=1, value=37, time=56),
    Message('control_change', channel=1, control=1, value=38, time=56),
    Message('control_change', channel=1, control=1, value=39, time=56),
    Message('control_change', channel=1, control=1, value=40, time=120),
    Message('control_change', channel=1, control=1, value=39, time=58),
    Message('control_change', channel=1, control=1, value=38, time=174),
    Message('control_change', channel=1, control=1, value=37, time=116),
    Message('control_change', channel=1, control=1, value=36, time=58),
    Message('control_change', channel=1, control=1, value=35, time=58),
    Message('control_change', channel=1, control=1, value=34, time=116),
    Message('control_change', channel=1, control=1, value=33, time=58),
    Message('control_change', channel=1, control=1, value=32, time=58),
    Message('control_change', channel=1, control=1, value=31, time=116),
    Message('note_off', channel=1, note=62, velocity=0, time=173),
    Message('note_off', channel=1, note=65, velocity=0, time=0),
    Message('note_off', channel=1, note=69, velocity=0, time=36),
    Message('note_on', channel=1, note=53, velocity=73, time=1051),
    Message('note_on', channel=1, note=57, velocity=73, time=0),
    Message('note_on', channel=1, note=62, velocity=87, time=0),
    Message('note_off', channel=1, note=57, velocity=0, time=926),
    Message('note_off', channel=1, note=62, velocity=0, time=0),
    Message('note_off', channel=1, note=53, velocity=0, time=53),
    Message('note_on', channel=1, note=57, velocity=75, time=37),
    Message('note_on', channel=1, note=62, velocity=75, time=0),
    Message('note_on', channel=1, note=65, velocity=89, time=0),
    Message('note_off', channel=1, note=57, velocity=0, time=969),
    Message('note_off', channel=1, note=62, velocity=0, time=0),
    Message('note_off', channel=1, note=65, velocity=0, time=36),
    Message('control_change', channel=1, control=1, value=15, time=986),
    Message('control_change', channel=1, control=1, value=15, time=49),
    Message('note_on', channel=1, note=57, velocity=61, time=16),
    Message('note_on', channel=1, note=60, velocity=61, time=0),
    Message('note_on', channel=1, note=64, velocity=75, time=0),
    Message('control_change', channel=1, control=1, value=16, time=152),
    Message('control_change', channel=1, control=1, value=18, time=56),
    Message('control_change', channel=1, control=1, value=19, time=56),
    Message('control_change', channel=1, control=1, value=21, time=56),
    Message('control_change', channel=1, control=1, value=23, time=56),
    Message('control_change', channel=1, control=1, value=25, time=56),
    Message('control_change', channel=1, control=1, value=27, time=56),
    Message('control_change', channel=1, control=1, value=29, time=56),
    Message('control_change', channel=1, control=1, value=31, time=56),
    Message('control_change', channel=1, control=1, value=33, time=56),
    Message('control_change', channel=1, control=1, value=35, time=56),
    Message('control_change', channel=1, control=1, value=37, time=56),
    Message('control_change', channel=1, control=1, value=38, time=56),
    Message('control_change', channel=1, control=1, value=39, time=56),
    Message('control_change', channel=1, control=1, value=40, time=120),
    Message('control_change', channel=1, control=1, value=39, time=58),
    Message('control_change', channel=1, control=1, value=38, time=174),
    Message('control_change', channel=1, control=1, value=37, time=116),
    Message('control_change', channel=1, control=1, value=36, time=58),
    Message('control_change', channel=1, control=1, value=35, time=58),
    Message('control_change', channel=1, control=1, value=34, time=116),
    Message('control_change', channel=1, control=1, value=33, time=58),
    Message('control_change', channel=1, control=1, value=32, time=58),
    Message('control_change', channel=1, control=1, value=31, time=116),
    Message('note_off', channel=1, note=57, velocity=0, time=173),
    Message('note_off', channel=1, note=60, velocity=0, time=0),
    Message('note_off', channel=1, note=64, velocity=0, time=36),
    Message('note_on', channel=1, note=59, velocity=73, time=1051),
    Message('note_on', channel=1, note=60, velocity=73, time=0),
    Message('note_on', channel=1, note=64, velocity=73, time=0),
    Message('note_on', channel=1, note=67, velocity=87, time=0),
    Message('note_off', channel=1, note=60, velocity=0, time=926),
    Message('note_off', channel=1, note=64, velocity=0, time=0),
    Message('note_off', channel=1, note=59, velocity=0, time=53),
    Message('note_off', channel=1, note=67, velocity=0, time=36),
    Message('note_on', channel=1, note=55, velocity=75, time=1),
    Message('note_on', channel=1, note=57, velocity=75, time=0),
    Message('note_on', channel=1, note=60, velocity=75, time=0),
    Message('note_on', channel=1, note=64, velocity=89, time=0),
    Message('note_off', channel=1, note=55, velocity=0, time=969),
    Message('note_off', channel=1, note=57, velocity=0, time=0),
    Message('note_off', channel=1, note=60, velocity=0, time=0),
    Message('note_off', channel=1, note=64, velocity=0, time=36),
    Message('control_change', channel=1, control=1, value=15, time=986),
    Message('control_change', channel=1, control=1, value=15, time=49),
    Message('note_on', channel=1, note=56, velocity=61, time=16),
    Message('note_on', channel=1, note=59, velocity=61, time=0),
    Message('note_on', channel=1, note=65, velocity=75, time=0),
    Message('control_change', channel=1, control=1, value=16, time=152),
    Message('control_change', channel=1, control=1, value=18, time=56),
    Message('control_change', channel=1, control=1, value=19, time=56),
    Message('control_change', channel=1, control=1, value=21, time=56),
    Message('control_change', channel=1, control=1, value=23, time=56),
    Message('control_change', channel=1, control=1, value=25, time=56),
    Message('control_change', channel=1, control=1, value=27, time=56),
    Message('control_change', channel=1, control=1, value=29, time=56),
    Message('control_change', channel=1, control=1, value=31, time=56),
    Message('control_change', channel=1, control=1, value=33, time=56),
    Message('control_change', channel=1, control=1, value=35, time=56),
    Message('control_change', channel=1, control=1, value=37, time=56),
    Message('control_change', channel=1, control=1, value=38, time=56),
    Message('control_change', channel=1, control=1, value=39, time=56),
    Message('control_change', channel=1, control=1, value=40, time=120),
    Message('control_change', channel=1, control=1, value=39, time=58),
    Message('control_change', channel=1, control=1, value=38, time=174),
    Message('control_change', channel=1, control=1, value=37, time=116),
    Message('control_change', channel=1, control=1, value=36, time=58),
    Message('control_change', channel=1, control=1, value=35, time=58),
    Message('control_change', channel=1, control=1, value=34, time=116),
    Message('control_change', channel=1, control=1, value=33, time=58),
    Message('control_change', channel=1, control=1, value=32, time=58),
    Message('control_change', channel=1, control=1, value=31, time=116),
    Message('note_off', channel=1, note=56, velocity=0, time=173),
    Message('note_off', channel=1, note=59, velocity=0, time=0),
    Message('note_off', channel=1, note=65, velocity=0, time=36),
    Message('control_change', channel=1, control=1, value=26, time=1035),
    Message('note_on', channel=1, note=56, velocity=61, time=16),
    Message('note_on', channel=1, note=59, velocity=61, time=0),
    Message('note_on', channel=1, note=65, velocity=75, time=0),
    Message('control_change', channel=1, control=1, value=27, time=152),
    Message('control_change', channel=1, control=1, value=28, time=112),
    Message('control_change', channel=1, control=1, value=29, time=56),
    Message('control_change', channel=1, control=1, value=30, time=56),
    Message('control_change', channel=1, control=1, value=31, time=56),
    Message('control_change', channel=1, control=1, value=33, time=56),
    Message('control_change', channel=1, control=1, value=34, time=56),
    Message('control_change', channel=1, control=1, value=35, time=56),
    Message('control_change', channel=1, control=1, value=36, time=56),
    Message('control_change', channel=1, control=1, value=37, time=56),
    Message('control_change', channel=1, control=1, value=38, time=56),
    Message('control_change', channel=1, control=1, value=39, time=56),
    Message('control_change', channel=1, control=1, value=40, time=176),
    Message('control_change', channel=1, control=1, value=37, time=58),
    Message('control_change', channel=1, control=1, value=35, time=58),
    Message('control_change', channel=1, control=1, value=33, time=58),
    Message('control_change', channel=1, control=1, value=30, time=58),
    Message('control_change', channel=1, control=1, value=28, time=58),
    Message('control_change', channel=1, control=1, value=26, time=58),
    Message('control_change', channel=1, control=1, value=23, time=58),
    Message('control_change', channel=1, control=1, value=21, time=58),
    Message('control_change', channel=1, control=1, value=19, time=58),
    Message('control_change', channel=1, control=1, value=17, time=58),
    Message('control_change', channel=1, control=1, value=14, time=58),
    Message('control_change', channel=1, control=1, value=12, time=58),
    Message('control_change', channel=1, control=1, value=10, time=58),
    Message('control_change', channel=1, control=1, value=7, time=58),
    Message('control_change', channel=1, control=1, value=5, time=58),
    Message('control_change', channel=1, control=1, value=3, time=58),
    Message('note_off', channel=1, note=56, velocity=0, time=57),
    Message('note_off', channel=1, note=59, velocity=0, time=0),
    Message('control_change', channel=1, control=1, value=1, time=1),
    Message('note_off', channel=1, note=65, velocity=0, time=35),
    Message('control_change', channel=1, control=1, value=15, time=987),
    Message('control_change', channel=1, control=1, value=15, time=49),
    Message('note_on', channel=1, note=53, velocity=61, time=15),
    Message('note_on', channel=1, note=58, velocity=61, time=0),
    Message('note_on', channel=1, note=60, velocity=75, time=0),
    Message('control_change', channel=1, control=1, value=16, time=144),
    Message('control_change', channel=1, control=1, value=17, time=53),
    Message('control_change', channel=1, control=1, value=19, time=53),
    Message('control_change', channel=1, control=1, value=20, time=53),
    Message('control_change', channel=1, control=1, value=22, time=53),
    Message('control_change', channel=1, control=1, value=24, time=53),
    Message('control_change', channel=1, control=1, value=26, time=53),
    Message('control_change', channel=1, control=1, value=28, time=53),
    Message('control_change', channel=1, control=1, value=30, time=53),
    Message('control_change', channel=1, control=1, value=32, time=53),
    Message('control_change', channel=1, control=1, value=34, time=53),
    Message('control_change', channel=1, control=1, value=35, time=54),
    Message('control_change', channel=1, control=1, value=37, time=53),
    Message('control_change', channel=1, control=1, value=38, time=53),
    Message('control_change', channel=1, control=1, value=39, time=53),
    Message('control_change', channel=1, control=1, value=40, time=115),
    Message('control_change', channel=1, control=1, value=38, time=49),
    Message('control_change', channel=1, control=1, value=36, time=49),
    Message('control_change', channel=1, control=1, value=34, time=49),
    Message('control_change', channel=1, control=1, value=32, time=49),
    Message('control_change', channel=1, control=1, value=30, time=49),
    Message('control_change', channel=1, control=1, value=28, time=49),
    Message('control_change', channel=1, control=1, value=26, time=49),
    Message('control_change', channel=1, control=1, value=24, time=49),
    Message('control_change', channel=1, control=1, value=22, time=49),
    Message('control_change', channel=1, control=1, value=20, time=49),
    Message('control_change', channel=1, control=1, value=18, time=49),
    Message('control_change', channel=1, control=1, value=16, time=49),
    Message('control_change', channel=1, control=1, value=14, time=49),
    Message('control_change', channel=1, control=1, value=12, time=49),
    Message('control_change', channel=1, control=1, value=10, time=49),
    Message('control_change', channel=1, control=1, value=8, time=49),
    Message('control_change', channel=1, control=1, value=7, time=49),
    Message('control_change', channel=1, control=1, value=5, time=49),
    Message('control_change', channel=1, control=1, value=3, time=49),
    Message('control_change', channel=1, control=1, value=1, time=49),
    Message('note_off', channel=1, note=53, velocity=0, time=5),
    Message('note_off', channel=1, note=58, velocity=0, time=0),
    Message('note_off', channel=1, note=60, velocity=0, time=34),
    Message('control_change', channel=1, control=1, value=31, time=2014),
    Message('note_on', channel=1, note=65, velocity=75, time=53),
    Message('note_on', channel=1, note=70, velocity=89, time=0),
    Message('note_off', channel=1, note=65, velocity=0, time=978),
    Message('control_change', channel=1, control=1, value=31, time=22),
    Message('note_off', channel=1, note=70, velocity=0, time=5),
    Message('note_on', channel=1, note=62, velocity=61, time=5),
    Message('note_on', channel=1, note=67, velocity=75, time=0),
    Message('control_change', channel=1, control=1, value=32, time=242),
    Message('control_change', channel=1, control=1, value=33, time=108),
    Message('control_change', channel=1, control=1, value=34, time=108),
    Message('control_change', channel=1, control=1, value=35, time=72),
    Message('control_change', channel=1, control=1, value=36, time=72),
    Message('control_change', channel=1, control=1, value=37, time=72),
    Message('control_change', channel=1, control=1, value=38, time=72),
    Message('control_change', channel=1, control=1, value=39, time=72),
    Message('control_change', channel=1, control=1, value=40, time=72),
    Message('control_change', channel=1, control=1, value=41, time=72),
    Message('control_change', channel=1, control=1, value=42, time=72),
    Message('control_change', channel=1, control=1, value=43, time=108),
    Message('control_change', channel=1, control=1, value=44, time=108),
    Message('control_change', channel=1, control=1, value=45, time=235),
    Message('control_change', channel=1, control=1, value=43, time=36),
    Message('control_change', channel=1, control=1, value=42, time=36),
    Message('control_change', channel=1, control=1, value=41, time=36),
    Message('control_change', channel=1, control=1, value=40, time=36),
    Message('control_change', channel=1, control=1, value=39, time=36),
    Message('control_change', channel=1, control=1, value=38, time=36),
    Message('control_change', channel=1, control=1, value=37, time=36),
    Message('control_change', channel=1, control=1, value=36, time=36),
    Message('control_change', channel=1, control=1, value=35, time=36),
    Message('control_change', channel=1, control=1, value=34, time=36),
    Message('control_change', channel=1, control=1, value=33, time=36),
    Message('control_change', channel=1, control=1, value=32, time=36),
    Message('control_change', channel=1, control=1, value=31, time=36),
    Message('control_change', channel=1, control=1, value=30, time=36),
    Message('control_change', channel=1, control=1, value=29, time=36),
    Message('control_change', channel=1, control=1, value=28, time=36),
    Message('control_change', channel=1, control=1, value=27, time=36),
    Message('control_change', channel=1, control=1, value=26, time=36),
    Message('control_change', channel=1, control=1, value=25, time=36),
    Message('control_change', channel=1, control=1, value=24, time=36),
    Message('control_change', channel=1, control=1, value=23, time=36),
    Message('control_change', channel=1, control=1, value=22, time=36),
    Message('control_change', channel=1, control=1, value=21, time=36),
    Message('control_change', channel=1, control=1, value=20, time=36),
    Message('control_change', channel=1, control=1, value=19, time=36),
    Message('control_change', channel=1, control=1, value=18, time=36),
    Message('control_change', channel=1, control=1, value=17, time=36),
    Message('control_change', channel=1, control=1, value=16, time=36),
    Message('control_change', channel=1, control=1, value=15, time=36),
    Message('control_change', channel=1, control=1, value=14, time=36),
    Message('control_change', channel=1, control=1, value=13, time=36),
    Message('control_change', channel=1, control=1, value=12, time=36),
    Message('control_change', channel=1, control=1, value=11, time=36),
    Message('control_change', channel=1, control=1, value=10, time=36),
    Message('control_change', channel=1, control=1, value=9, time=36),
    Message('note_off', channel=1, note=62, velocity=0, time=16),
    Message('note_off', channel=1, note=67, velocity=0, time=0),
    Message('control_change', channel=1, control=1, value=8, time=20),
    Message('control_change', channel=1, control=1, value=7, time=36),
    Message('control_change', channel=1, control=1, value=6, time=36),
    Message('control_change', channel=1, control=1, value=5, time=36),
    Message('control_change', channel=1, control=1, value=4, time=36),
    Message('control_change', channel=1, control=1, value=3, time=36),
    Message('control_change', channel=1, control=1, value=2, time=36),
    Message('control_change', channel=1, control=1, value=1, time=36),
    MetaMessage('end_of_track', time=34)]),
  MidiTrack([
    MetaMessage('device_name', name='Launchkey Mini MK3', time=0),
    MetaMessage('track_name', name='Bass Clarinet', time=0),
    Message('program_change', channel=2, program=0, time=0),
    Message('control_change', channel=2, control=7, value=101, time=0),
    Message('control_change', channel=2, control=10, value=49, time=0),
    Message('control_change', channel=2, control=7, value=63, time=0),
    Message('note_on', channel=0, note=0, velocity=64, time=3),
    Message('control_change', channel=2, control=1, value=15, time=7),
    Message('note_on', channel=2, note=50, velocity=69, time=0),
    Message('note_off', channel=0, note=0, velocity=64, time=17),
    Message('control_change', channel=2, control=1, value=16, time=207),
    Message('control_change', channel=2, control=1, value=17, time=112),
    Message('control_change', channel=2, control=1, value=18, time=56),
    Message('control_change', channel=2, control=1, value=19, time=56),
    Message('control_change', channel=2, control=1, value=20, time=40),
    Message('control_change', channel=2, control=1, value=21, time=56),
    Message('control_change', channel=2, control=1, value=22, time=56),
    Message('control_change', channel=2, control=1, value=24, time=56),
    Message('control_change', channel=2, control=1, value=25, time=56),
    Message('control_change', channel=2, control=1, value=26, time=56),
    Message('control_change', channel=2, control=1, value=28, time=56),
    Message('control_change', channel=2, control=1, value=29, time=56),
    Message('control_change', channel=2, control=1, value=30, time=56),
    Message('control_change', channel=2, control=1, value=32, time=56),
    Message('control_change', channel=2, control=1, value=33, time=56),
    Message('control_change', channel=2, control=1, value=34, time=56),
    Message('control_change', channel=2, control=1, value=36, time=56),
    Message('control_change', channel=2, control=1, value=37, time=56),
    Message('control_change', channel=2, control=1, value=38, time=56),
    Message('control_change', channel=2, control=1, value=39, time=56),
    Message('control_change', channel=2, control=1, value=40, time=56),
    Message('control_change', channel=2, control=1, value=41, time=56),
    Message('control_change', channel=2, control=1, value=42, time=56),
    Message('control_change', channel=2, control=1, value=43, time=56),
    Message('control_change', channel=2, control=1, value=44, time=112),
    Message('control_change', channel=2, control=1, value=45, time=167),
    Message('control_change', channel=2, control=1, value=44, time=55),
    Message('control_change', channel=2, control=1, value=43, time=330),
    Message('control_change', channel=2, control=1, value=42, time=165),
    Message('control_change', channel=2, control=1, value=41, time=165),
    Message('control_change', channel=2, control=1, value=40, time=110),
    Message('control_change', channel=2, control=1, value=39, time=110),
    Message('control_change', channel=2, control=1, value=38, time=110),
    Message('control_change', channel=2, control=1, value=37, time=110),
    Message('control_change', channel=2, control=1, value=36, time=110),
    Message('control_change', channel=2, control=1, value=35, time=110),
    Message('control_change', channel=2, control=1, value=34, time=110),
    Message('control_change', channel=2, control=1, value=33, time=110),
    Message('control_change', channel=2, control=1, value=32, time=110),
    Message('control_change', channel=2, control=1, value=31, time=165),
    Message('note_off', channel=2, note=50, velocity=0, time=348),
    Message('control_change', channel=2, control=1, value=31, time=25),
    Message('note_on', channel=2, note=48, velocity=69, time=16),
    Message('control_change', channel=2, control=1, value=32, time=320),
    Message('control_change', channel=2, control=1, value=33, time=112),
    Message('control_change', channel=2, control=1, value=34, time=112),
    Message('control_change', channel=2, control=1, value=35, time=112),
    Message('control_change', channel=2, control=1, value=36, time=112),
    Message('control_change', channel=2, control=1, value=37, time=56),
    Message('control_change', channel=2, control=1, value=38, time=112),
    Message('control_change', channel=2, control=1, value=39, time=56),
    Message('control_change', channel=2, control=1, value=40, time=112),
    Message('control_change', channel=2, control=1, value=41, time=112),
    Message('control_change', channel=2, control=1, value=42, time=112),
    Message('control_change', channel=2, control=1, value=43, time=56),
    Message('control_change', channel=2, control=1, value=44, time=168),
    Message('control_change', channel=2, control=1, value=45, time=285),
    Message('control_change', channel=2, control=1, value=44, time=55),
    Message('control_change', channel=2, control=1, value=43, time=330),
    Message('control_change', channel=2, control=1, value=42, time=165),
    Message('control_change', channel=2, control=1, value=41, time=165),
    Message('control_change', channel=2, control=1, value=40, time=110),
    Message('control_change', channel=2, control=1, value=39, time=110),
    Message('control_change', channel=2, control=1, value=38, time=110),
    Message('control_change', channel=2, control=1, value=37, time=110),
    Message('control_change', channel=2, control=1, value=36, time=110),
    Message('control_change', channel=2, control=1, value=35, time=110),
    Message('control_change', channel=2, control=1, value=34, time=110),
    Message('control_change', channel=2, control=1, value=33, time=110),
    Message('control_change', channel=2, control=1, value=32, time=110),
    Message('control_change', channel=2, control=1, value=31, time=165),
    Message('note_off', channel=2, note=48, velocity=0, time=348),
    Message('control_change', channel=2, control=1, value=31, time=25),
    Message('note_on', channel=2, note=46, velocity=69, time=16),
    Message('control_change', channel=2, control=1, value=32, time=376),
    Message('control_change', channel=2, control=1, value=33, time=168),
    Message('control_change', channel=2, control=1, value=34, time=112),
    Message('control_change', channel=2, control=1, value=35, time=112),
    Message('control_change', channel=2, control=1, value=36, time=112),
    Message('control_change', channel=2, control=1, value=37, time=112),
    Message('control_change', channel=2, control=1, value=38, time=112),
    Message('control_change', channel=2, control=1, value=39, time=56),
    Message('control_change', channel=2, control=1, value=40, time=112),
    Message('control_change', channel=2, control=1, value=41, time=112),
    Message('control_change', channel=2, control=1, value=42, time=112),
    Message('control_change', channel=2, control=1, value=43, time=168),
    Message('control_change', channel=2, control=1, value=44, time=112),
    Message('control_change', channel=2, control=1, value=45, time=364),
    Message('control_change', channel=2, control=1, value=44, time=56),
    Message('control_change', channel=2, control=1, value=43, time=280),
    Message('control_change', channel=2, control=1, value=42, time=168),
    Message('control_change', channel=2, control=1, value=41, time=112),
    Message('control_change', channel=2, control=1, value=40, time=112),
    Message('control_change', channel=2, control=1, value=39, time=56),
    Message('control_change', channel=2, control=1, value=38, time=112),
    Message('control_change', channel=2, control=1, value=37, time=112),
    Message('control_change', channel=2, control=1, value=36, time=56),
    Message('control_change', channel=2, control=1, value=35, time=112),
    Message('control_change', channel=2, control=1, value=34, time=112),
    Message('control_change', channel=2, control=1, value=33, time=56),
    Message('control_change', channel=2, control=1, value=32, time=168),
    Message('control_change', channel=2, control=1, value=31, time=112),
    Message('note_off', channel=2, note=46, velocity=0, time=291),
    Message('control_change', channel=2, control=1, value=31, time=25),
    Message('note_on', channel=2, note=45, velocity=74, time=16),
    Message('control_change', channel=2, control=1, value=32, time=212),
    Message('control_change', channel=2, control=1, value=33, time=114),
    Message('control_change', channel=2, control=1, value=34, time=114),
    Message('control_change', channel=2, control=1, value=35, time=57),
    Message('control_change', channel=2, control=1, value=36, time=57),
    Message('control_change', channel=2, control=1, value=37, time=114),
    Message('control_change', channel=2, control=1, value=38, time=57),
    Message('control_change', channel=2, control=1, value=39, time=114),
    Message('control_change', channel=2, control=1, value=40, time=195),
    Message('control_change', channel=2, control=1, value=39, time=59),
    Message('control_change', channel=2, control=1, value=38, time=177),
    Message('control_change', channel=2, control=1, value=37, time=118),
    Message('control_change', channel=2, control=1, value=36, time=59),
    Message('control_change', channel=2, control=1, value=35, time=59),
    Message('control_change', channel=2, control=1, value=34, time=118),
    Message('control_change', channel=2, control=1, value=33, time=59),
    Message('control_change', channel=2, control=1, value=32, time=59),
    Message('control_change', channel=2, control=1, value=31, time=118),
    Message('note_off', channel=2, note=45, velocity=0, time=137),
    Message('control_change', channel=2, control=1, value=31, time=52),
    Message('note_on', channel=2, note=45, velocity=72, time=16),
    Message('control_change', channel=2, control=1, value=32, time=192),
    Message('control_change', channel=2, control=1, value=33, time=105),
    Message('control_change', channel=2, control=1, value=34, time=104),
    Message('control_change', channel=2, control=1, value=35, time=52),
    Message('control_change', channel=2, control=1, value=36, time=105),
    Message('control_change', channel=2, control=1, value=37, time=52),
    Message('control_change', channel=2, control=1, value=38, time=104),
    Message('control_change', channel=2, control=1, value=39, time=104),
    Message('control_change', channel=2, control=1, value=40, time=183),
    Message('control_change', channel=2, control=1, value=38, time=43),
    Message('control_change', channel=2, control=1, value=36, time=43),
    Message('control_change', channel=2, control=1, value=34, time=44),
    Message('control_change', channel=2, control=1, value=33, time=43),
    Message('control_change', channel=2, control=1, value=31, time=43),
    Message('control_change', channel=2, control=1, value=29, time=43),
    Message('control_change', channel=2, control=1, value=28, time=43),
    Message('control_change', channel=2, control=1, value=26, time=43),
    Message('control_change', channel=2, control=1, value=24, time=43),
    Message('control_change', channel=2, control=1, value=23, time=44),
    Message('control_change', channel=2, control=1, value=21, time=43),
    Message('control_change', channel=2, control=1, value=19, time=43),
    Message('control_change', channel=2, control=1, value=18, time=43),
    Message('control_change', channel=2, control=1, value=16, time=43),
    Message('control_change', channel=2, control=1, value=14, time=43),
    Message('control_change', channel=2, control=1, value=12, time=44),
    Message('control_change', channel=2, control=1, value=11, time=43),
    Message('control_change', channel=2, control=1, value=9, time=43),
    Message('control_change', channel=2, control=1, value=7, time=43),
    Message('control_change', channel=2, control=1, value=6, time=43),
    Message('control_change', channel=2, control=1, value=4, time=43),
    Message('control_change', channel=2, control=1, value=2, time=43),
    Message('note_off', channel=2, note=45, velocity=0, time=40),
    Message('control_change', channel=2, control=1, value=1, time=4),
    Message('control_change', channel=2, control=1, value=31, time=16384),
    Message('note_on', channel=2, note=58, velocity=85, time=37),
    Message('note_off', channel=2, note=58, velocity=0, time=503),
    Message('note_on', channel=2, note=46, velocity=80, time=37),
    Message('note_off', channel=2, note=46, velocity=0, time=469),
    Message('note_on', channel=2, note=58, velocity=85, time=2063),
    Message('note_off', channel=2, note=58, velocity=0, time=503),
    Message('note_on', channel=2, note=46, velocity=80, time=37),
    Message('note_off', channel=2, note=46, velocity=0, time=469),
    Message('control_change', channel=2, control=1, value=31, time=2020),
    Message('note_on', channel=2, note=45, velocity=85, time=43),
    Message('note_off', channel=2, note=45, velocity=0, time=503),
    Message('note_on', channel=2, note=55, velocity=80, time=37),
    Message('note_off', channel=2, note=55, velocity=0, time=469),
    Message('note_on', channel=2, note=57, velocity=85, time=2063),
    Message('note_off', channel=2, note=57, velocity=0, time=503),
    Message('note_on', channel=2, note=45, velocity=80, time=37),
    Message('note_off', channel=2, note=45, velocity=0, time=469),
    Message('control_change', channel=2, control=1, value=31, time=2020),
    Message('note_on', channel=2, note=46, velocity=85, time=43),
    Message('note_off', channel=2, note=46, velocity=0, time=1009),
    Message('note_on', channel=2, note=46, velocity=85, time=2063),
    Message('note_off', channel=2, note=46, velocity=0, time=1009),
    Message('control_change', channel=2, control=1, value=31, time=2020),
    Message('note_on', channel=2, note=45, velocity=85, time=43),
    Message('note_off', channel=2, note=45, velocity=0, time=503),
    Message('note_on', channel=2, note=55, velocity=80, time=37),
    Message('note_off', channel=2, note=55, velocity=0, time=469),
    Message('note_on', channel=2, note=38, velocity=85, time=2063),
    Message('note_off', channel=2, note=38, velocity=0, time=503),
    Message('note_on', channel=2, note=45, velocity=80, time=37),
    Message('note_off', channel=2, note=45, velocity=0, time=471),
    Message('note_on', channel=2, note=50, velocity=81, time=35),
    Message('note_off', channel=2, note=50, velocity=0, time=476),
    Message('note_on', channel=2, note=52, velocity=80, time=33),
    Message('note_off', channel=2, note=52, velocity=0, time=476),
    Message('note_on', channel=2, note=53, velocity=83, time=31),
    Message('note_off', channel=2, note=53, velocity=0, time=471),
    Message('note_on', channel=2, note=57, velocity=80, time=30),
    Message('note_off', channel=2, note=57, velocity=0, time=477),
    Message('control_change', channel=2, control=1, value=31, time=24565),
    Message('note_on', channel=2, note=50, velocity=85, time=43),
    Message('note_off', channel=2, note=50, velocity=0, time=505),
    Message('note_on', channel=2, note=57, velocity=80, time=37),
    Message('note_off', channel=2, note=57, velocity=0, time=471),
    Message('note_on', channel=2, note=50, velocity=85, time=3083),
    Message('note_off', channel=2, note=50, velocity=0, time=505),
    Message('note_on', channel=2, note=57, velocity=80, time=37),
    Message('note_off', channel=2, note=57, velocity=0, time=471),
    Message('control_change', channel=2, control=1, value=31, time=3040),
    Message('note_on', channel=2, note=50, velocity=85, time=43),
    Message('note_off', channel=2, note=50, velocity=0, time=505),
    Message('note_on', channel=2, note=57, velocity=80, time=37),
    Message('note_off', channel=2, note=57, velocity=0, time=471),
    Message('note_on', channel=2, note=50, velocity=85, time=3083),
    Message('note_off', channel=2, note=50, velocity=0, time=505),
    Message('note_on', channel=2, note=57, velocity=80, time=37),
    Message('note_off', channel=2, note=57, velocity=0, time=471),
    Message('control_change', channel=2, control=1, value=15, time=19424),
    Message('control_change', channel=2, control=1, value=15, time=27),
    Message('note_on', channel=2, note=50, velocity=69, time=16),
    Message('control_change', channel=2, control=1, value=16, time=208),
    Message('control_change', channel=2, control=1, value=17, time=112),
    Message('control_change', channel=2, control=1, value=18, time=56),
    Message('control_change', channel=2, control=1, value=19, time=112),
    Message('control_change', channel=2, control=1, value=20, time=56),
    Message('control_change', channel=2, control=1, value=21, time=56),
    Message('control_change', channel=2, control=1, value=22, time=56),
    Message('control_change', channel=2, control=1, value=24, time=56),
    Message('control_change', channel=2, control=1, value=25, time=56),
    Message('control_change', channel=2, control=1, value=26, time=56),
    Message('control_change', channel=2, control=1, value=27, time=56),
    Message('control_change', channel=2, control=1, value=28, time=56),
    Message('control_change', channel=2, control=1, value=30, time=56),
    Message('control_change', channel=2, control=1, value=31, time=56),
    Message('control_change', channel=2, control=1, value=32, time=56),
    Message('control_change', channel=2, control=1, value=33, time=56),
    Message('control_change', channel=2, control=1, value=35, time=56),
    Message('control_change', channel=2, control=1, value=36, time=56),
    Message('control_change', channel=2, control=1, value=37, time=56),
    Message('control_change', channel=2, control=1, value=38, time=56),
    Message('control_change', channel=2, control=1, value=39, time=56),
    Message('control_change', channel=2, control=1, value=40, time=56),
    Message('control_change', channel=2, control=1, value=41, time=56),
    Message('control_change', channel=2, control=1, value=42, time=56),
    Message('control_change', channel=2, control=1, value=43, time=112),
    Message('control_change', channel=2, control=1, value=44, time=56),
    Message('control_change', channel=2, control=1, value=45, time=225),
    Message('control_change', channel=2, control=1, value=44, time=56),
    Message('control_change', channel=2, control=1, value=43, time=280),
    Message('control_change', channel=2, control=1, value=42, time=168),
    Message('control_change', channel=2, control=1, value=41, time=112),
    Message('control_change', channel=2, control=1, value=40, time=112),
    Message('control_change', channel=2, control=1, value=39, time=112),
    Message('control_change', channel=2, control=1, value=38, time=112),
    Message('control_change', channel=2, control=1, value=37, time=112),
    Message('control_change', channel=2, control=1, value=36, time=112),
    Message('control_change', channel=2, control=1, value=35, time=56),
    Message('control_change', channel=2, control=1, value=34, time=112),
    Message('control_change', channel=2, control=1, value=33, time=112),
    Message('control_change', channel=2, control=1, value=32, time=112),
    Message('control_change', channel=2, control=1, value=31, time=168),
    Message('note_off', channel=2, note=50, velocity=0, time=318),
    Message('control_change', channel=2, control=1, value=31, time=25),
    Message('note_on', channel=2, note=48, velocity=69, time=16),
    Message('control_change', channel=2, control=1, value=32, time=320),
    Message('control_change', channel=2, control=1, value=33, time=168),
    Message('control_change', channel=2, control=1, value=34, time=112),
    Message('control_change', channel=2, control=1, value=35, time=112),
    Message('control_change', channel=2, control=1, value=36, time=112),
    Message('control_change', channel=2, control=1, value=37, time=112),
    Message('control_change', channel=2, control=1, value=38, time=56),
    Message('control_change', channel=2, control=1, value=39, time=112),
    Message('control_change', channel=2, control=1, value=40, time=112),
    Message('control_change', channel=2, control=1, value=41, time=112),
    Message('control_change', channel=2, control=1, value=42, time=112),
    Message('control_change', channel=2, control=1, value=43, time=112),
    Message('control_change', channel=2, control=1, value=44, time=112),
    Message('control_change', channel=2, control=1, value=45, time=337),
    Message('control_change', channel=2, control=1, value=44, time=56),
    Message('control_change', channel=2, control=1, value=43, time=280),
    Message('control_change', channel=2, control=1, value=42, time=168),
    Message('control_change', channel=2, control=1, value=41, time=112),
    Message('control_change', channel=2, control=1, value=40, time=112),
    Message('control_change', channel=2, control=1, value=39, time=112),
    Message('control_change', channel=2, control=1, value=38, time=112),
    Message('control_change', channel=2, control=1, value=37, time=112),
    Message('control_change', channel=2, control=1, value=36, time=112),
    Message('control_change', channel=2, control=1, value=35, time=56),
    Message('control_change', channel=2, control=1, value=34, time=112),
    Message('control_change', channel=2, control=1, value=33, time=112),
    Message('control_change', channel=2, control=1, value=32, time=112),
    Message('control_change', channel=2, control=1, value=31, time=168),
    Message('note_off', channel=2, note=48, velocity=0, time=318),
    Message('control_change', channel=2, control=1, value=31, time=25),
    Message('note_on', channel=2, note=46, velocity=69, time=16),
    Message('control_change', channel=2, control=1, value=32, time=320),
    Message('control_change', channel=2, control=1, value=33, time=112),
    Message('control_change', channel=2, control=1, value=34, time=112),
    Message('control_change', channel=2, control=1, value=35, time=112),
    Message('control_change', channel=2, control=1, value=36, time=56),
    Message('control_change', channel=2, control=1, value=37, time=112),
    Message('control_change', channel=2, control=1, value=38, time=112),
    Message('control_change', channel=2, control=1, value=39, time=56),
    Message('control_change', channel=2, control=1, value=40, time=112),
    Message('control_change', channel=2, control=1, value=41, time=56),
    Message('control_change', channel=2, control=1, value=42, time=112),
    Message('control_change', channel=2, control=1, value=43, time=112),
    Message('control_change', channel=2, control=1, value=44, time=112),
    Message('control_change', channel=2, control=1, value=45, time=300),
    Message('control_change', channel=2, control=1, value=44, time=57),
    Message('control_change', channel=2, control=1, value=43, time=342),
    Message('control_change', channel=2, control=1, value=42, time=171),
    Message('control_change', channel=2, control=1, value=41, time=114),
    Message('control_change', channel=2, control=1, value=40, time=114),
    Message('control_change', channel=2, control=1, value=39, time=171),
    Message('control_change', channel=2, control=1, value=38, time=57),
    Message('control_change', channel=2, control=1, value=37, time=114),
    Message('control_change', channel=2, control=1, value=36, time=114),
    Message('control_change', channel=2, control=1, value=35, time=114),
    Message('control_change', channel=2, control=1, value=34, time=114),
    Message('control_change', channel=2, control=1, value=33, time=114),
    Message('control_change', channel=2, control=1, value=32, time=171),
    Message('control_change', channel=2, control=1, value=31, time=171),
    Message('note_off', channel=2, note=46, velocity=0, time=321),
    Message('control_change', channel=2, control=1, value=31, time=25),
    Message('note_on', channel=2, note=45, velocity=74, time=16),
    Message('control_change', channel=2, control=1, value=32, time=212),
    Message('control_change', channel=2, control=1, value=33, time=114),
    Message('control_change', channel=2, control=1, value=34, time=114),
    Message('control_change', channel=2, control=1, value=35, time=57),
    Message('control_change', channel=2, control=1, value=36, time=57),
    Message('control_change', channel=2, control=1, value=37, time=114),
    Message('control_change', channel=2, control=1, value=38, time=57),
    Message('control_change', channel=2, control=1, value=39, time=114),
    Message('control_change', channel=2, control=1, value=40, time=195),
    Message('control_change', channel=2, control=1, value=39, time=59),
    Message('control_change', channel=2, control=1, value=38, time=177),
    Message('control_change', channel=2, control=1, value=37, time=118),
    Message('control_change', channel=2, control=1, value=36, time=59),
    Message('control_change', channel=2, control=1, value=35, time=59),
    Message('control_change', channel=2, control=1, value=34, time=118),
    Message('control_change', channel=2, control=1, value=33, time=59),
    Message('control_change', channel=2, control=1, value=32, time=59),
    Message('control_change', channel=2, control=1, value=31, time=118),
    Message('note_off', channel=2, note=45, velocity=0, time=137),
    Message('control_change', channel=2, control=1, value=31, time=52),
    Message('note_on', channel=2, note=45, velocity=72, time=16),
    Message('control_change', channel=2, control=1, value=32, time=192),
    Message('control_change', channel=2, control=1, value=33, time=105),
    Message('control_change', channel=2, control=1, value=34, time=104),
    Message('control_change', channel=2, control=1, value=35, time=52),
    Message('control_change', channel=2, control=1, value=36, time=105),
    Message('control_change', channel=2, control=1, value=37, time=52),
    Message('control_change', channel=2, control=1, value=38, time=104),
    Message('control_change', channel=2, control=1, value=39, time=104),
    Message('control_change', channel=2, control=1, value=40, time=183),
    Message('control_change', channel=2, control=1, value=39, time=43),
    Message('control_change', channel=2, control=1, value=38, time=173),
    Message('control_change', channel=2, control=1, value=37, time=129),
    Message('control_change', channel=2, control=1, value=36, time=43),
    Message('control_change', channel=2, control=1, value=35, time=87),
    Message('control_change', channel=2, control=1, value=34, time=86),
    Message('control_change', channel=2, control=1, value=33, time=86),
    Message('control_change', channel=2, control=1, value=32, time=87),
    Message('control_change', channel=2, control=1, value=31, time=86),
    Message('note_off', channel=2, note=45, velocity=0, time=169),
    Message('note_on', channel=2, note=58, velocity=85, time=41),
    Message('note_off', channel=2, note=58, velocity=0, time=503),
    Message('note_on', channel=2, note=46, velocity=80, time=37),
    Message('note_off', channel=2, note=46, velocity=0, time=469),
    Message('control_change', channel=2, control=1, value=31, time=2020),
    Message('note_on', channel=2, note=58, velocity=85, time=43),
    Message('note_off', channel=2, note=58, velocity=0, time=503),
    Message('note_on', channel=2, note=46, velocity=80, time=37),
    Message('note_off', channel=2, note=46, velocity=0, time=469),
    Message('note_on', channel=2, note=45, velocity=85, time=2063),
    Message('note_off', channel=2, note=45, velocity=0, time=503),
    Message('note_on', channel=2, note=55, velocity=80, time=37),
    Message('note_off', channel=2, note=55, velocity=0, time=469),
    Message('control_change', channel=2, control=1, value=31, time=2020),
    Message('note_on', channel=2, note=57, velocity=85, time=43),
    Message('note_off', channel=2, note=57, velocity=0, time=503),
    Message('note_on', channel=2, note=45, velocity=80, time=37),
    Message('note_off', channel=2, note=45, velocity=0, time=469),
    Message('note_on', channel=2, note=46, velocity=85, time=2063),
    Message('note_off', channel=2, note=46, velocity=0, time=1009),
    Message('control_change', channel=2, control=1, value=31, time=2020),
    Message('note_on', channel=2, note=46, velocity=85, time=43),
    Message('note_off', channel=2, note=46, velocity=0, time=1009),
    Message('note_on', channel=2, note=45, velocity=85, time=2063),
    Message('note_off', channel=2, note=45, velocity=0, time=503),
    Message('note_on', channel=2, note=55, velocity=80, time=37),
    Message('note_off', channel=2, note=55, velocity=0, time=469),
    Message('control_change', channel=2, control=1, value=31, time=2020),
    Message('note_on', channel=2, note=38, velocity=85, time=43),
    Message('note_off', channel=2, note=38, velocity=0, time=503),
    Message('note_on', channel=2, note=45, velocity=80, time=37),
    Message('note_off', channel=2, note=45, velocity=0, time=471),
    Message('note_on', channel=2, note=50, velocity=81, time=35),
    Message('note_off', channel=2, note=50, velocity=0, time=476),
    Message('note_on', channel=2, note=52, velocity=80, time=33),
    Message('note_off', channel=2, note=52, velocity=0, time=475),
    Message('note_on', channel=2, note=53, velocity=83, time=32),
    Message('note_off', channel=2, note=53, velocity=0, time=471),
    Message('note_on', channel=2, note=57, velocity=80, time=30),
    Message('note_off', channel=2, note=57, velocity=0, time=477),
    Message('note_on', channel=2, note=58, velocity=85, time=32),
    Message('note_off', channel=2, note=58, velocity=0, time=503),
    Message('note_on', channel=2, note=46, velocity=80, time=37),
    Message('note_off', channel=2, note=46, velocity=0, time=469),
    Message('control_change', channel=2, control=1, value=31, time=2020),
    Message('note_on', channel=2, note=58, velocity=85, time=43),
    Message('note_off', channel=2, note=58, velocity=0, time=503),
    Message('note_on', channel=2, note=46, velocity=80, time=37),
    Message('note_off', channel=2, note=46, velocity=0, time=469),
    Message('note_on', channel=2, note=45, velocity=85, time=2063),
    Message('note_off', channel=2, note=45, velocity=0, time=503),
    Message('note_on', channel=2, note=55, velocity=80, time=37),
    Message('note_off', channel=2, note=55, velocity=0, time=469),
    Message('control_change', channel=2, control=1, value=31, time=2020),
    Message('note_on', channel=2, note=57, velocity=85, time=43),
    Message('note_off', channel=2, note=57, velocity=0, time=503),
    Message('note_on', channel=2, note=45, velocity=80, time=37),
    Message('note_off', channel=2, note=45, velocity=0, time=469),
    Message('note_on', channel=2, note=56, velocity=85, time=2063),
    Message('note_off', channel=2, note=56, velocity=0, time=503),
    Message('note_on', channel=2, note=44, velocity=80, time=37),
    Message('note_off', channel=2, note=44, velocity=0, time=469),
    Message('control_change', channel=2, control=1, value=31, time=2020),
    Message('note_on', channel=2, note=56, velocity=85, time=43),
    Message('note_off', channel=2, note=56, velocity=0, time=503),
    Message('note_on', channel=2, note=44, velocity=80, time=37),
    Message('note_off', channel=2, note=44, velocity=0, time=469),
    Message('note_on', channel=2, note=43, velocity=85, time=2063),
    Message('note_off', channel=2, note=43, velocity=0, time=1009),
    Message('control_change', channel=2, control=1, value=31, time=2022),
    Message('note_on', channel=2, note=42, velocity=85, time=41),
    Message('note_off', channel=2, note=42, velocity=0, time=1015),
    Message('note_on', channel=2, note=60, velocity=73, time=31),
    Message('note_on', channel=2, note=65, velocity=87, time=0),
    Message('note_off', channel=2, note=60, velocity=0, time=986),
    Message('note_off', channel=2, note=65, velocity=0, time=29),
    Message('control_change', channel=2, control=1, value=31, time=1001),
    Message('note_on', channel=2, note=50, velocity=69, time=10),
    Message('control_change', channel=2, control=1, value=32, time=242),
    Message('control_change', channel=2, control=1, value=33, time=108),
    Message('control_change', channel=2, control=1, value=34, time=72),
    Message('control_change', channel=2, control=1, value=35, time=72),
    Message('control_change', channel=2, control=1, value=36, time=72),
    Message('control_change', channel=2, control=1, value=37, time=72),
    Message('control_change', channel=2, control=1, value=38, time=72),
    Message('control_change', channel=2, control=1, value=39, time=72),
    Message('control_change', channel=2, control=1, value=40, time=72),
    Message('control_change', channel=2, control=1, value=41, time=72),
    Message('control_change', channel=2, control=1, value=42, time=72),
    Message('control_change', channel=2, control=1, value=43, time=108),
    Message('control_change', channel=2, control=1, value=44, time=72),
    Message('control_change', channel=2, control=1, value=45, time=247),
    Message('control_change', channel=2, control=1, value=44, time=36),
    Message('control_change', channel=2, control=1, value=43, time=36),
    Message('control_change', channel=2, control=1, value=42, time=36),
    Message('control_change', channel=2, control=1, value=41, time=36),
    Message('control_change', channel=2, control=1, value=40, time=36),
    Message('control_change', channel=2, control=1, value=39, time=36),
    Message('control_change', channel=2, control=1, value=38, time=36),
    Message('control_change', channel=2, control=1, value=37, time=36),
    Message('control_change', channel=2, control=1, value=36, time=36),
    Message('control_change', channel=2, control=1, value=35, time=36),
    Message('control_change', channel=2, control=1, value=34, time=36),
    Message('control_change', channel=2, control=1, value=33, time=36),
    Message('control_change', channel=2, control=1, value=32, time=36),
    Message('control_change', channel=2, control=1, value=31, time=36),
    Message('control_change', channel=2, control=1, value=30, time=36),
    Message('control_change', channel=2, control=1, value=29, time=36),
    Message('control_change', channel=2, control=1, value=28, time=36),
    Message('control_change', channel=2, control=1, value=27, time=36),
    Message('control_change', channel=2, control=1, value=26, time=36),
    Message('control_change', channel=2, control=1, value=25, time=36),
    Message('control_change', channel=2, control=1, value=24, time=36),
    Message('control_change', channel=2, control=1, value=23, time=36),
    Message('control_change', channel=2, control=1, value=22, time=36),
    Message('control_change', channel=2, control=1, value=21, time=36),
    Message('control_change', channel=2, control=1, value=20, time=36),
    Message('control_change', channel=2, control=1, value=19, time=36),
    Message('control_change', channel=2, control=1, value=18, time=36),
    Message('control_change', channel=2, control=1, value=17, time=36),
    Message('control_change', channel=2, control=1, value=16, time=36),
    Message('control_change', channel=2, control=1, value=15, time=36),
    Message('control_change', channel=2, control=1, value=14, time=36),
    Message('control_change', channel=2, control=1, value=13, time=36),
    Message('control_change', channel=2, control=1, value=12, time=36),
    Message('control_change', channel=2, control=1, value=11, time=36),
    Message('control_change', channel=2, control=1, value=10, time=36),
    Message('control_change', channel=2, control=1, value=9, time=36),
    Message('control_change', channel=2, control=1, value=8, time=36),
    Message('note_off', channel=2, note=50, velocity=0, time=4),
    Message('control_change', channel=2, control=1, value=7, time=32),
    Message('control_change', channel=2, control=1, value=6, time=36),
    Message('control_change', channel=2, control=1, value=5, time=36),
    Message('control_change', channel=2, control=1, value=4, time=36),
    Message('control_change', channel=2, control=1, value=3, time=36),
    Message('control_change', channel=2, control=1, value=2, time=36),
    Message('control_change', channel=2, control=1, value=1, time=36),
    Message('control_change', channel=2, control=1, value=0, time=36),
    MetaMessage('end_of_track', time=22)]),
  MidiTrack([
    MetaMessage('device_name', name='Launchkey Mini MK3', time=0),
    MetaMessage('track_name', name='Glockenspiel', time=0),
    Message('program_change', channel=3, program=0, time=0),
    Message('control_change', channel=3, control=7, value=101, time=0),
    Message('control_change', channel=3, control=10, value=67, time=0),
    Message('control_change', channel=3, control=7, value=70, time=0),
    Message('note_on', channel=3, note=93, velocity=62, time=16388),
    Message('note_on', channel=3, note=98, velocity=62, time=0),
    Message('note_on', channel=3, note=101, velocity=62, time=8),
    Message('note_off', channel=3, note=93, velocity=0, time=3576),
    Message('note_off', channel=3, note=98, velocity=0, time=0),
    Message('note_off', channel=3, note=101, velocity=0, time=0),
    Message('note_on', channel=3, note=100, velocity=62, time=1),
    Message('note_off', channel=3, note=100, velocity=0, time=247),
    Message('note_on', channel=3, note=101, velocity=62, time=1),
    Message('note_off', channel=3, note=101, velocity=0, time=258),
    Message('note_on', channel=3, note=91, velocity=62, time=5),
    Message('note_on', channel=3, note=96, velocity=62, time=0),
    Message('note_on', channel=3, note=100, velocity=62, time=0),
    Message('note_off', channel=3, note=100, velocity=0, time=3012),
    Message('note_off', channel=3, note=91, velocity=0, time=67),
    Message('note_off', channel=3, note=96, velocity=0, time=0),
    Message('note_on', channel=3, note=100, velocity=63, time=1),
    Message('note_off', channel=3, note=100, velocity=0, time=256),
    Message('note_on', channel=3, note=101, velocity=62, time=1),
    Message('note_off', channel=3, note=101, velocity=0, time=247),
    Message('note_on', channel=3, note=103, velocity=62, time=1),
    Message('note_off', channel=3, note=103, velocity=0, time=247),
    Message('note_on', channel=3, note=105, velocity=62, time=1),
    Message('note_off', channel=3, note=105, velocity=0, time=258),
    Message('note_on', channel=3, note=100, velocity=67, time=5),
    Message('note_off', channel=3, note=100, velocity=0, time=292),
    Message('note_on', channel=3, note=101, velocity=62, time=1),
    Message('note_off', channel=3, note=101, velocity=0, time=248),
    Message('note_on', channel=3, note=98, velocity=62, time=15),
    Message('note_on', channel=3, note=94, velocity=62, time=1),
    Message('note_off', channel=3, note=98, velocity=0, time=3453),
    Message('note_off', channel=3, note=94, velocity=0, time=81),
    Message('note_on', channel=3, note=93, velocity=67, time=6),
    Message('note_on', channel=3, note=98, velocity=67, time=8),
    Message('note_off', channel=3, note=93, velocity=0, time=1987),
    Message('note_off', channel=3, note=98, velocity=0, time=68),
    Message('note_on', channel=3, note=93, velocity=65, time=1),
    Message('note_on', channel=3, note=97, velocity=65, time=0),
    Message('note_off', channel=3, note=93, velocity=0, time=2026),
    Message('note_off', channel=3, note=97, velocity=0, time=0),
    Message('note_on', channel=3, note=105, velocity=67, time=24583),
    Message('note_on', channel=3, note=94, velocity=67, time=10),
    Message('note_on', channel=3, note=101, velocity=67, time=3),
    Message('note_on', channel=3, note=98, velocity=67, time=1),
    Message('note_off', channel=3, note=98, velocity=0, time=946),
    Message('note_off', channel=3, note=94, velocity=0, time=4),
    Message('note_off', channel=3, note=101, velocity=0, time=79),
    Message('note_off', channel=3, note=105, velocity=0, time=0),
    Message('note_on', channel=3, note=94, velocity=63, time=1),
    Message('note_on', channel=3, note=98, velocity=63, time=0),
    Message('note_on', channel=3, note=103, velocity=63, time=2),
    Message('note_off', channel=3, note=94, velocity=0, time=1013),
    Message('note_off', channel=3, note=98, velocity=0, time=0),
    Message('note_off', channel=3, note=103, velocity=0, time=0),
    Message('note_on', channel=3, note=105, velocity=65, time=1),
    Message('note_on', channel=3, note=110, velocity=65, time=0),
    Message('note_on', channel=3, note=101, velocity=65, time=15),
    Message('note_off', channel=3, note=101, velocity=0, time=905),
    Message('note_off', channel=3, note=105, velocity=0, time=23),
    Message('note_off', channel=3, note=110, velocity=0, time=62),
    Message('note_on', channel=3, note=94, velocity=62, time=5),
    Message('note_on', channel=3, note=98, velocity=62, time=0),
    Message('note_on', channel=3, note=101, velocity=62, time=7),
    Message('note_on', channel=3, note=105, velocity=62, time=8),
    Message('note_off', channel=3, note=101, velocity=0, time=1972),
    Message('note_off', channel=3, note=94, velocity=0, time=74),
    Message('note_off', channel=3, note=98, velocity=0, time=0),
    Message('note_off', channel=3, note=105, velocity=0, time=0),
    Message('note_on', channel=3, note=101, velocity=65, time=1),
    Message('note_off', channel=3, note=101, velocity=0, time=500),
    Message('note_on', channel=3, note=103, velocity=62, time=1),
    Message('note_off', channel=3, note=103, velocity=0, time=504),
    Message('note_on', channel=3, note=93, velocity=67, time=5),
    Message('note_on', channel=3, note=96, velocity=67, time=0),
    Message('note_on', channel=3, note=105, velocity=67, time=6),
    Message('note_on', channel=3, note=100, velocity=67, time=4),
    Message('note_off', channel=3, note=93, velocity=0, time=1035),
    Message('note_off', channel=3, note=96, velocity=0, time=0),
    Message('note_off', channel=3, note=100, velocity=0, time=0),
    Message('note_off', channel=3, note=105, velocity=0, time=0),
    Message('note_on', channel=3, note=103, velocity=63, time=12),
    Message('note_off', channel=3, note=103, velocity=0, time=904),
    Message('note_on', channel=3, note=103, velocity=65, time=101),
    Message('note_on', channel=3, note=100, velocity=65, time=11),
    Message('note_on', channel=3, note=108, velocity=65, time=6),
    Message('note_off', channel=3, note=100, velocity=0, time=900),
    Message('note_off', channel=3, note=103, velocity=0, time=88),
    Message('note_off', channel=3, note=108, velocity=0, time=0),
    Message('note_on', channel=3, note=96, velocity=62, time=5),
    Message('note_on', channel=3, note=100, velocity=62, time=0),
    Message('note_on', channel=3, note=105, velocity=62, time=6),
    Message('note_off', channel=3, note=96, velocity=0, time=2055),
    Message('note_off', channel=3, note=100, velocity=0, time=0),
    Message('note_off', channel=3, note=105, velocity=0, time=0),
    Message('note_on', channel=3, note=98, velocity=65, time=1),
    Message('note_on', channel=3, note=101, velocity=65, time=16),
    Message('note_off', channel=3, note=98, velocity=0, time=484),
    Message('note_off', channel=3, note=101, velocity=0, time=0),
    Message('note_on', channel=3, note=100, velocity=62, time=1),
    Message('note_on', channel=3, note=103, velocity=62, time=10),
    Message('note_off', channel=3, note=100, velocity=0, time=494),
    Message('note_off', channel=3, note=103, velocity=0, time=0),
    Message('note_on', channel=3, note=95, velocity=67, time=5),
    Message('note_on', channel=3, note=99, velocity=67, time=0),
    Message('note_on', channel=3, note=104, velocity=67, time=2),
    Message('note_off', channel=3, note=95, velocity=0, time=1043),
    Message('note_off', channel=3, note=99, velocity=0, time=0),
    Message('note_off', channel=3, note=104, velocity=0, time=0),
    Message('note_on', channel=3, note=102, velocity=60, time=4),
    Message('note_off', channel=3, note=102, velocity=0, time=920),
    Message('note_on', channel=3, note=102, velocity=58, time=93),
    Message('note_on', channel=3, note=106, velocity=58, time=0),
    Message('note_on', channel=3, note=111, velocity=58, time=5),
    Message('note_off', channel=3, note=102, velocity=0, time=1000),
    Message('note_off', channel=3, note=106, velocity=0, time=0),
    Message('note_off', channel=3, note=111, velocity=0, time=0),
    Message('note_on', channel=3, note=95, velocity=55, time=5),
    Message('note_on', channel=3, note=104, velocity=55, time=14),
    Message('note_off', channel=3, note=95, velocity=0, time=2047),
    Message('note_off', channel=3, note=104, velocity=0, time=0),
    Message('note_on', channel=3, note=102, velocity=52, time=1),
    Message('note_off', channel=3, note=102, velocity=0, time=500),
    Message('note_on', channel=3, note=104, velocity=49, time=1),
    Message('note_off', channel=3, note=104, velocity=0, time=504),
    Message('note_on', channel=3, note=98, velocity=51, time=5),
    Message('note_on', channel=3, note=103, velocity=51, time=7),
    Message('note_on', channel=3, note=94, velocity=51, time=6),
    Message('note_off', channel=3, note=94, velocity=0, time=952),
    Message('note_off', channel=3, note=98, velocity=0, time=80),
    Message('note_off', channel=3, note=103, velocity=0, time=0),
    Message('note_on', channel=3, note=94, velocity=59, time=1),
    Message('note_on', channel=3, note=96, velocity=59, time=12),
    Message('note_on', channel=3, note=101, velocity=59, time=3),
    Message('note_off', channel=3, note=96, velocity=0, time=899),
    Message('note_off', channel=3, note=94, velocity=0, time=101),
    Message('note_off', channel=3, note=101, velocity=0, time=0),
    Message('note_on', channel=3, note=96, velocity=67, time=1),
    Message('note_on', channel=3, note=108, velocity=67, time=5),
    Message('note_off', channel=3, note=96, velocity=0, time=1000),
    Message('note_off', channel=3, note=108, velocity=0, time=0),
    Message('note_on', channel=3, note=97, velocity=75, time=5),
    Message('note_on', channel=3, note=102, velocity=75, time=0),
    Message('note_on', channel=3, note=106, velocity=75, time=0),
    Message('note_off', channel=3, note=97, velocity=0, time=3067),
    Message('note_off', channel=3, note=102, velocity=0, time=0),
    Message('note_off', channel=3, note=106, velocity=0, time=0),
    Message('note_on', channel=3, note=91, velocity=49, time=16389),
    Message('note_on', channel=3, note=103, velocity=49, time=0),
    Message('note_off', channel=3, note=91, velocity=0, time=3584),
    Message('note_off', channel=3, note=103, velocity=0, time=0),
    Message('note_on', channel=3, note=93, velocity=49, time=1),
    Message('note_on', channel=3, note=105, velocity=49, time=17),
    Message('note_off', channel=3, note=93, velocity=0, time=489),
    Message('note_off', channel=3, note=105, velocity=0, time=0),
    Message('note_on', channel=3, note=89, velocity=49, time=5),
    Message('note_on', channel=3, note=101, velocity=49, time=13),
    Message('note_off', channel=3, note=89, velocity=0, time=3571),
    Message('note_off', channel=3, note=101, velocity=0, time=0),
    Message('note_on', channel=3, note=83, velocity=49, time=1),
    Message('note_on', channel=3, note=95, velocity=49, time=1),
    Message('note_off', channel=3, note=83, velocity=0, time=505),
    Message('note_off', channel=3, note=95, velocity=0, time=0),
    Message('note_on', channel=3, note=84, velocity=49, time=5),
    Message('note_on', channel=3, note=96, velocity=49, time=7),
    Message('note_off', channel=3, note=84, velocity=0, time=3577),
    Message('note_off', channel=3, note=96, velocity=0, time=0),
    Message('note_on', channel=3, note=83, velocity=49, time=1),
    Message('note_on', channel=3, note=95, velocity=49, time=10),
    Message('note_off', channel=3, note=83, velocity=0, time=496),
    Message('note_off', channel=3, note=95, velocity=0, time=0),
    Message('note_on', channel=3, note=81, velocity=49, time=5),
    Message('note_on', channel=3, note=93, velocity=49, time=7),
    Message('note_off', channel=3, note=93, velocity=0, time=4014),
    Message('note_off', channel=3, note=81, velocity=0, time=70),
    Message('note_on', channel=3, note=93, velocity=62, time=5),
    Message('note_on', channel=3, note=98, velocity=62, time=0),
    Message('note_on', channel=3, note=101, velocity=62, time=13),
    Message('note_off', channel=3, note=93, velocity=0, time=3571),
    Message('note_off', channel=3, note=98, velocity=0, time=0),
    Message('note_off', channel=3, note=101, velocity=0, time=0),
    Message('note_on', channel=3, note=100, velocity=62, time=1),
    Message('note_off', channel=3, note=100, velocity=0, time=247),
    Message('note_on', channel=3, note=101, velocity=62, time=1),
    Message('note_off', channel=3, note=101, velocity=0, time=258),
    Message('note_on', channel=3, note=91, velocity=62, time=5),
    Message('note_on', channel=3, note=96, velocity=62, time=0),
    Message('note_on', channel=3, note=100, velocity=62, time=5),
    Message('note_off', channel=3, note=100, velocity=0, time=3002),
    Message('note_off', channel=3, note=91, velocity=0, time=72),
    Message('note_off', channel=3, note=96, velocity=0, time=0),
    Message('note_on', channel=3, note=100, velocity=63, time=1),
    Message('note_off', channel=3, note=100, velocity=0, time=256),
    Message('note_on', channel=3, note=101, velocity=62, time=1),
    Message('note_off', channel=3, note=101, velocity=0, time=247),
    Message('note_on', channel=3, note=103, velocity=62, time=1),
    Message('note_off', channel=3, note=103, velocity=0, time=247),
    Message('note_on', channel=3, note=105, velocity=62, time=1),
    Message('note_off', channel=3, note=105, velocity=0, time=258),
    Message('note_on', channel=3, note=100, velocity=67, time=5),
    Message('note_off', channel=3, note=100, velocity=0, time=292),
    Message('note_on', channel=3, note=101, velocity=62, time=1),
    Message('note_off', channel=3, note=101, velocity=0, time=248),
    Message('note_on', channel=3, note=94, velocity=62, time=6),
    Message('note_on', channel=3, note=98, velocity=62, time=9),
    Message('note_off', channel=3, note=98, velocity=0, time=3437),
    Message('note_off', channel=3, note=94, velocity=0, time=98),
    Message('note_on', channel=3, note=93, velocity=67, time=8),
    Message('note_on', channel=3, note=98, velocity=67, time=4),
    Message('note_off', channel=3, note=93, velocity=0, time=1987),
    Message('note_off', channel=3, note=98, velocity=0, time=70),
    Message('note_on', channel=3, note=93, velocity=65, time=1),
    Message('note_on', channel=3, note=97, velocity=65, time=16),
    Message('note_off', channel=3, note=93, velocity=0, time=2010),
    Message('note_off', channel=3, note=97, velocity=0, time=0),
    Message('note_on', channel=3, note=101, velocity=67, time=14),
    Message('note_on', channel=3, note=94, velocity=67, time=8),
    Message('note_on', channel=3, note=98, velocity=67, time=0),
    Message('note_on', channel=3, note=105, velocity=67, time=0),
    Message('note_off', channel=3, note=94, velocity=0, time=944),
    Message('note_off', channel=3, note=98, velocity=0, time=0),
    Message('note_off', channel=3, note=101, velocity=0, time=84),
    Message('note_off', channel=3, note=105, velocity=0, time=0),
    Message('note_on', channel=3, note=94, velocity=63, time=1),
    Message('note_on', channel=3, note=98, velocity=63, time=0),
    Message('note_on', channel=3, note=103, velocity=63, time=3),
    Message('note_off', channel=3, note=94, velocity=0, time=1012),
    Message('note_off', channel=3, note=98, velocity=0, time=0),
    Message('note_off', channel=3, note=103, velocity=0, time=0),
    Message('note_on', channel=3, note=105, velocity=65, time=1),
    Message('note_on', channel=3, note=101, velocity=65, time=11),
    Message('note_on', channel=3, note=110, velocity=65, time=4),
    Message('note_off', channel=3, note=105, velocity=0, time=914),
    Message('note_off', channel=3, note=101, velocity=0, time=1),
    Message('note_off', channel=3, note=110, velocity=0, time=75),
    Message('note_on', channel=3, note=94, velocity=62, time=5),
    Message('note_on', channel=3, note=98, velocity=62, time=0),
    Message('note_on', channel=3, note=105, velocity=62, time=1),
    Message('note_on', channel=3, note=101, velocity=62, time=12),
    Message('note_off', channel=3, note=101, velocity=0, time=1968),
    Message('note_off', channel=3, note=94, velocity=0, time=80),
    Message('note_off', channel=3, note=98, velocity=0, time=0),
    Message('note_off', channel=3, note=105, velocity=0, time=0),
    Message('note_on', channel=3, note=101, velocity=65, time=1),
    Message('note_off', channel=3, note=101, velocity=0, time=500),
    Message('note_on', channel=3, note=103, velocity=62, time=1),
    Message('note_off', channel=3, note=103, velocity=0, time=504),
    Message('note_on', channel=3, note=93, velocity=67, time=5),
    Message('note_on', channel=3, note=96, velocity=67, time=0),
    Message('note_on', channel=3, note=105, velocity=67, time=6),
    Message('note_on', channel=3, note=100, velocity=67, time=2),
    Message('note_off', channel=3, note=93, velocity=0, time=1037),
    Message('note_off', channel=3, note=96, velocity=0, time=0),
    Message('note_off', channel=3, note=100, velocity=0, time=0),
    Message('note_off', channel=3, note=105, velocity=0, time=0),
    Message('note_on', channel=3, note=103, velocity=63, time=9),
    Message('note_off', channel=3, note=103, velocity=0, time=910),
    Message('note_on', channel=3, note=103, velocity=65, time=98),
    Message('note_on', channel=3, note=100, velocity=65, time=5),
    Message('note_on', channel=3, note=108, velocity=65, time=10),
    Message('note_off', channel=3, note=100, velocity=0, time=908),
    Message('note_off', channel=3, note=103, velocity=0, time=82),
    Message('note_off', channel=3, note=108, velocity=0, time=0),
    Message('note_on', channel=3, note=96, velocity=62, time=5),
    Message('note_on', channel=3, note=100, velocity=62, time=0),
    Message('note_on', channel=3, note=105, velocity=62, time=6),
    Message('note_off', channel=3, note=96, velocity=0, time=2055),
    Message('note_off', channel=3, note=100, velocity=0, time=0),
    Message('note_off', channel=3, note=105, velocity=0, time=0),
    Message('note_on', channel=3, note=98, velocity=65, time=1),
    Message('note_on', channel=3, note=101, velocity=65, time=13),
    Message('note_off', channel=3, note=98, velocity=0, time=487),
    Message('note_off', channel=3, note=101, velocity=0, time=0),
    Message('note_on', channel=3, note=100, velocity=62, time=1),
    Message('note_on', channel=3, note=103, velocity=62, time=2),
    Message('note_off', channel=3, note=100, velocity=0, time=502),
    Message('note_off', channel=3, note=103, velocity=0, time=0),
    Message('note_on', channel=3, note=105, velocity=67, time=7),
    Message('note_on', channel=3, note=94, velocity=67, time=5),
    Message('note_on', channel=3, note=98, velocity=67, time=0),
    Message('note_on', channel=3, note=101, velocity=67, time=0),
    Message('note_off', channel=3, note=94, velocity=0, time=964),
    Message('note_off', channel=3, note=98, velocity=0, time=0),
    Message('note_off', channel=3, note=101, velocity=0, time=74),
    Message('note_off', channel=3, note=105, velocity=0, time=0),
    Message('note_on', channel=3, note=94, velocity=63, time=1),
    Message('note_on', channel=3, note=98, velocity=63, time=0),
    Message('note_on', channel=3, note=103, velocity=63, time=13),
    Message('note_off', channel=3, note=94, velocity=0, time=1002),
    Message('note_off', channel=3, note=98, velocity=0, time=0),
    Message('note_off', channel=3, note=103, velocity=0, time=0),
    Message('note_on', channel=3, note=105, velocity=65, time=1),
    Message('note_on', channel=3, note=101, velocity=65, time=1),
    Message('note_on', channel=3, note=110, velocity=65, time=8),
    Message('note_off', channel=3, note=101, velocity=0, time=925),
    Message('note_off', channel=3, note=105, velocity=0, time=5),
    Message('note_off', channel=3, note=110, velocity=0, time=66),
    Message('note_on', channel=3, note=94, velocity=62, time=5),
    Message('note_on', channel=3, note=101, velocity=62, time=7),
    Message('note_on', channel=3, note=105, velocity=62, time=4),
    Message('note_on', channel=3, note=98, velocity=62, time=4),
    Message('note_off', channel=3, note=98, velocity=0, time=1964),
    Message('note_off', channel=3, note=101, velocity=0, time=20),
    Message('note_off', channel=3, note=94, velocity=0, time=62),
    Message('note_off', channel=3, note=105, velocity=0, time=0),
    Message('note_on', channel=3, note=98, velocity=65, time=1),
    Message('note_on', channel=3, note=101, velocity=65, time=12),
    Message('note_off', channel=3, note=98, velocity=0, time=488),
    Message('note_off', channel=3, note=101, velocity=0, time=0),
    Message('note_on', channel=3, note=100, velocity=62, time=9),
    Message('note_on', channel=3, note=103, velocity=62, time=9),
    Message('note_off', channel=3, note=100, velocity=0, time=430),
    Message('note_off', channel=3, note=103, velocity=0, time=57),
    Message('note_on', channel=3, note=93, velocity=67, time=5),
    Message('note_on', channel=3, note=96, velocity=67, time=0),
    Message('note_on', channel=3, note=105, velocity=67, time=3),
    Message('note_on', channel=3, note=100, velocity=67, time=14),
    Message('note_off', channel=3, note=93, velocity=0, time=1028),
    Message('note_off', channel=3, note=96, velocity=0, time=0),
    Message('note_off', channel=3, note=100, velocity=0, time=0),
    Message('note_off', channel=3, note=105, velocity=0, time=0),
    Message('note_on', channel=3, note=103, velocity=63, time=7),
    Message('note_off', channel=3, note=103, velocity=0, time=914),
    Message('note_on', channel=3, note=103, velocity=65, time=96),
    Message('note_on', channel=3, note=108, velocity=65, time=11),
    Message('note_on', channel=3, note=100, velocity=65, time=6),
    Message('note_off', channel=3, note=100, velocity=0, time=894),
    Message('note_off', channel=3, note=103, velocity=0, time=94),
    Message('note_off', channel=3, note=108, velocity=0, time=0),
    Message('note_on', channel=3, note=96, velocity=67, time=5),
    Message('note_on', channel=3, note=100, velocity=67, time=0),
    Message('note_off', channel=3, note=96, velocity=0, time=539),
    Message('note_off', channel=3, note=100, velocity=0, time=0),
    Message('note_on', channel=3, note=101, velocity=62, time=1),
    Message('note_off', channel=3, note=101, velocity=0, time=505),
    Message('note_on', channel=3, note=100, velocity=63, time=1),
    Message('note_off', channel=3, note=100, velocity=0, time=508),
    Message('note_on', channel=3, note=96, velocity=62, time=1),
    Message('note_off', channel=3, note=96, velocity=0, time=506),
    Message('note_on', channel=3, note=91, velocity=65, time=1),
    Message('note_off', channel=3, note=91, velocity=0, time=500),
    Message('note_on', channel=3, note=96, velocity=62, time=1),
    Message('note_off', channel=3, note=96, velocity=0, time=504),
    Message('note_on', channel=3, note=98, velocity=67, time=11),
    Message('note_on', channel=3, note=101, velocity=67, time=0),
    Message('note_on', channel=3, note=105, velocity=67, time=0),
    Message('note_on', channel=3, note=94, velocity=67, time=11),
    Message('note_off', channel=3, note=94, velocity=0, time=944),
    Message('note_off', channel=3, note=98, velocity=0, time=11),
    Message('note_off', channel=3, note=101, velocity=0, time=73),
    Message('note_off', channel=3, note=105, velocity=0, time=0),
    Message('note_on', channel=3, note=94, velocity=63, time=1),
    Message('note_on', channel=3, note=98, velocity=63, time=0),
    Message('note_on', channel=3, note=103, velocity=63, time=1),
    Message('note_off', channel=3, note=94, velocity=0, time=1014),
    Message('note_off', channel=3, note=98, velocity=0, time=0),
    Message('note_off', channel=3, note=103, velocity=0, time=0),
    Message('note_on', channel=3, note=105, velocity=65, time=1),
    Message('note_on', channel=3, note=101, velocity=65, time=5),
    Message('note_on', channel=3, note=110, velocity=65, time=12),
    Message('note_off', channel=3, note=101, velocity=0, time=908),
    Message('note_off', channel=3, note=105, velocity=0, time=6),
    Message('note_off', channel=3, note=110, velocity=0, time=74),
    Message('note_on', channel=3, note=94, velocity=62, time=5),
    Message('note_on', channel=3, note=98, velocity=62, time=0),
    Message('note_on', channel=3, note=101, velocity=62, time=2),
    Message('note_on', channel=3, note=105, velocity=62, time=1),
    Message('note_off', channel=3, note=101, velocity=0, time=1989),
    Message('note_off', channel=3, note=94, velocity=0, time=69),
    Message('note_off', channel=3, note=98, velocity=0, time=0),
    Message('note_off', channel=3, note=105, velocity=0, time=0),
    Message('note_on', channel=3, note=101, velocity=65, time=1),
    Message('note_off', channel=3, note=101, velocity=0, time=500),
    Message('note_on', channel=3, note=103, velocity=62, time=1),
    Message('note_off', channel=3, note=103, velocity=0, time=504),
    Message('note_on', channel=3, note=93, velocity=67, time=5),
    Message('note_on', channel=3, note=96, velocity=67, time=0),
    Message('note_on', channel=3, note=105, velocity=67, time=0),
    Message('note_on', channel=3, note=100, velocity=67, time=17),
    Message('note_off', channel=3, note=93, velocity=0, time=1028),
    Message('note_off', channel=3, note=96, velocity=0, time=0),
    Message('note_off', channel=3, note=100, velocity=0, time=0),
    Message('note_off', channel=3, note=105, velocity=0, time=0),
    Message('note_on', channel=3, note=103, velocity=63, time=17),
    Message('note_off', channel=3, note=103, velocity=0, time=894),
    Message('note_on', channel=3, note=103, velocity=65, time=106),
    Message('note_on', channel=3, note=100, velocity=65, time=2),
    Message('note_on', channel=3, note=108, velocity=65, time=9),
    Message('note_off', channel=3, note=100, velocity=0, time=915),
    Message('note_off', channel=3, note=103, velocity=0, time=79),
    Message('note_off', channel=3, note=108, velocity=0, time=0),
    Message('note_on', channel=3, note=96, velocity=62, time=5),
    Message('note_on', channel=3, note=100, velocity=62, time=0),
    Message('note_on', channel=3, note=105, velocity=62, time=14),
    Message('note_off', channel=3, note=96, velocity=0, time=2047),
    Message('note_off', channel=3, note=100, velocity=0, time=0),
    Message('note_off', channel=3, note=105, velocity=0, time=0),
    Message('note_on', channel=3, note=98, velocity=65, time=1),
    Message('note_on', channel=3, note=101, velocity=65, time=15),
    Message('note_off', channel=3, note=98, velocity=0, time=485),
    Message('note_off', channel=3, note=101, velocity=0, time=0),
    Message('note_on', channel=3, note=100, velocity=62, time=1),
    Message('note_on', channel=3, note=103, velocity=62, time=10),
    Message('note_off', channel=3, note=100, velocity=0, time=494),
    Message('note_off', channel=3, note=103, velocity=0, time=0),
    Message('note_on', channel=3, note=95, velocity=67, time=5),
    Message('note_on', channel=3, note=99, velocity=67, time=0),
    Message('note_on', channel=3, note=104, velocity=67, time=3),
    Message('note_off', channel=3, note=95, velocity=0, time=1042),
    Message('note_off', channel=3, note=99, velocity=0, time=0),
    Message('note_off', channel=3, note=104, velocity=0, time=0),
    Message('note_on', channel=3, note=102, velocity=60, time=16),
    Message('note_off', channel=3, note=102, velocity=0, time=896),
    Message('note_on', channel=3, note=102, velocity=58, time=105),
    Message('note_on', channel=3, note=106, velocity=58, time=0),
    Message('note_on', channel=3, note=111, velocity=58, time=16),
    Message('note_off', channel=3, note=102, velocity=0, time=989),
    Message('note_off', channel=3, note=106, velocity=0, time=0),
    Message('note_off', channel=3, note=111, velocity=0, time=0),
    Message('note_on', channel=3, note=95, velocity=55, time=5),
    Message('note_on', channel=3, note=104, velocity=55, time=16),
    Message('note_off', channel=3, note=95, velocity=0, time=2045),
    Message('note_off', channel=3, note=104, velocity=0, time=0),
    Message('note_on', channel=3, note=102, velocity=52, time=1),
    Message('note_off', channel=3, note=102, velocity=0, time=500),
    Message('note_on', channel=3, note=104, velocity=49, time=1),
    Message('note_off', channel=3, note=104, velocity=0, time=504),
    Message('note_on', channel=3, note=98, velocity=51, time=5),
    Message('note_on', channel=3, note=103, velocity=51, time=2),
    Message('note_on', channel=3, note=94, velocity=51, time=11),
    Message('note_off', channel=3, note=94, velocity=0, time=952),
    Message('note_off', channel=3, note=98, velocity=0, time=80),
    Message('note_off', channel=3, note=103, velocity=0, time=0),
    Message('note_on', channel=3, note=94, velocity=59, time=1),
    Message('note_on', channel=3, note=101, velocity=59, time=4),
    Message('note_on', channel=3, note=96, velocity=59, time=6),
    Message('note_off', channel=3, note=96, velocity=0, time=906),
    Message('note_off', channel=3, note=94, velocity=0, time=99),
    Message('note_off', channel=3, note=101, velocity=0, time=0),
    Message('note_on', channel=3, note=96, velocity=67, time=1),
    Message('note_on', channel=3, note=108, velocity=67, time=14),
    Message('note_off', channel=3, note=96, velocity=0, time=991),
    Message('note_off', channel=3, note=108, velocity=0, time=0),
    Message('note_on', channel=3, note=97, velocity=75, time=5),
    Message('note_on', channel=3, note=102, velocity=75, time=0),
    Message('note_on', channel=3, note=106, velocity=75, time=3),
    Message('note_off', channel=3, note=97, velocity=0, time=3064),
    Message('note_off', channel=3, note=102, velocity=0, time=0),
    Message('note_off', channel=3, note=106, velocity=0, time=0),
    Message('note_on', channel=3, note=98, velocity=75, time=5),
    Message('note_on', channel=3, note=103, velocity=75, time=0),
    Message('note_off', channel=3, note=98, velocity=0, time=3067),
    Message('note_off', channel=3, note=103, velocity=0, time=0),
    MetaMessage('end_of_track', time=0)]),
  MidiTrack([
    MetaMessage('device_name', name='Launchkey Mini MK3', time=0),
    MetaMessage('track_name', name='Vibraphone', time=0),
    Message('program_change', channel=4, program=0, time=0),
    Message('control_change', channel=4, control=7, value=101, time=0),
    Message('control_change', channel=4, control=10, value=84, time=0),
    Message('control_change', channel=4, control=7, value=63, time=0),
    Message('note_on', channel=4, note=69, velocity=49, time=16930),
    Message('note_off', channel=4, note=69, velocity=0, time=507),
    Message('note_on', channel=4, note=74, velocity=50, time=1),
    Message('note_on', channel=4, note=77, velocity=50, time=1),
    Message('note_off', channel=4, note=74, velocity=0, time=503),
    Message('note_off', channel=4, note=77, velocity=0, time=0),
    Message('note_on', channel=4, note=69, velocity=49, time=1),
    Message('note_off', channel=4, note=69, velocity=0, time=509),
    Message('note_on', channel=4, note=74, velocity=52, time=1),
    Message('note_on', channel=4, note=77, velocity=52, time=15),
    Message('note_off', channel=4, note=74, velocity=0, time=494),
    Message('note_off', channel=4, note=77, velocity=0, time=0),
    Message('note_on', channel=4, note=69, velocity=49, time=1),
    Message('note_off', channel=4, note=69, velocity=0, time=504),
    Message('note_on', channel=4, note=74, velocity=50, time=1),
    Message('note_on', channel=4, note=77, velocity=50, time=0),
    Message('note_off', channel=4, note=74, velocity=0, time=504),
    Message('note_off', channel=4, note=77, velocity=0, time=0),
    Message('note_on', channel=4, note=69, velocity=49, time=1),
    Message('note_off', channel=4, note=69, velocity=0, time=506),
    Message('note_on', channel=4, note=69, velocity=49, time=547),
    Message('note_off', channel=4, note=69, velocity=0, time=507),
    Message('note_on', channel=4, note=72, velocity=50, time=1),
    Message('note_on', channel=4, note=76, velocity=50, time=12),
    Message('note_off', channel=4, note=72, velocity=0, time=492),
    Message('note_off', channel=4, note=76, velocity=0, time=0),
    Message('note_on', channel=4, note=69, velocity=49, time=1),
    Message('note_off', channel=4, note=69, velocity=0, time=509),
    Message('note_on', channel=4, note=72, velocity=52, time=1),
    Message('note_on', channel=4, note=76, velocity=52, time=3),
    Message('note_off', channel=4, note=72, velocity=0, time=506),
    Message('note_off', channel=4, note=76, velocity=0, time=0),
    Message('note_on', channel=4, note=69, velocity=49, time=1),
    Message('note_off', channel=4, note=69, velocity=0, time=504),
    Message('note_on', channel=4, note=72, velocity=50, time=1),
    Message('note_on', channel=4, note=76, velocity=50, time=14),
    Message('note_off', channel=4, note=72, velocity=0, time=490),
    Message('note_off', channel=4, note=76, velocity=0, time=0),
    Message('note_on', channel=4, note=69, velocity=49, time=1),
    Message('note_off', channel=4, note=69, velocity=0, time=506),
    Message('note_on', channel=4, note=70, velocity=49, time=547),
    Message('note_off', channel=4, note=70, velocity=0, time=507),
    Message('note_on', channel=4, note=74, velocity=50, time=1),
    Message('note_on', channel=4, note=77, velocity=50, time=13),
    Message('note_off', channel=4, note=74, velocity=0, time=491),
    Message('note_off', channel=4, note=77, velocity=0, time=0),
    Message('note_on', channel=4, note=70, velocity=49, time=1),
    Message('note_off', channel=4, note=70, velocity=0, time=509),
    Message('note_on', channel=4, note=74, velocity=52, time=1),
    Message('note_on', channel=4, note=77, velocity=52, time=1),
    Message('note_off', channel=4, note=74, velocity=0, time=508),
    Message('note_off', channel=4, note=77, velocity=0, time=0),
    Message('note_on', channel=4, note=70, velocity=49, time=1),
    Message('note_off', channel=4, note=70, velocity=0, time=504),
    Message('note_on', channel=4, note=74, velocity=50, time=1),
    Message('note_on', channel=4, note=77, velocity=50, time=7),
    Message('note_off', channel=4, note=74, velocity=0, time=497),
    Message('note_off', channel=4, note=77, velocity=0, time=0),
    Message('note_on', channel=4, note=70, velocity=49, time=1),
    Message('note_off', channel=4, note=70, velocity=0, time=506),
    Message('note_on', channel=4, note=64, velocity=49, time=547),
    Message('note_off', channel=4, note=64, velocity=0, time=507),
    Message('note_on', channel=4, note=69, velocity=50, time=1),
    Message('note_on', channel=4, note=74, velocity=50, time=13),
    Message('note_off', channel=4, note=69, velocity=0, time=491),
    Message('note_off', channel=4, note=74, velocity=0, time=0),
    Message('note_on', channel=4, note=76, velocity=49, time=1),
    Message('note_off', channel=4, note=76, velocity=0, time=509),
    Message('note_on', channel=4, note=64, velocity=49, time=511),
    Message('note_off', channel=4, note=64, velocity=0, time=504),
    Message('note_on', channel=4, note=69, velocity=50, time=1),
    Message('note_on', channel=4, note=73, velocity=50, time=8),
    Message('note_off', channel=4, note=69, velocity=0, time=496),
    Message('note_off', channel=4, note=73, velocity=0, time=0),
    Message('note_on', channel=4, note=76, velocity=49, time=1),
    Message('note_off', channel=4, note=76, velocity=0, time=506),
    Message('note_on', channel=4, note=69, velocity=54, time=24581),
    Message('note_off', channel=4, note=69, velocity=0, time=539),
    Message('note_on', channel=4, note=57, velocity=49, time=1),
    Message('note_off', channel=4, note=57, velocity=0, time=505),
    Message('note_on', channel=4, note=62, velocity=49, time=1),
    Message('note_on', channel=4, note=65, velocity=49, time=0),
    Message('note_on', channel=4, note=69, velocity=49, time=5),
    Message('note_off', channel=4, note=69, velocity=0, time=1926),
    Message('note_off', channel=4, note=62, velocity=0, time=90),
    Message('note_off', channel=4, note=65, velocity=0, time=0),
    Message('note_on', channel=4, note=69, velocity=54, time=5),
    Message('note_off', channel=4, note=69, velocity=0, time=539),
    Message('note_on', channel=4, note=57, velocity=49, time=12),
    Message('note_off', channel=4, note=57, velocity=0, time=394),
    Message('note_on', channel=4, note=53, velocity=50, time=101),
    Message('note_on', channel=4, note=57, velocity=50, time=6),
    Message('note_on', channel=4, note=62, velocity=50, time=1),
    Message('note_off', channel=4, note=62, velocity=0, time=912),
    Message('note_off', channel=4, note=57, velocity=0, time=1),
    Message('note_off', channel=4, note=53, velocity=0, time=95),
    Message('note_on', channel=4, note=57, velocity=52, time=1),
    Message('note_on', channel=4, note=62, velocity=52, time=0),
    Message('note_on', channel=4, note=65, velocity=52, time=15),
    Message('note_off', channel=4, note=57, velocity=0, time=990),
    Message('note_off', channel=4, note=62, velocity=0, time=0),
    Message('note_off', channel=4, note=65, velocity=0, time=0),
    Message('note_on', channel=4, note=55, velocity=54, time=5),
    Message('note_off', channel=4, note=55, velocity=0, time=539),
    Message('note_on', channel=4, note=67, velocity=49, time=1),
    Message('note_off', channel=4, note=67, velocity=0, time=505),
    Message('note_on', channel=4, note=57, velocity=49, time=1),
    Message('note_on', channel=4, note=60, velocity=49, time=0),
    Message('note_on', channel=4, note=64, velocity=49, time=1),
    Message('note_off', channel=4, note=57, velocity=0, time=2020),
    Message('note_off', channel=4, note=60, velocity=0, time=0),
    Message('note_off', channel=4, note=64, velocity=0, time=0),
    Message('note_on', channel=4, note=69, velocity=54, time=5),
    Message('note_off', channel=4, note=69, velocity=0, time=539),
    Message('note_on', channel=4, note=57, velocity=49, time=1),
    Message('note_off', channel=4, note=57, velocity=0, time=505),
    Message('note_on', channel=4, note=59, velocity=50, time=1),
    Message('note_on', channel=4, note=60, velocity=50, time=5),
    Message('note_on', channel=4, note=64, velocity=50, time=1),
    Message('note_on', channel=4, note=67, velocity=50, time=5),
    Message('note_off', channel=4, note=60, velocity=0, time=914),
    Message('note_off', channel=4, note=64, velocity=0, time=4),
    Message('note_off', channel=4, note=59, velocity=0, time=86),
    Message('note_off', channel=4, note=67, velocity=0, time=0),
    Message('note_on', channel=4, note=55, velocity=52, time=1),
    Message('note_on', channel=4, note=57, velocity=52, time=0),
    Message('note_on', channel=4, note=60, velocity=52, time=4),
    Message('note_on', channel=4, note=64, velocity=52, time=5),
    Message('note_off', channel=4, note=55, velocity=0, time=996),
    Message('note_off', channel=4, note=57, velocity=0, time=0),
    Message('note_off', channel=4, note=60, velocity=0, time=0),
    Message('note_off', channel=4, note=64, velocity=0, time=0),
    Message('note_on', channel=4, note=68, velocity=54, time=5),
    Message('note_off', channel=4, note=68, velocity=0, time=539),
    Message('note_on', channel=4, note=56, velocity=49, time=8),
    Message('note_off', channel=4, note=56, velocity=0, time=396),
    Message('note_on', channel=4, note=56, velocity=49, time=103),
    Message('note_on', channel=4, note=59, velocity=49, time=0),
    Message('note_on', channel=4, note=65, velocity=49, time=5),
    Message('note_off', channel=4, note=56, velocity=0, time=2016),
    Message('note_off', channel=4, note=59, velocity=0, time=0),
    Message('note_off', channel=4, note=65, velocity=0, time=0),
    Message('note_on', channel=4, note=68, velocity=54, time=5),
    Message('note_off', channel=4, note=68, velocity=0, time=539),
    Message('note_on', channel=4, note=56, velocity=49, time=15),
    Message('note_off', channel=4, note=56, velocity=0, time=382),
    Message('note_on', channel=4, note=56, velocity=49, time=110),
    Message('note_on', channel=4, note=59, velocity=49, time=0),
    Message('note_on', channel=4, note=65, velocity=49, time=15),
    Message('note_off', channel=4, note=56, velocity=0, time=2006),
    Message('note_off', channel=4, note=59, velocity=0, time=0),
    Message('note_off', channel=4, note=65, velocity=0, time=0),
    Message('note_on', channel=4, note=55, velocity=54, time=5),
    Message('note_off', channel=4, note=55, velocity=0, time=1045),
    Message('note_on', channel=4, note=53, velocity=49, time=1),
    Message('note_on', channel=4, note=58, velocity=49, time=0),
    Message('note_on', channel=4, note=60, velocity=49, time=5),
    Message('note_off', channel=4, note=53, velocity=0, time=2016),
    Message('note_off', channel=4, note=58, velocity=0, time=0),
    Message('note_off', channel=4, note=60, velocity=0, time=0),
    Message('note_on', channel=4, note=54, velocity=54, time=5),
    Message('note_off', channel=4, note=54, velocity=0, time=1045),
    Message('note_on', channel=4, note=60, velocity=50, time=1),
    Message('note_on', channel=4, note=65, velocity=50, time=15),
    Message('note_off', channel=4, note=60, velocity=0, time=1000),
    Message('note_off', channel=4, note=65, velocity=0, time=0),
    Message('note_on', channel=4, note=77, velocity=52, time=1),
    Message('note_on', channel=4, note=82, velocity=52, time=0),
    Message('note_off', channel=4, note=77, velocity=0, time=1005),
    Message('note_off', channel=4, note=82, velocity=0, time=0),
    Message('note_on', channel=4, note=62, velocity=54, time=16389),
    Message('note_off', channel=4, note=62, velocity=0, time=541),
    Message('note_on', channel=4, note=69, velocity=49, time=1),
    Message('note_off', channel=4, note=69, velocity=0, time=507),
    Message('note_on', channel=4, note=72, velocity=49, time=1),
    Message('note_on', channel=4, note=76, velocity=49, time=0),
    Message('note_on', channel=4, note=79, velocity=49, time=3),
    Message('note_off', channel=4, note=72, velocity=0, time=3038),
    Message('note_off', channel=4, note=76, velocity=0, time=0),
    Message('note_off', channel=4, note=79, velocity=0, time=0),
    Message('note_on', channel=4, note=62, velocity=54, time=5),
    Message('note_off', channel=4, note=62, velocity=0, time=541),
    Message('note_on', channel=4, note=69, velocity=49, time=1),
    Message('note_off', channel=4, note=69, velocity=0, time=507),
    Message('note_on', channel=4, note=72, velocity=49, time=1),
    Message('note_on', channel=4, note=76, velocity=49, time=0),
    Message('note_on', channel=4, note=79, velocity=49, time=0),
    Message('note_off', channel=4, note=72, velocity=0, time=3041),
    Message('note_off', channel=4, note=76, velocity=0, time=0),
    Message('note_off', channel=4, note=79, velocity=0, time=0),
    Message('note_on', channel=4, note=62, velocity=54, time=5),
    Message('note_off', channel=4, note=62, velocity=0, time=541),
    Message('note_on', channel=4, note=69, velocity=49, time=1),
    Message('note_off', channel=4, note=69, velocity=0, time=507),
    Message('note_on', channel=4, note=72, velocity=49, time=1),
    Message('note_on', channel=4, note=76, velocity=49, time=0),
    Message('note_on', channel=4, note=79, velocity=49, time=10),
    Message('note_off', channel=4, note=72, velocity=0, time=3031),
    Message('note_off', channel=4, note=76, velocity=0, time=0),
    Message('note_off', channel=4, note=79, velocity=0, time=0),
    Message('note_on', channel=4, note=62, velocity=54, time=5),
    Message('note_off', channel=4, note=62, velocity=0, time=541),
    Message('note_on', channel=4, note=69, velocity=49, time=1),
    Message('note_off', channel=4, note=69, velocity=0, time=507),
    Message('note_on', channel=4, note=72, velocity=49, time=1),
    Message('note_on', channel=4, note=76, velocity=49, time=0),
    Message('note_on', channel=4, note=79, velocity=49, time=2),
    Message('note_off', channel=4, note=72, velocity=0, time=3039),
    Message('note_off', channel=4, note=76, velocity=0, time=0),
    Message('note_off', channel=4, note=79, velocity=0, time=0),
    Message('note_on', channel=4, note=69, velocity=49, time=547),
    Message('note_off', channel=4, note=69, velocity=0, time=507),
    Message('note_on', channel=4, note=74, velocity=50, time=1),
    Message('note_on', channel=4, note=77, velocity=50, time=16),
    Message('note_off', channel=4, note=74, velocity=0, time=488),
    Message('note_off', channel=4, note=77, velocity=0, time=0),
    Message('note_on', channel=4, note=69, velocity=49, time=1),
    Message('note_off', channel=4, note=69, velocity=0, time=509),
    Message('note_on', channel=4, note=74, velocity=52, time=1),
    Message('note_on', channel=4, note=77, velocity=52, time=0),
    Message('note_off', channel=4, note=74, velocity=0, time=509),
    Message('note_off', channel=4, note=77, velocity=0, time=0),
    Message('note_on', channel=4, note=69, velocity=49, time=1),
    Message('note_off', channel=4, note=69, velocity=0, time=504),
    Message('note_on', channel=4, note=74, velocity=50, time=1),
    Message('note_on', channel=4, note=77, velocity=50, time=17),
    Message('note_off', channel=4, note=74, velocity=0, time=487),
    Message('note_off', channel=4, note=77, velocity=0, time=0),
    Message('note_on', channel=4, note=69, velocity=49, time=1),
    Message('note_off', channel=4, note=69, velocity=0, time=506),
    Message('note_on', channel=4, note=69, velocity=49, time=547),
    Message('note_off', channel=4, note=69, velocity=0, time=507),
    Message('note_on', channel=4, note=72, velocity=50, time=1),
    Message('note_on', channel=4, note=76, velocity=50, time=6),
    Message('note_off', channel=4, note=72, velocity=0, time=498),
    Message('note_off', channel=4, note=76, velocity=0, time=0),
    Message('note_on', channel=4, note=69, velocity=49, time=1),
    Message('note_off', channel=4, note=69, velocity=0, time=509),
    Message('note_on', channel=4, note=72, velocity=52, time=1),
    Message('note_on', channel=4, note=76, velocity=52, time=7),
    Message('note_off', channel=4, note=72, velocity=0, time=502),
    Message('note_off', channel=4, note=76, velocity=0, time=0),
    Message('note_on', channel=4, note=69, velocity=49, time=1),
    Message('note_off', channel=4, note=69, velocity=0, time=504),
    Message('note_on', channel=4, note=72, velocity=50, time=1),
    Message('note_on', channel=4, note=76, velocity=50, time=13),
    Message('note_off', channel=4, note=72, velocity=0, time=491),
    Message('note_off', channel=4, note=76, velocity=0, time=0),
    Message('note_on', channel=4, note=69, velocity=49, time=1),
    Message('note_off', channel=4, note=69, velocity=0, time=506),
    Message('note_on', channel=4, note=70, velocity=49, time=547),
    Message('note_off', channel=4, note=70, velocity=0, time=507),
    Message('note_on', channel=4, note=74, velocity=50, time=1),
    Message('note_on', channel=4, note=77, velocity=50, time=2),
    Message('note_off', channel=4, note=74, velocity=0, time=502),
    Message('note_off', channel=4, note=77, velocity=0, time=0),
    Message('note_on', channel=4, note=70, velocity=49, time=1),
    Message('note_off', channel=4, note=70, velocity=0, time=509),
    Message('note_on', channel=4, note=74, velocity=52, time=1),
    Message('note_on', channel=4, note=77, velocity=52, time=2),
    Message('note_off', channel=4, note=74, velocity=0, time=507),
    Message('note_off', channel=4, note=77, velocity=0, time=0),
    Message('note_on', channel=4, note=70, velocity=49, time=1),
    Message('note_off', channel=4, note=70, velocity=0, time=504),
    Message('note_on', channel=4, note=74, velocity=50, time=1),
    Message('note_on', channel=4, note=77, velocity=50, time=7),
    Message('note_off', channel=4, note=74, velocity=0, time=497),
    Message('note_off', channel=4, note=77, velocity=0, time=0),
    Message('note_on', channel=4, note=70, velocity=49, time=1),
    Message('note_off', channel=4, note=70, velocity=0, time=506),
    Message('note_on', channel=4, note=64, velocity=49, time=547),
    Message('note_off', channel=4, note=64, velocity=0, time=507),
    Message('note_on', channel=4, note=69, velocity=50, time=1),
    Message('note_on', channel=4, note=74, velocity=50, time=9),
    Message('note_off', channel=4, note=69, velocity=0, time=495),
    Message('note_off', channel=4, note=74, velocity=0, time=0),
    Message('note_on', channel=4, note=76, velocity=49, time=1),
    Message('note_off', channel=4, note=76, velocity=0, time=509),
    Message('note_on', channel=4, note=64, velocity=49, time=511),
    Message('note_off', channel=4, note=64, velocity=0, time=504),
    Message('note_on', channel=4, note=69, velocity=50, time=1),
    Message('note_on', channel=4, note=73, velocity=50, time=2),
    Message('note_off', channel=4, note=69, velocity=0, time=502),
    Message('note_off', channel=4, note=73, velocity=0, time=0),
    Message('note_on', channel=4, note=76, velocity=49, time=1),
    Message('note_off', channel=4, note=76, velocity=0, time=506),
    Message('note_on', channel=4, note=69, velocity=54, time=5),
    Message('note_off', channel=4, note=69, velocity=0, time=539),
    Message('note_on', channel=4, note=57, velocity=49, time=1),
    Message('note_off', channel=4, note=57, velocity=0, time=505),
    Message('note_on', channel=4, note=74, velocity=49, time=1),
    Message('note_on', channel=4, note=77, velocity=49, time=0),
    Message('note_on', channel=4, note=81, velocity=49, time=7),
    Message('note_off', channel=4, note=74, velocity=0, time=2014),
    Message('note_off', channel=4, note=77, velocity=0, time=0),
    Message('note_off', channel=4, note=81, velocity=0, time=0),
    Message('note_on', channel=4, note=69, velocity=54, time=5),
    Message('note_off', channel=4, note=69, velocity=0, time=539),
    Message('note_on', channel=4, note=57, velocity=49, time=1),
    Message('note_off', channel=4, note=57, velocity=0, time=505),
    Message('note_on', channel=4, note=65, velocity=50, time=1),
    Message('note_on', channel=4, note=74, velocity=50, time=1),
    Message('note_on', channel=4, note=69, velocity=50, time=10),
    Message('note_off', channel=4, note=69, velocity=0, time=904),
    Message('note_off', channel=4, note=74, velocity=0, time=10),
    Message('note_off', channel=4, note=65, velocity=0, time=90),
    Message('note_on', channel=4, note=69, velocity=52, time=1),
    Message('note_on', channel=4, note=74, velocity=52, time=0),
    Message('note_on', channel=4, note=77, velocity=52, time=11),
    Message('note_off', channel=4, note=69, velocity=0, time=994),
    Message('note_off', channel=4, note=74, velocity=0, time=0),
    Message('note_off', channel=4, note=77, velocity=0, time=0),
    Message('note_on', channel=4, note=57, velocity=54, time=5),
    Message('note_off', channel=4, note=57, velocity=0, time=539),
    Message('note_on', channel=4, note=67, velocity=49, time=1),
    Message('note_off', channel=4, note=67, velocity=0, time=505),
    Message('note_on', channel=4, note=72, velocity=49, time=1),
    Message('note_on', channel=4, note=76, velocity=49, time=3),
    Message('note_on', channel=4, note=69, velocity=49, time=13),
    Message('note_off', channel=4, note=69, velocity=0, time=1904),
    Message('note_off', channel=4, note=72, velocity=0, time=101),
    Message('note_off', channel=4, note=76, velocity=0, time=0),
    Message('note_on', channel=4, note=69, velocity=54, time=5),
    Message('note_off', channel=4, note=69, velocity=0, time=539),
    Message('note_on', channel=4, note=57, velocity=49, time=1),
    Message('note_off', channel=4, note=57, velocity=0, time=505),
    Message('note_on', channel=4, note=71, velocity=50, time=1),
    Message('note_on', channel=4, note=72, velocity=50, time=14),
    Message('note_on', channel=4, note=79, velocity=50, time=1),
    Message('note_on', channel=4, note=76, velocity=50, time=2),
    Message('note_off', channel=4, note=72, velocity=0, time=899),
    Message('note_off', channel=4, note=76, velocity=0, time=0),
    Message('note_off', channel=4, note=71, velocity=0, time=99),
    Message('note_off', channel=4, note=79, velocity=0, time=0),
    Message('note_on', channel=4, note=67, velocity=52, time=1),
    Message('note_on', channel=4, note=69, velocity=52, time=0),
    Message('note_on', channel=4, note=72, velocity=52, time=4),
    Message('note_on', channel=4, note=76, velocity=52, time=3),
    Message('note_off', channel=4, note=67, velocity=0, time=998),
    Message('note_off', channel=4, note=69, velocity=0, time=0),
    Message('note_off', channel=4, note=72, velocity=0, time=0),
    Message('note_off', channel=4, note=76, velocity=0, time=0),
    Message('note_on', channel=4, note=58, velocity=54, time=5),
    Message('note_off', channel=4, note=58, velocity=0, time=1045),
    Message('note_on', channel=4, note=74, velocity=49, time=1),
    Message('note_on', channel=4, note=77, velocity=49, time=0),
    Message('note_on', channel=4, note=81, velocity=49, time=1),
    Message('note_off', channel=4, note=74, velocity=0, time=2020),
    Message('note_off', channel=4, note=77, velocity=0, time=0),
    Message('note_off', channel=4, note=81, velocity=0, time=0),
    Message('note_on', channel=4, note=58, velocity=54, time=5),
    Message('note_off', channel=4, note=58, velocity=0, time=1045),
    Message('note_on', channel=4, note=65, velocity=50, time=1),
    Message('note_on', channel=4, note=74, velocity=50, time=4),
    Message('note_on', channel=4, note=69, velocity=50, time=7),
    Message('note_off', channel=4, note=69, velocity=0, time=904),
    Message('note_off', channel=4, note=74, velocity=0, time=7),
    Message('note_off', channel=4, note=65, velocity=0, time=93),
    Message('note_on', channel=4, note=69, velocity=52, time=1),
    Message('note_on', channel=4, note=74, velocity=52, time=0),
    Message('note_on', channel=4, note=77, velocity=52, time=12),
    Message('note_off', channel=4, note=69, velocity=0, time=993),
    Message('note_off', channel=4, note=74, velocity=0, time=0),
    Message('note_off', channel=4, note=77, velocity=0, time=0),
    Message('note_on', channel=4, note=57, velocity=54, time=5),
    Message('note_off', channel=4, note=57, velocity=0, time=539),
    Message('note_on', channel=4, note=67, velocity=49, time=1),
    Message('note_off', channel=4, note=67, velocity=0, time=505),
    Message('note_on', channel=4, note=69, velocity=49, time=1),
    Message('note_on', channel=4, note=72, velocity=49, time=0),
    Message('note_on', channel=4, note=76, velocity=49, time=17),
    Message('note_off', channel=4, note=69, velocity=0, time=2004),
    Message('note_off', channel=4, note=72, velocity=0, time=0),
    Message('note_off', channel=4, note=76, velocity=0, time=0),
    Message('note_on', channel=4, note=62, velocity=54, time=5),
    Message('note_off', channel=4, note=62, velocity=0, time=539),
    Message('note_on', channel=4, note=69, velocity=49, time=1),
    Message('note_off', channel=4, note=69, velocity=0, time=505),
    Message('note_on', channel=4, note=74, velocity=50, time=1),
    Message('note_off', channel=4, note=74, velocity=0, time=508),
    Message('note_on', channel=4, note=76, velocity=49, time=1),
    Message('note_off', channel=4, note=76, velocity=0, time=506),
    Message('note_on', channel=4, note=77, velocity=52, time=1),
    Message('note_off', channel=4, note=77, velocity=0, time=500),
    Message('note_on', channel=4, note=81, velocity=49, time=1),
    Message('note_off', channel=4, note=81, velocity=0, time=504),
    Message('note_on', channel=4, note=69, velocity=54, time=5),
    Message('note_off', channel=4, note=69, velocity=0, time=539),
    Message('note_on', channel=4, note=57, velocity=49, time=1),
    Message('note_off', channel=4, note=57, velocity=0, time=505),
    Message('note_on', channel=4, note=62, velocity=49, time=1),
    Message('note_on', channel=4, note=65, velocity=49, time=0),
    Message('note_on', channel=4, note=69, velocity=49, time=11),
    Message('note_off', channel=4, note=69, velocity=0, time=1914),
    Message('note_off', channel=4, note=62, velocity=0, time=96),
    Message('note_off', channel=4, note=65, velocity=0, time=0),
    Message('note_on', channel=4, note=69, velocity=54, time=5),
    Message('note_off', channel=4, note=69, velocity=0, time=539),
    Message('note_on', channel=4, note=57, velocity=49, time=15),
    Message('note_off', channel=4, note=57, velocity=0, time=399),
    Message('note_on', channel=4, note=53, velocity=50, time=93),
    Message('note_on', channel=4, note=62, velocity=50, time=11),
    Message('note_on', channel=4, note=57, velocity=50, time=6),
    Message('note_off', channel=4, note=57, velocity=0, time=892),
    Message('note_off', channel=4, note=62, velocity=0, time=6),
    Message('note_off', channel=4, note=53, velocity=0, time=100),
    Message('note_on', channel=4, note=57, velocity=52, time=1),
    Message('note_on', channel=4, note=62, velocity=52, time=0),
    Message('note_on', channel=4, note=65, velocity=52, time=7),
    Message('note_off', channel=4, note=57, velocity=0, time=998),
    Message('note_off', channel=4, note=62, velocity=0, time=0),
    Message('note_off', channel=4, note=65, velocity=0, time=0),
    Message('note_on', channel=4, note=55, velocity=54, time=5),
    Message('note_off', channel=4, note=55, velocity=0, time=539),
    Message('note_on', channel=4, note=67, velocity=49, time=1),
    Message('note_off', channel=4, note=67, velocity=0, time=505),
    Message('note_on', channel=4, note=57, velocity=49, time=1),
    Message('note_on', channel=4, note=60, velocity=49, time=0),
    Message('note_on', channel=4, note=64, velocity=49, time=16),
    Message('note_off', channel=4, note=57, velocity=0, time=2005),
    Message('note_off', channel=4, note=60, velocity=0, time=0),
    Message('note_off', channel=4, note=64, velocity=0, time=0),
    Message('note_on', channel=4, note=69, velocity=54, time=5),
    Message('note_off', channel=4, note=69, velocity=0, time=539),
    Message('note_on', channel=4, note=57, velocity=49, time=1),
    Message('note_off', channel=4, note=57, velocity=0, time=505),
    Message('note_on', channel=4, note=59, velocity=50, time=1),
    Message('note_on', channel=4, note=60, velocity=50, time=1),
    Message('note_on', channel=4, note=64, velocity=50, time=1),
    Message('note_on', channel=4, note=67, velocity=50, time=6),
    Message('note_off', channel=4, note=64, velocity=0, time=916),
    Message('note_off', channel=4, note=60, velocity=0, time=14),
    Message('note_off', channel=4, note=59, velocity=0, time=77),
    Message('note_off', channel=4, note=67, velocity=0, time=0),
    Message('note_on', channel=4, note=55, velocity=52, time=1),
    Message('note_on', channel=4, note=57, velocity=52, time=0),
    Message('note_on', channel=4, note=64, velocity=52, time=0),
    Message('note_on', channel=4, note=60, velocity=52, time=13),
    Message('note_off', channel=4, note=55, velocity=0, time=992),
    Message('note_off', channel=4, note=57, velocity=0, time=0),
    Message('note_off', channel=4, note=60, velocity=0, time=0),
    Message('note_off', channel=4, note=64, velocity=0, time=0),
    Message('note_on', channel=4, note=68, velocity=54, time=5),
    Message('note_off', channel=4, note=68, velocity=0, time=539),
    Message('note_on', channel=4, note=56, velocity=49, time=11),
    Message('note_off', channel=4, note=56, velocity=0, time=390),
    Message('note_on', channel=4, note=56, velocity=49, time=106),
    Message('note_on', channel=4, note=59, velocity=49, time=0),
    Message('note_on', channel=4, note=65, velocity=49, time=4),
    Message('note_off', channel=4, note=56, velocity=0, time=2017),
    Message('note_off', channel=4, note=59, velocity=0, time=0),
    Message('note_off', channel=4, note=65, velocity=0, time=0),
    Message('note_on', channel=4, note=68, velocity=54, time=5),
    Message('note_off', channel=4, note=68, velocity=0, time=539),
    Message('note_on', channel=4, note=56, velocity=49, time=6),
    Message('note_off', channel=4, note=56, velocity=0, time=400),
    Message('note_on', channel=4, note=56, velocity=49, time=101),
    Message('note_on', channel=4, note=59, velocity=49, time=0),
    Message('note_on', channel=4, note=65, velocity=49, time=11),
    Message('note_off', channel=4, note=56, velocity=0, time=2010),
    Message('note_off', channel=4, note=59, velocity=0, time=0),
    Message('note_off', channel=4, note=65, velocity=0, time=0),
    Message('note_on', channel=4, note=55, velocity=54, time=5),
    Message('note_off', channel=4, note=55, velocity=0, time=1045),
    Message('note_on', channel=4, note=53, velocity=49, time=1),
    Message('note_on', channel=4, note=58, velocity=49, time=0),
    Message('note_on', channel=4, note=60, velocity=49, time=11),
    Message('note_off', channel=4, note=53, velocity=0, time=2010),
    Message('note_off', channel=4, note=58, velocity=0, time=0),
    Message('note_off', channel=4, note=60, velocity=0, time=0),
    Message('note_on', channel=4, note=54, velocity=54, time=5),
    Message('note_off', channel=4, note=54, velocity=0, time=1045),
    Message('note_on', channel=4, note=60, velocity=50, time=1),
    Message('note_on', channel=4, note=65, velocity=50, time=7),
    Message('note_off', channel=4, note=60, velocity=0, time=1008),
    Message('note_off', channel=4, note=65, velocity=0, time=0),
    Message('note_on', channel=4, note=77, velocity=52, time=1),
    Message('note_on', channel=4, note=82, velocity=52, time=1),
    Message('note_off', channel=4, note=77, velocity=0, time=1004),
    Message('note_off', channel=4, note=82, velocity=0, time=0),
    Message('note_on', channel=4, note=74, velocity=49, time=5),
    Message('note_on', channel=4, note=79, velocity=49, time=0),
    Message('note_off', channel=4, note=74, velocity=0, time=3067),
    Message('note_off', channel=4, note=79, velocity=0, time=0),
    MetaMessage('end_of_track', time=0)]),
  MidiTrack([
    MetaMessage('device_name', name='Launchkey Mini MK3', time=0),
    MetaMessage('track_name', name='Marimba', time=0),
    Message('program_change', channel=5, program=0, time=0),
    Message('control_change', channel=5, control=7, value=101, time=0),
    Message('control_change', channel=5, control=10, value=120, time=0),
    Message('control_change', channel=5, control=7, value=63, time=0),
    Message('control_change', channel=5, control=7, value=70, time=0),
    Message('control_change', channel=5, control=7, value=63, time=16350),
    Message('note_on', channel=5, note=50, velocity=49, time=38),
    Message('control_change', channel=5, control=7, value=70, time=468),
    Message('note_on', channel=5, note=57, velocity=49, time=74),
    Message('note_off', channel=5, note=57, velocity=0, time=507),
    Message('note_on', channel=5, note=62, velocity=50, time=1),
    Message('note_on', channel=5, note=65, velocity=50, time=16),
    Message('note_off', channel=5, note=62, velocity=0, time=488),
    Message('note_off', channel=5, note=65, velocity=0, time=0),
    Message('note_on', channel=5, note=57, velocity=49, time=1),
    Message('note_off', channel=5, note=57, velocity=0, time=509),
    Message('note_on', channel=5, note=62, velocity=52, time=1),
    Message('note_on', channel=5, note=65, velocity=52, time=9),
    Message('note_off', channel=5, note=62, velocity=0, time=500),
    Message('note_off', channel=5, note=65, velocity=0, time=0),
    Message('note_on', channel=5, note=57, velocity=49, time=1),
    Message('note_off', channel=5, note=57, velocity=0, time=504),
    Message('note_on', channel=5, note=62, velocity=50, time=1),
    Message('note_on', channel=5, note=65, velocity=50, time=11),
    Message('note_off', channel=5, note=62, velocity=0, time=493),
    Message('note_off', channel=5, note=65, velocity=0, time=0),
    Message('note_on', channel=5, note=57, velocity=49, time=1),
    Message('note_off', channel=5, note=57, velocity=0, time=506),
    Message('note_off', channel=5, note=50, velocity=0, time=0),
    Message('note_on', channel=5, note=48, velocity=49, time=5),
    Message('note_on', channel=5, note=57, velocity=49, time=542),
    Message('note_off', channel=5, note=57, velocity=0, time=507),
    Message('note_on', channel=5, note=60, velocity=50, time=1),
    Message('note_on', channel=5, note=64, velocity=50, time=10),
    Message('note_off', channel=5, note=60, velocity=0, time=494),
    Message('note_off', channel=5, note=64, velocity=0, time=0),
    Message('note_on', channel=5, note=57, velocity=49, time=1),
    Message('note_off', channel=5, note=57, velocity=0, time=509),
    Message('note_on', channel=5, note=60, velocity=52, time=1),
    Message('note_on', channel=5, note=64, velocity=52, time=3),
    Message('note_off', channel=5, note=60, velocity=0, time=506),
    Message('note_off', channel=5, note=64, velocity=0, time=0),
    Message('note_on', channel=5, note=57, velocity=49, time=1),
    Message('note_off', channel=5, note=57, velocity=0, time=504),
    Message('note_on', channel=5, note=60, velocity=50, time=1),
    Message('note_on', channel=5, note=64, velocity=50, time=3),
    Message('note_off', channel=5, note=60, velocity=0, time=501),
    Message('note_off', channel=5, note=64, velocity=0, time=0),
    Message('note_on', channel=5, note=57, velocity=49, time=1),
    Message('note_off', channel=5, note=57, velocity=0, time=506),
    Message('note_off', channel=5, note=48, velocity=0, time=0),
    Message('note_on', channel=5, note=46, velocity=49, time=5),
    Message('note_on', channel=5, note=58, velocity=49, time=542),
    Message('note_off', channel=5, note=58, velocity=0, time=507),
    Message('note_on', channel=5, note=62, velocity=50, time=1),
    Message('note_on', channel=5, note=65, velocity=50, time=5),
    Message('note_off', channel=5, note=62, velocity=0, time=499),
    Message('note_off', channel=5, note=65, velocity=0, time=0),
    Message('note_on', channel=5, note=58, velocity=49, time=1),
    Message('note_off', channel=5, note=58, velocity=0, time=509),
    Message('note_on', channel=5, note=62, velocity=52, time=1),
    Message('note_on', channel=5, note=65, velocity=52, time=16),
    Message('note_off', channel=5, note=62, velocity=0, time=493),
    Message('note_off', channel=5, note=65, velocity=0, time=0),
    Message('note_on', channel=5, note=58, velocity=49, time=1),
    Message('note_off', channel=5, note=58, velocity=0, time=504),
    Message('note_on', channel=5, note=62, velocity=50, time=1),
    Message('note_on', channel=5, note=65, velocity=50, time=7),
    Message('note_off', channel=5, note=62, velocity=0, time=497),
    Message('note_off', channel=5, note=65, velocity=0, time=0),
    Message('note_on', channel=5, note=58, velocity=49, time=1),
    Message('note_off', channel=5, note=58, velocity=0, time=506),
    Message('note_off', channel=5, note=46, velocity=0, time=0),
    Message('note_on', channel=5, note=45, velocity=54, time=12),
    Message('note_on', channel=5, note=52, velocity=49, time=535),
    Message('note_off', channel=5, note=52, velocity=0, time=507),
    Message('note_on', channel=5, note=57, velocity=50, time=1),
    Message('note_on', channel=5, note=62, velocity=50, time=12),
    Message('note_off', channel=5, note=57, velocity=0, time=492),
    Message('note_off', channel=5, note=62, velocity=0, time=0),
    Message('note_on', channel=5, note=64, velocity=49, time=1),
    Message('note_off', channel=5, note=45, velocity=0, time=435),
    Message('note_off', channel=5, note=64, velocity=0, time=74),
    Message('note_on', channel=5, note=45, velocity=52, time=1),
    Message('note_on', channel=5, note=52, velocity=49, time=510),
    Message('note_off', channel=5, note=52, velocity=0, time=504),
    Message('note_on', channel=5, note=57, velocity=50, time=1),
    Message('note_on', channel=5, note=61, velocity=50, time=14),
    Message('note_off', channel=5, note=57, velocity=0, time=490),
    Message('note_off', channel=5, note=61, velocity=0, time=0),
    Message('note_on', channel=5, note=64, velocity=49, time=1),
    Message('note_off', channel=5, note=64, velocity=0, time=506),
    Message('note_off', channel=5, note=45, velocity=0, time=0),
    Message('control_change', channel=5, control=7, value=63, time=240),
    Message('control_change', channel=5, control=7, value=70, time=0),
    Message('control_change', channel=5, control=7, value=63, time=24303),
    Message('note_on', channel=5, note=58, velocity=54, time=38),
    Message('note_off', channel=5, note=58, velocity=0, time=539),
    Message('note_on', channel=5, note=46, velocity=49, time=1),
    Message('control_change', channel=5, control=7, value=70, time=440),
    Message('note_off', channel=5, note=46, velocity=0, time=65),
    Message('note_on', channel=5, note=62, velocity=49, time=1),
    Message('note_on', channel=5, note=65, velocity=49, time=0),
    Message('note_on', channel=5, note=69, velocity=49, time=9),
    Message('note_off', channel=5, note=62, velocity=0, time=2012),
    Message('note_off', channel=5, note=65, velocity=0, time=0),
    Message('note_off', channel=5, note=69, velocity=0, time=0),
    Message('note_on', channel=5, note=58, velocity=54, time=5),
    Message('note_off', channel=5, note=58, velocity=0, time=539),
    Message('note_on', channel=5, note=46, velocity=49, time=1),
    Message('note_off', channel=5, note=46, velocity=0, time=505),
    Message('note_on', channel=5, note=53, velocity=50, time=1),
    Message('note_on', channel=5, note=57, velocity=50, time=1),
    Message('note_on', channel=5, note=62, velocity=50, time=11),
    Message('control_change', channel=5, control=7, value=63, time=201),
    Message('note_off', channel=5, note=62, velocity=0, time=701),
    Message('note_off', channel=5, note=57, velocity=0, time=11),
    Message('note_off', channel=5, note=53, velocity=0, time=90),
    Message('note_on', channel=5, note=57, velocity=52, time=1),
    Message('note_on', channel=5, note=62, velocity=52, time=0),
    Message('note_on', channel=5, note=65, velocity=52, time=5),
    Message('note_off', channel=5, note=57, velocity=0, time=1000),
    Message('note_off', channel=5, note=62, velocity=0, time=0),
    Message('note_off', channel=5, note=65, velocity=0, time=0),
    Message('note_on', channel=5, note=45, velocity=54, time=5),
    Message('control_change', channel=5, control=7, value=70, time=235),
    Message('note_off', channel=5, note=45, velocity=0, time=304),
    Message('note_on', channel=5, note=55, velocity=49, time=1),
    Message('note_off', channel=5, note=55, velocity=0, time=505),
    Message('note_on', channel=5, note=57, velocity=49, time=1),
    Message('note_on', channel=5, note=60, velocity=49, time=0),
    Message('note_on', channel=5, note=64, velocity=49, time=6),
    Message('note_off', channel=5, note=57, velocity=0, time=2015),
    Message('note_off', channel=5, note=60, velocity=0, time=0),
    Message('note_off', channel=5, note=64, velocity=0, time=0),
    Message('note_on', channel=5, note=57, velocity=54, time=5),
    Message('note_off', channel=5, note=57, velocity=0, time=539),
    Message('note_on', channel=5, note=45, velocity=49, time=1),
    Message('note_off', channel=5, note=45, velocity=0, time=505),
    Message('note_on', channel=5, note=59, velocity=50, time=1),
    Message('note_on', channel=5, note=64, velocity=50, time=12),
    Message('note_on', channel=5, note=67, velocity=50, time=1),
    Message('note_on', channel=5, note=60, velocity=50, time=4),
    Message('control_change', channel=5, control=7, value=63, time=196),
    Message('note_off', channel=5, note=60, velocity=0, time=696),
    Message('note_off', channel=5, note=64, velocity=0, time=15),
    Message('note_off', channel=5, note=59, velocity=0, time=91),
    Message('note_off', channel=5, note=67, velocity=0, time=0),
    Message('note_on', channel=5, note=55, velocity=52, time=1),
    Message('note_on', channel=5, note=57, velocity=52, time=0),
    Message('note_on', channel=5, note=60, velocity=52, time=0),
    Message('note_on', channel=5, note=64, velocity=52, time=10),
    Message('note_off', channel=5, note=55, velocity=0, time=995),
    Message('note_off', channel=5, note=57, velocity=0, time=0),
    Message('note_off', channel=5, note=60, velocity=0, time=0),
    Message('note_off', channel=5, note=64, velocity=0, time=0),
    Message('note_on', channel=5, note=56, velocity=54, time=5),
    Message('control_change', channel=5, control=7, value=70, time=235),
    Message('note_off', channel=5, note=56, velocity=0, time=304),
    Message('note_on', channel=5, note=44, velocity=49, time=1),
    Message('note_off', channel=5, note=44, velocity=0, time=505),
    Message('note_on', channel=5, note=56, velocity=49, time=1),
    Message('note_on', channel=5, note=59, velocity=49, time=0),
    Message('note_on', channel=5, note=65, velocity=49, time=1),
    Message('note_off', channel=5, note=56, velocity=0, time=2020),
    Message('note_off', channel=5, note=59, velocity=0, time=0),
    Message('note_off', channel=5, note=65, velocity=0, time=0),
    Message('note_on', channel=5, note=56, velocity=54, time=5),
    Message('note_off', channel=5, note=56, velocity=0, time=539),
    Message('note_on', channel=5, note=44, velocity=49, time=1),
    Message('note_off', channel=5, note=44, velocity=0, time=505),
    Message('note_on', channel=5, note=56, velocity=49, time=1),
    Message('note_on', channel=5, note=59, velocity=49, time=0),
    Message('note_on', channel=5, note=65, velocity=49, time=12),
    Message('control_change', channel=5, control=7, value=63, time=201),
    Message('note_off', channel=5, note=56, velocity=0, time=1808),
    Message('note_off', channel=5, note=59, velocity=0, time=0),
    Message('note_off', channel=5, note=65, velocity=0, time=0),
    Message('note_on', channel=5, note=43, velocity=54, time=5),
    Message('control_change', channel=5, control=7, value=70, time=235),
    Message('note_off', channel=5, note=43, velocity=0, time=810),
    Message('note_on', channel=5, note=53, velocity=49, time=1),
    Message('note_on', channel=5, note=58, velocity=49, time=0),
    Message('note_on', channel=5, note=60, velocity=49, time=9),
    Message('note_off', channel=5, note=53, velocity=0, time=2012),
    Message('note_off', channel=5, note=58, velocity=0, time=0),
    Message('note_off', channel=5, note=60, velocity=0, time=0),
    Message('note_on', channel=5, note=42, velocity=54, time=5),
    Message('note_off', channel=5, note=42, velocity=0, time=1045),
    Message('note_on', channel=5, note=60, velocity=50, time=1),
    Message('note_on', channel=5, note=65, velocity=50, time=0),
    Message('note_off', channel=5, note=60, velocity=0, time=1015),
    Message('note_off', channel=5, note=65, velocity=0, time=0),
    Message('note_on', channel=5, note=65, velocity=52, time=1),
    Message('note_on', channel=5, note=70, velocity=52, time=0),
    Message('control_change', channel=5, control=7, value=63, time=221),
    Message('note_off', channel=5, note=65, velocity=0, time=784),
    Message('note_off', channel=5, note=70, velocity=0, time=0),
    Message('control_change', channel=5, control=7, value=70, time=240),
    Message('control_change', channel=5, control=7, value=63, time=16105),
    Message('note_on', channel=5, note=50, velocity=54, time=44),
    Message('note_off', channel=5, note=50, velocity=0, time=541),
    Message('note_on', channel=5, note=57, velocity=49, time=1),
    Message('control_change', channel=5, control=7, value=70, time=438),
    Message('note_off', channel=5, note=57, velocity=0, time=69),
    Message('note_on', channel=5, note=60, velocity=49, time=1),
    Message('note_on', channel=5, note=64, velocity=49, time=0),
    Message('note_on', channel=5, note=67, velocity=49, time=5),
    Message('note_off', channel=5, note=60, velocity=0, time=3036),
    Message('note_off', channel=5, note=64, velocity=0, time=0),
    Message('note_off', channel=5, note=67, velocity=0, time=0),
    Message('note_on', channel=5, note=50, velocity=54, time=5),
    Message('note_off', channel=5, note=50, velocity=0, time=541),
    Message('note_on', channel=5, note=57, velocity=49, time=1),
    Message('note_off', channel=5, note=57, velocity=0, time=507),
    Message('note_on', channel=5, note=60, velocity=49, time=1),
    Message('note_on', channel=5, note=64, velocity=49, time=0),
    Message('note_on', channel=5, note=67, velocity=49, time=6),
    Message('control_change', channel=5, control=7, value=63, time=203),
    Message('note_off', channel=5, note=60, velocity=0, time=2832),
    Message('note_off', channel=5, note=64, velocity=0, time=0),
    Message('note_off', channel=5, note=67, velocity=0, time=0),
    Message('note_on', channel=5, note=50, velocity=54, time=5),
    Message('control_change', channel=5, control=7, value=70, time=235),
    Message('note_off', channel=5, note=50, velocity=0, time=306),
    Message('note_on', channel=5, note=57, velocity=49, time=1),
    Message('note_off', channel=5, note=57, velocity=0, time=507),
    Message('note_on', channel=5, note=60, velocity=49, time=1),
    Message('note_on', channel=5, note=64, velocity=49, time=0),
    Message('note_on', channel=5, note=67, velocity=49, time=17),
    Message('note_off', channel=5, note=60, velocity=0, time=3024),
    Message('note_off', channel=5, note=64, velocity=0, time=0),
    Message('note_off', channel=5, note=67, velocity=0, time=0),
    Message('note_on', channel=5, note=50, velocity=54, time=5),
    Message('note_off', channel=5, note=50, velocity=0, time=541),
    Message('note_on', channel=5, note=57, velocity=49, time=1),
    Message('note_off', channel=5, note=57, velocity=0, time=507),
    Message('note_on', channel=5, note=60, velocity=49, time=1),
    Message('note_on', channel=5, note=64, velocity=49, time=0),
    Message('note_on', channel=5, note=67, velocity=49, time=14),
    Message('control_change', channel=5, control=7, value=63, time=195),
    Message('note_off', channel=5, note=60, velocity=0, time=2832),
    Message('note_off', channel=5, note=64, velocity=0, time=0),
    Message('note_off', channel=5, note=67, velocity=0, time=0),
    Message('note_on', channel=5, note=50, velocity=49, time=5),
    Message('note_on', channel=5, note=57, velocity=49, time=542),
    Message('note_off', channel=5, note=57, velocity=0, time=507),
    Message('note_on', channel=5, note=62, velocity=50, time=1),
    Message('note_on', channel=5, note=65, velocity=50, time=15),
    Message('note_off', channel=5, note=62, velocity=0, time=489),
    Message('note_off', channel=5, note=65, velocity=0, time=0),
    Message('note_on', channel=5, note=57, velocity=49, time=1),
    Message('note_off', channel=5, note=57, velocity=0, time=509),
    Message('note_on', channel=5, note=62, velocity=52, time=1),
    Message('note_on', channel=5, note=65, velocity=52, time=7),
    Message('note_off', channel=5, note=62, velocity=0, time=502),
    Message('note_off', channel=5, note=65, velocity=0, time=0),
    Message('note_on', channel=5, note=57, velocity=49, time=1),
    Message('note_off', channel=5, note=57, velocity=0, time=504),
    Message('note_on', channel=5, note=62, velocity=50, time=1),
    Message('note_on', channel=5, note=65, velocity=50, time=7),
    Message('note_off', channel=5, note=62, velocity=0, time=497),
    Message('note_off', channel=5, note=65, velocity=0, time=0),
    Message('note_on', channel=5, note=57, velocity=49, time=1),
    Message('note_off', channel=5, note=57, velocity=0, time=506),
    Message('note_off', channel=5, note=50, velocity=0, time=0),
    Message('note_on', channel=5, note=48, velocity=49, time=5),
    Message('note_on', channel=5, note=57, velocity=49, time=542),
    Message('note_off', channel=5, note=57, velocity=0, time=507),
    Message('note_on', channel=5, note=60, velocity=50, time=1),
    Message('note_on', channel=5, note=64, velocity=50, time=6),
    Message('note_off', channel=5, note=60, velocity=0, time=498),
    Message('note_off', channel=5, note=64, velocity=0, time=0),
    Message('note_on', channel=5, note=57, velocity=49, time=1),
    Message('note_off', channel=5, note=57, velocity=0, time=509),
    Message('note_on', channel=5, note=60, velocity=52, time=1),
    Message('note_on', channel=5, note=64, velocity=52, time=6),
    Message('note_off', channel=5, note=60, velocity=0, time=503),
    Message('note_off', channel=5, note=64, velocity=0, time=0),
    Message('note_on', channel=5, note=57, velocity=49, time=1),
    Message('note_off', channel=5, note=57, velocity=0, time=504),
    Message('note_on', channel=5, note=60, velocity=50, time=1),
    Message('note_on', channel=5, note=64, velocity=50, time=2),
    Message('note_off', channel=5, note=60, velocity=0, time=502),
    Message('note_off', channel=5, note=64, velocity=0, time=0),
    Message('note_on', channel=5, note=57, velocity=49, time=1),
    Message('note_off', channel=5, note=57, velocity=0, time=506),
    Message('note_off', channel=5, note=48, velocity=0, time=0),
    Message('note_on', channel=5, note=46, velocity=49, time=5),
    Message('note_on', channel=5, note=58, velocity=49, time=542),
    Message('note_off', channel=5, note=58, velocity=0, time=507),
    Message('note_on', channel=5, note=62, velocity=50, time=1),
    Message('note_on', channel=5, note=65, velocity=50, time=7),
    Message('note_off', channel=5, note=62, velocity=0, time=497),
    Message('note_off', channel=5, note=65, velocity=0, time=0),
    Message('note_on', channel=5, note=58, velocity=49, time=1),
    Message('note_off', channel=5, note=58, velocity=0, time=509),
    Message('note_on', channel=5, note=62, velocity=52, time=1),
    Message('note_on', channel=5, note=65, velocity=52, time=5),
    Message('note_off', channel=5, note=62, velocity=0, time=504),
    Message('note_off', channel=5, note=65, velocity=0, time=0),
    Message('note_on', channel=5, note=58, velocity=49, time=1),
    Message('note_off', channel=5, note=58, velocity=0, time=504),
    Message('note_on', channel=5, note=62, velocity=50, time=1),
    Message('note_on', channel=5, note=65, velocity=50, time=16),
    Message('note_off', channel=5, note=62, velocity=0, time=488),
    Message('note_off', channel=5, note=65, velocity=0, time=0),
    Message('note_on', channel=5, note=58, velocity=49, time=1),
    Message('note_off', channel=5, note=58, velocity=0, time=506),
    Message('note_off', channel=5, note=46, velocity=0, time=0),
    Message('note_on', channel=5, note=45, velocity=54, time=7),
    Message('note_on', channel=5, note=52, velocity=49, time=540),
    Message('note_off', channel=5, note=52, velocity=0, time=507),
    Message('note_on', channel=5, note=57, velocity=50, time=1),
    Message('note_on', channel=5, note=62, velocity=50, time=5),
    Message('note_off', channel=5, note=57, velocity=0, time=499),
    Message('note_off', channel=5, note=62, velocity=0, time=0),
    Message('note_on', channel=5, note=64, velocity=49, time=1),
    Message('note_off', channel=5, note=45, velocity=0, time=440),
    Message('note_off', channel=5, note=64, velocity=0, time=69),
    Message('note_on', channel=5, note=45, velocity=52, time=1),
    Message('note_on', channel=5, note=52, velocity=49, time=510),
    Message('note_off', channel=5, note=52, velocity=0, time=504),
    Message('note_on', channel=5, note=57, velocity=50, time=1),
    Message('note_on', channel=5, note=61, velocity=50, time=4),
    Message('note_off', channel=5, note=57, velocity=0, time=500),
    Message('note_off', channel=5, note=61, velocity=0, time=0),
    Message('note_on', channel=5, note=64, velocity=49, time=1),
    Message('note_off', channel=5, note=64, velocity=0, time=506),
    Message('note_off', channel=5, note=45, velocity=0, time=0),
    Message('note_on', channel=5, note=58, velocity=54, time=5),
    Message('control_change', channel=5, control=7, value=70, time=235),
    Message('note_off', channel=5, note=58, velocity=0, time=304),
    Message('note_on', channel=5, note=46, velocity=49, time=1),
    Message('note_off', channel=5, note=46, velocity=0, time=505),
    Message('note_on', channel=5, note=62, velocity=49, time=1),
    Message('note_on', channel=5, note=65, velocity=49, time=0),
    Message('note_on', channel=5, note=69, velocity=49, time=11),
    Message('control_change', channel=5, control=7, value=63, time=202),
    Message('note_off', channel=5, note=62, velocity=0, time=1808),
    Message('note_off', channel=5, note=65, velocity=0, time=0),
    Message('note_off', channel=5, note=69, velocity=0, time=0),
    Message('note_on', channel=5, note=58, velocity=54, time=5),
    Message('note_off', channel=5, note=58, velocity=0, time=539),
    Message('note_on', channel=5, note=46, velocity=49, time=1),
    Message('note_off', channel=5, note=46, velocity=0, time=505),
    Message('note_on', channel=5, note=53, velocity=50, time=1),
    Message('note_on', channel=5, note=62, velocity=50, time=5),
    Message('note_on', channel=5, note=57, velocity=50, time=10),
    Message('note_off', channel=5, note=57, velocity=0, time=896),
    Message('note_off', channel=5, note=62, velocity=0, time=10),
    Message('note_off', channel=5, note=53, velocity=0, time=94),
    Message('note_on', channel=5, note=57, velocity=52, time=1),
    Message('note_on', channel=5, note=62, velocity=52, time=0),
    Message('note_on', channel=5, note=65, velocity=52, time=13),
    Message('note_off', channel=5, note=57, velocity=0, time=992),
    Message('note_off', channel=5, note=62, velocity=0, time=0),
    Message('note_off', channel=5, note=65, velocity=0, time=0),
    Message('note_on', channel=5, note=45, velocity=54, time=5),
    Message('control_change', channel=5, control=7, value=70, time=235),
    Message('note_off', channel=5, note=45, velocity=0, time=304),
    Message('note_on', channel=5, note=55, velocity=49, time=1),
    Message('note_off', channel=5, note=55, velocity=0, time=505),
    Message('note_on', channel=5, note=57, velocity=49, time=1),
    Message('note_on', channel=5, note=60, velocity=49, time=0),
    Message('note_on', channel=5, note=64, velocity=49, time=7),
    Message('control_change', channel=5, control=7, value=63, time=206),
    Message('note_off', channel=5, note=57, velocity=0, time=1808),
    Message('note_off', channel=5, note=60, velocity=0, time=0),
    Message('note_off', channel=5, note=64, velocity=0, time=0),
    Message('note_on', channel=5, note=57, velocity=54, time=5),
    Message('note_off', channel=5, note=57, velocity=0, time=539),
    Message('note_on', channel=5, note=45, velocity=49, time=1),
    Message('note_off', channel=5, note=45, velocity=0, time=505),
    Message('note_on', channel=5, note=59, velocity=50, time=1),
    Message('note_on', channel=5, note=60, velocity=50, time=6),
    Message('note_on', channel=5, note=64, velocity=50, time=4),
    Message('note_on', channel=5, note=67, velocity=50, time=5),
    Message('note_off', channel=5, note=60, velocity=0, time=905),
    Message('note_off', channel=5, note=64, velocity=0, time=12),
    Message('note_off', channel=5, note=59, velocity=0, time=83),
    Message('note_off', channel=5, note=67, velocity=0, time=0),
    Message('note_on', channel=5, note=55, velocity=52, time=1),
    Message('note_on', channel=5, note=57, velocity=52, time=0),
    Message('note_on', channel=5, note=60, velocity=52, time=0),
    Message('note_on', channel=5, note=64, velocity=52, time=16),
    Message('note_off', channel=5, note=55, velocity=0, time=989),
    Message('note_off', channel=5, note=57, velocity=0, time=0),
    Message('note_off', channel=5, note=60, velocity=0, time=0),
    Message('note_off', channel=5, note=64, velocity=0, time=0),
    Message('note_on', channel=5, note=46, velocity=54, time=5),
    Message('control_change', channel=5, control=7, value=70, time=235),
    Message('note_off', channel=5, note=46, velocity=0, time=810),
    Message('note_on', channel=5, note=62, velocity=49, time=1),
    Message('note_on', channel=5, note=65, velocity=49, time=0),
    Message('note_on', channel=5, note=69, velocity=49, time=5),
    Message('control_change', channel=5, control=7, value=63, time=208),
    Message('note_off', channel=5, note=62, velocity=0, time=1808),
    Message('note_off', channel=5, note=65, velocity=0, time=0),
    Message('note_off', channel=5, note=69, velocity=0, time=0),
    Message('note_on', channel=5, note=46, velocity=54, time=5),
    Message('note_off', channel=5, note=46, velocity=0, time=1045),
    Message('note_on', channel=5, note=53, velocity=50, time=1),
    Message('note_on', channel=5, note=62, velocity=50, time=10),
    Message('note_on', channel=5, note=57, velocity=50, time=3),
    Message('note_off', channel=5, note=57, velocity=0, time=900),
    Message('note_off', channel=5, note=62, velocity=0, time=3),
    Message('note_off', channel=5, note=53, velocity=0, time=99),
    Message('note_on', channel=5, note=57, velocity=52, time=1),
    Message('note_on', channel=5, note=62, velocity=52, time=0),
    Message('note_on', channel=5, note=65, velocity=52, time=17),
    Message('note_off', channel=5, note=57, velocity=0, time=988),
    Message('note_off', channel=5, note=62, velocity=0, time=0),
    Message('note_off', channel=5, note=65, velocity=0, time=0),
    Message('note_on', channel=5, note=45, velocity=54, time=5),
    Message('control_change', channel=5, control=7, value=70, time=235),
    Message('note_off', channel=5, note=45, velocity=0, time=304),
    Message('note_on', channel=5, note=55, velocity=49, time=1),
    Message('note_off', channel=5, note=55, velocity=0, time=505),
    Message('note_on', channel=5, note=57, velocity=49, time=1),
    Message('note_on', channel=5, note=60, velocity=49, time=0),
    Message('note_on', channel=5, note=64, velocity=49, time=3),
    Message('control_change', channel=5, control=7, value=63, time=210),
    Message('note_off', channel=5, note=57, velocity=0, time=1808),
    Message('note_off', channel=5, note=60, velocity=0, time=0),
    Message('note_off', channel=5, note=64, velocity=0, time=0),
    Message('note_on', channel=5, note=62, velocity=54, time=5),
    Message('note_on', channel=5, note=50, velocity=54, time=0),
    Message('note_off', channel=5, note=62, velocity=0, time=539),
    Message('note_off', channel=5, note=50, velocity=0, time=0),
    Message('note_on', channel=5, note=69, velocity=49, time=1),
    Message('note_on', channel=5, note=57, velocity=49, time=0),
    Message('note_off', channel=5, note=69, velocity=0, time=505),
    Message('note_off', channel=5, note=57, velocity=0, time=0),
    Message('note_on', channel=5, note=74, velocity=50, time=1),
    Message('note_on', channel=5, note=62, velocity=50, time=0),
    Message('note_off', channel=5, note=74, velocity=0, time=508),
    Message('note_off', channel=5, note=62, velocity=0, time=0),
    Message('note_on', channel=5, note=76, velocity=49, time=1),
    Message('note_on', channel=5, note=64, velocity=49, time=0),
    Message('note_off', channel=5, note=76, velocity=0, time=506),
    Message('note_off', channel=5, note=64, velocity=0, time=0),
    Message('note_on', channel=5, note=77, velocity=52, time=1),
    Message('note_on', channel=5, note=65, velocity=52, time=0),
    Message('note_off', channel=5, note=77, velocity=0, time=500),
    Message('note_off', channel=5, note=65, velocity=0, time=0),
    Message('note_on', channel=5, note=81, velocity=49, time=1),
    Message('note_on', channel=5, note=69, velocity=49, time=0),
    Message('note_off', channel=5, note=81, velocity=0, time=504),
    Message('note_off', channel=5, note=69, velocity=0, time=0),
    Message('note_on', channel=5, note=58, velocity=54, time=5),
    Message('control_change', channel=5, control=7, value=70, time=235),
    Message('note_off', channel=5, note=58, velocity=0, time=304),
    Message('note_on', channel=5, note=46, velocity=49, time=1),
    Message('note_off', channel=5, note=46, velocity=0, time=505),
    Message('note_on', channel=5, note=62, velocity=49, time=1),
    Message('note_on', channel=5, note=65, velocity=49, time=0),
    Message('note_on', channel=5, note=69, velocity=49, time=12),
    Message('control_change', channel=5, control=7, value=63, time=201),
    Message('note_off', channel=5, note=62, velocity=0, time=1808),
    Message('note_off', channel=5, note=65, velocity=0, time=0),
    Message('note_off', channel=5, note=69, velocity=0, time=0),
    Message('note_on', channel=5, note=58, velocity=54, time=5),
    Message('note_off', channel=5, note=58, velocity=0, time=539),
    Message('note_on', channel=5, note=46, velocity=49, time=1),
    Message('note_off', channel=5, note=46, velocity=0, time=505),
    Message('note_on', channel=5, note=53, velocity=50, time=1),
    Message('note_on', channel=5, note=57, velocity=50, time=5),
    Message('note_on', channel=5, note=62, velocity=50, time=7),
    Message('note_off', channel=5, note=62, velocity=0, time=902),
    Message('note_off', channel=5, note=57, velocity=0, time=7),
    Message('note_off', channel=5, note=53, velocity=0, time=94),
    Message('note_on', channel=5, note=57, velocity=52, time=1),
    Message('note_on', channel=5, note=62, velocity=52, time=0),
    Message('note_on', channel=5, note=65, velocity=52, time=4),
    Message('note_off', channel=5, note=57, velocity=0, time=1001),
    Message('note_off', channel=5, note=62, velocity=0, time=0),
    Message('note_off', channel=5, note=65, velocity=0, time=0),
    Message('note_on', channel=5, note=45, velocity=54, time=5),
    Message('control_change', channel=5, control=7, value=70, time=235),
    Message('note_off', channel=5, note=45, velocity=0, time=304),
    Message('note_on', channel=5, note=55, velocity=49, time=1),
    Message('note_off', channel=5, note=55, velocity=0, time=505),
    Message('note_on', channel=5, note=57, velocity=49, time=1),
    Message('note_on', channel=5, note=60, velocity=49, time=0),
    Message('note_on', channel=5, note=64, velocity=49, time=13),
    Message('control_change', channel=5, control=7, value=63, time=200),
    Message('note_off', channel=5, note=57, velocity=0, time=1808),
    Message('note_off', channel=5, note=60, velocity=0, time=0),
    Message('note_off', channel=5, note=64, velocity=0, time=0),
    Message('note_on', channel=5, note=57, velocity=54, time=5),
    Message('note_off', channel=5, note=57, velocity=0, time=539),
    Message('note_on', channel=5, note=45, velocity=49, time=1),
    Message('note_off', channel=5, note=45, velocity=0, time=505),
    Message('note_on', channel=5, note=59, velocity=50, time=1),
    Message('note_on', channel=5, note=64, velocity=50, time=0),
    Message('note_on', channel=5, note=60, velocity=50, time=11),
    Message('note_on', channel=5, note=67, velocity=50, time=1),
    Message('note_off', channel=5, note=60, velocity=0, time=903),
    Message('note_off', channel=5, note=64, velocity=0, time=24),
    Message('note_off', channel=5, note=59, velocity=0, time=76),
    Message('note_off', channel=5, note=67, velocity=0, time=0),
    Message('note_on', channel=5, note=55, velocity=52, time=1),
    Message('note_on', channel=5, note=57, velocity=52, time=0),
    Message('note_on', channel=5, note=60, velocity=52, time=0),
    Message('note_on', channel=5, note=64, velocity=52, time=13),
    Message('note_off', channel=5, note=55, velocity=0, time=992),
    Message('note_off', channel=5, note=57, velocity=0, time=0),
    Message('note_off', channel=5, note=60, velocity=0, time=0),
    Message('note_off', channel=5, note=64, velocity=0, time=0),
    Message('note_on', channel=5, note=56, velocity=54, time=5),
    Message('control_change', channel=5, control=7, value=70, time=235),
    Message('note_off', channel=5, note=56, velocity=0, time=304),
    Message('note_on', channel=5, note=44, velocity=49, time=1),
    Message('note_off', channel=5, note=44, velocity=0, time=505),
    Message('note_on', channel=5, note=56, velocity=49, time=1),
    Message('note_on', channel=5, note=59, velocity=49, time=0),
    Message('note_on', channel=5, note=65, velocity=49, time=3),
    Message('control_change', channel=5, control=7, value=63, time=210),
    Message('note_off', channel=5, note=56, velocity=0, time=1808),
    Message('note_off', channel=5, note=59, velocity=0, time=0),
    Message('note_off', channel=5, note=65, velocity=0, time=0),
    Message('note_on', channel=5, note=56, velocity=54, time=5),
    Message('note_off', channel=5, note=56, velocity=0, time=539),
    Message('note_on', channel=5, note=44, velocity=49, time=1),
    Message('note_off', channel=5, note=44, velocity=0, time=505),
    Message('note_on', channel=5, note=56, velocity=49, time=1),
    Message('note_on', channel=5, note=59, velocity=49, time=0),
    Message('note_on', channel=5, note=65, velocity=49, time=14),
    Message('note_off', channel=5, note=56, velocity=0, time=2007),
    Message('note_off', channel=5, note=59, velocity=0, time=0),
    Message('note_off', channel=5, note=65, velocity=0, time=0),
    Message('note_on', channel=5, note=43, velocity=54, time=5),
    Message('control_change', channel=5, control=7, value=70, time=235),
    Message('note_off', channel=5, note=43, velocity=0, time=810),
    Message('note_on', channel=5, note=53, velocity=49, time=1),
    Message('note_on', channel=5, note=58, velocity=49, time=0),
    Message('note_on', channel=5, note=60, velocity=49, time=0),
    Message('control_change', channel=5, control=7, value=63, time=214),
    Message('note_off', channel=5, note=53, velocity=0, time=1807),
    Message('note_off', channel=5, note=58, velocity=0, time=0),
    Message('note_off', channel=5, note=60, velocity=0, time=0),
    Message('note_on', channel=5, note=42, velocity=54, time=5),
    Message('control_change', channel=5, control=7, value=70, time=237),
    Message('note_off', channel=5, note=42, velocity=0, time=808),
    Message('note_on', channel=5, note=60, velocity=50, time=1),
    Message('note_on', channel=5, note=65, velocity=50, time=12),
    Message('note_off', channel=5, note=60, velocity=0, time=1003),
    Message('note_off', channel=5, note=65, velocity=0, time=0),
    Message('note_on', channel=5, note=65, velocity=52, time=1),
    Message('note_on', channel=5, note=70, velocity=52, time=13),
    Message('note_off', channel=5, note=65, velocity=0, time=992),
    Message('note_off', channel=5, note=70, velocity=0, time=0),
    Message('note_on', channel=5, note=62, velocity=49, time=5),
    Message('note_on', channel=5, note=67, velocity=49, time=0),
    Message('note_on', channel=5, note=50, velocity=49, time=0),
    Message('note_on', channel=5, note=55, velocity=49, time=0),
    Message('note_off', channel=5, note=62, velocity=0, time=3067),
    Message('note_off', channel=5, note=67, velocity=0, time=0),
    Message('note_off', channel=5, note=50, velocity=0, time=0),
    Message('note_off', channel=5, note=55, velocity=0, time=0),
    MetaMessage('end_of_track', time=0)])
])